<?xml version="1.0" standalone="no"?>
 <!DOCTYPE svg PUBLIC "-//W3C//DTD SVG 1.1//EN" 
 "http://www.w3.org/Graphics/SVG/1.1/DTD/svg11.dtd"> 
<svg xmlns="http://www.w3.org/2000/svg" version="1.1" 
    width="7.1247cm" height="4.0767cm" viewBox="0 0 28050 16050 ">
<title>SVG Picture created as Stop_Band_Filter-F.Cu.svg date 2019/01/20 14:09:49 </title>
  <desc>Picture generated by PCBNEW </desc>
<g style="fill:#000000; fill-opacity:1;stroke:#000000; stroke-opacity:1;
stroke-linecap:round; stroke-linejoin:round; "
 transform="translate(0 0) scale(1 1)">
</g>
<g style="fill:#000000; fill-opacity:0.0; 
stroke:#000000; stroke-width:-0.000393701; stroke-opacity:1; 
stroke-linecap:round; stroke-linejoin:round;">
</g>
<g style="fill:#000000; fill-opacity:0.0; 
stroke:#000000; stroke-width:98.4252; stroke-opacity:1; 
stroke-linecap:round; stroke-linejoin:round;">
<path d="M8989 10313
L8689 10313
" />
<path d="M8295 10463
L8520 10463
" />
<path d="M8408 10463
L8408 10069
L8445 10126
L8483 10163
L8520 10182
" />
<path d="M8145 10107
L8126 10088
L8089 10069
L7995 10069
L7958 10088
L7939 10107
L7920 10144
L7920 10182
L7939 10238
L8164 10463
L7920 10463
" />
<path d="M7789 10201
L7695 10463
L7602 10201
" />
</g>
<g style="fill:#000000; fill-opacity:0.0; 
stroke:#000000; stroke-width:118.11; stroke-opacity:1; 
stroke-linecap:round; stroke-linejoin:round;">
<path d="M9419 2290
L9335 2318
L9194 2318
L9138 2290
L9110 2262
L9082 2206
L9082 2149
L9110 2093
L9138 2065
L9194 2037
L9307 2009
L9363 1981
L9391 1953
L9419 1896
L9419 1840
L9391 1784
L9363 1756
L9307 1728
L9166 1728
L9082 1756
" />
<path d="M8913 1924
L8688 1924
" />
<path d="M8829 1728
L8829 2234
L8801 2290
L8744 2318
L8688 2318
" />
<path d="M8407 2318
L8463 2290
L8491 2262
L8520 2206
L8520 2037
L8491 1981
L8463 1953
L8407 1924
L8323 1924
L8266 1953
L8238 1981
L8210 2037
L8210 2206
L8238 2262
L8266 2290
L8323 2318
L8407 2318
" />
<path d="M7957 1924
L7957 2515
" />
<path d="M7957 1953
L7901 1924
L7788 1924
L7732 1953
L7704 1981
L7676 2037
L7676 2206
L7704 2262
L7732 2290
L7788 2318
L7901 2318
L7957 2290
" />
<path d="M6776 2009
L6692 2037
L6663 2065
L6635 2121
L6635 2206
L6663 2262
L6692 2290
L6748 2318
L6973 2318
L6973 1728
L6776 1728
L6720 1756
L6692 1784
L6663 1840
L6663 1896
L6692 1953
L6720 1981
L6776 2009
L6973 2009
" />
<path d="M6129 2318
L6129 2009
L6157 1953
L6214 1924
L6326 1924
L6382 1953
" />
<path d="M6129 2290
L6185 2318
L6326 2318
L6382 2290
L6410 2234
L6410 2178
L6382 2121
L6326 2093
L6185 2093
L6129 2065
" />
<path d="M5848 1924
L5848 2318
" />
<path d="M5848 1981
L5820 1953
L5764 1924
L5679 1924
L5623 1953
L5595 2009
L5595 2318
" />
<path d="M5061 2318
L5061 1728
" />
<path d="M5061 2290
L5117 2318
L5229 2318
L5286 2290
L5314 2262
L5342 2206
L5342 2037
L5314 1981
L5286 1953
L5229 1924
L5117 1924
L5061 1953
" />
<path d="M4133 2009
L4329 2009
" />
<path d="M4329 2318
L4329 1728
L4048 1728
" />
<path d="M3823 2318
L3823 1924
" />
<path d="M3823 1728
L3851 1756
L3823 1784
L3795 1756
L3823 1728
L3823 1784
" />
<path d="M3458 2318
L3514 2290
L3542 2234
L3542 1728
" />
<path d="M3317 1924
L3092 1924
" />
<path d="M3233 1728
L3233 2234
L3205 2290
L3148 2318
L3092 2318
" />
<path d="M2670 2290
L2726 2318
L2839 2318
L2895 2290
L2923 2234
L2923 2009
L2895 1953
L2839 1924
L2726 1924
L2670 1953
L2642 2009
L2642 2065
L2923 2121
" />
<path d="M2389 2318
L2389 1924
" />
<path d="M2389 2037
L2361 1981
L2333 1953
L2277 1924
L2220 1924
" />
<path d="M2927 15141
L2477 15141
" />
<path d="M2702 15366
L2702 14916
" />
<path d="M1887 15366
L2224 15366
" />
<path d="M2056 15366
L2056 14776
L2112 14860
L2168 14916
L2224 14944
" />
<path d="M1662 14832
L1634 14804
L1578 14776
L1437 14776
L1381 14804
L1353 14832
L1324 14888
L1324 14944
L1353 15029
L1690 15366
L1324 15366
" />
<path d="M1128 14972
L987 15366
L846 14972
" />
<path d="M6466 8631
L6353 8631
L6297 8659
L6241 8715
L6212 8827
L6212 9024
L6241 9137
L6297 9193
L6353 9221
L6466 9221
L6522 9193
L6578 9137
L6606 9024
L6606 8827
L6578 8715
L6522 8659
L6466 8631
" />
<path d="M5959 8631
L5959 9109
L5931 9165
L5903 9193
L5847 9221
L5734 9221
L5678 9193
L5650 9165
L5622 9109
L5622 8631
" />
<path d="M5425 8631
L5088 8631
" />
<path d="M5256 9221
L5256 8631
" />
</g>
<g style="fill:#000000; fill-opacity:0.0; 
stroke:#000000; stroke-width:98.4252; stroke-opacity:1; 
stroke-linecap:round; stroke-linejoin:round;">
<path d="M27426 5792
L27426 5398
" />
<path d="M27239 5792
L27239 5398
L27014 5792
L27014 5398
" />
</g>
<g style="fill:#000000; fill-opacity:0.0; 
stroke:#000000; stroke-width:0; stroke-opacity:1; 
stroke-linecap:round; stroke-linejoin:round;">
</g>
<g style="fill:#000000; fill-opacity:1.0; 
stroke:#000000; stroke-width:0; stroke-opacity:1; 
stroke-linecap:round; stroke-linejoin:round;">
<polyline style="fill-rule:evenodd;"
points="14077,11986
14077,11652
13743,11652
13743,11986
14077,11986
" /> 
<polyline style="fill-rule:evenodd;"
points="23023,7380
23023,7046
22689,7046
22689,7380
23023,7380
" /> 
<polyline style="fill-rule:evenodd;"
points="15389,10166
15389,9832
15055,9832
15055,10166
15389,10166
" /> 
</g>
<g style="fill:#000000; fill-opacity:1.0; 
stroke:#000000; stroke-width:629.921; stroke-opacity:1; 
stroke-linecap:round; stroke-linejoin:round;">
</g>
<g style="fill:#000000; fill-opacity:0.0; 
stroke:#000000; stroke-width:629.921; stroke-opacity:1; 
stroke-linecap:round; stroke-linejoin:round;">
<path d="M20345 10464
L20345 10464
" />
<path d="M23345 13464
L23345 13464
" />
<path d="M20345 11464
L20345 11464
" />
<path d="M23345 12464
L23345 12464
" />
<path d="M20345 12464
L20345 12464
" />
<path d="M23345 11464
L23345 11464
" />
<path d="M20345 13464
L20345 13464
" />
</g>
<g style="fill:#000000; fill-opacity:0.0; 
stroke:#000000; stroke-width:0; stroke-opacity:1; 
stroke-linecap:round; stroke-linejoin:round;">
</g>
<g style="fill:#000000; fill-opacity:1.0; 
stroke:#000000; stroke-width:0; stroke-opacity:1; 
stroke-linecap:round; stroke-linejoin:round;">
<polyline style="fill-rule:evenodd;"
points="23660,10779
23660,10149
23030,10149
23030,10779
23660,10779
" /> 
</g>
<g style="fill:#000000; fill-opacity:1.0; 
stroke:#000000; stroke-width:629.921; stroke-opacity:1; 
stroke-linecap:round; stroke-linejoin:round;">
</g>
<g style="fill:#000000; fill-opacity:0.0; 
stroke:#000000; stroke-width:629.921; stroke-opacity:1; 
stroke-linecap:round; stroke-linejoin:round;">
<path d="M13845 4464
L13845 4464
" />
<path d="M16845 7464
L16845 7464
" />
<path d="M13845 5464
L13845 5464
" />
<path d="M16845 6464
L16845 6464
" />
<path d="M13845 6464
L13845 6464
" />
<path d="M16845 5464
L16845 5464
" />
<path d="M13845 7464
L13845 7464
" />
</g>
<g style="fill:#000000; fill-opacity:0.0; 
stroke:#000000; stroke-width:0; stroke-opacity:1; 
stroke-linecap:round; stroke-linejoin:round;">
</g>
<g style="fill:#000000; fill-opacity:1.0; 
stroke:#000000; stroke-width:0; stroke-opacity:1; 
stroke-linecap:round; stroke-linejoin:round;">
<polyline style="fill-rule:evenodd;"
points="17160,4779
17160,4149
16530,4149
16530,4779
17160,4779
" /> 
<polyline style="fill-rule:evenodd;"
points="9660,4779
9660,4149
9030,4149
9030,4779
9660,4779
" /> 
</g>
<g style="fill:#000000; fill-opacity:1.0; 
stroke:#000000; stroke-width:629.921; stroke-opacity:1; 
stroke-linecap:round; stroke-linejoin:round;">
</g>
<g style="fill:#000000; fill-opacity:0.0; 
stroke:#000000; stroke-width:629.921; stroke-opacity:1; 
stroke-linecap:round; stroke-linejoin:round;">
<path d="M6345 7464
L6345 7464
" />
<path d="M9345 5464
L9345 5464
" />
<path d="M6345 6464
L6345 6464
" />
<path d="M9345 6464
L9345 6464
" />
<path d="M6345 5464
L6345 5464
" />
<path d="M9345 7464
L9345 7464
" />
<path d="M6345 4464
L6345 4464
" />
</g>
<g style="fill:#000000; fill-opacity:0.0; 
stroke:#000000; stroke-width:0; stroke-opacity:1; 
stroke-linecap:round; stroke-linejoin:round;">
</g>
<g style="fill:#000000; fill-opacity:1.0; 
stroke:#000000; stroke-width:0; stroke-opacity:1; 
stroke-linecap:round; stroke-linejoin:round;">
<polyline style="fill-rule:evenodd;"
points="20378,4777
20369,4779
20360,4781
20352,4784
20343,4788
20335,4793
20328,4798
20321,4804
20315,4811
20310,4819
20305,4826
20301,4835
20298,4843
20296,4852
20294,4861
20294,4871
20294,5058
20294,5067
20296,5076
20298,5085
20301,5093
20305,5102
20310,5109
20315,5117
20321,5124
20328,5130
20335,5135
20343,5140
20352,5144
20360,5147
20369,5149
20378,5151
20387,5151
20614,5151
20623,5151
20632,5149
20641,5147
20649,5144
20658,5140
20666,5135
20673,5130
20680,5124
20686,5117
20691,5109
20696,5102
20700,5093
20703,5085
20705,5076
20707,5067
20707,5058
20707,4871
20707,4861
20705,4852
20703,4843
20700,4835
20696,4826
20691,4819
20686,4811
20680,4804
20673,4798
20666,4793
20658,4788
20649,4784
20641,4781
20632,4779
20623,4777
20614,4777
20387,4777
20378,4777
" /> 
<polyline style="fill-rule:evenodd;"
points="21067,4777
21058,4779
21049,4781
21040,4784
21032,4788
21024,4793
21017,4798
21010,4804
21004,4811
20999,4819
20994,4826
20990,4835
20987,4843
20985,4852
20983,4861
20983,4871
20983,5058
20983,5067
20985,5076
20987,5085
20990,5093
20994,5102
20999,5109
21004,5117
21010,5124
21017,5130
21024,5135
21032,5140
21040,5144
21049,5147
21058,5149
21067,5151
21076,5151
21303,5151
21312,5151
21321,5149
21330,5147
21338,5144
21347,5140
21355,5135
21362,5130
21369,5124
21375,5117
21380,5109
21385,5102
21389,5093
21392,5085
21394,5076
21396,5067
21396,5058
21396,4871
21396,4861
21394,4852
21392,4843
21389,4835
21385,4826
21380,4819
21375,4811
21369,4804
21362,4798
21355,4793
21347,4788
21338,4784
21330,4781
21321,4779
21312,4777
21303,4777
21076,4777
21067,4777
" /> 
<polyline style="fill-rule:evenodd;"
points="7412,12777
7403,12779
7394,12781
7385,12784
7377,12788
7369,12793
7361,12798
7355,12804
7348,12811
7343,12819
7338,12826
7334,12835
7331,12843
7329,12852
7328,12861
7327,12871
7327,13058
7328,13067
7329,13076
7331,13085
7334,13093
7338,13102
7343,13109
7348,13117
7355,13124
7361,13130
7369,13135
7377,13140
7385,13144
7394,13147
7403,13149
7412,13151
7421,13151
7647,13151
7656,13151
7665,13149
7674,13147
7683,13144
7691,13140
7699,13135
7706,13130
7713,13124
7719,13117
7725,13109
7730,13102
7734,13093
7737,13085
7739,13076
7740,13067
7741,13058
7741,12871
7740,12861
7739,12852
7737,12843
7734,12835
7730,12826
7725,12819
7719,12811
7713,12804
7706,12798
7699,12793
7691,12788
7683,12784
7674,12781
7665,12779
7656,12777
7647,12777
7421,12777
7412,12777
" /> 
<polyline style="fill-rule:evenodd;"
points="6723,12777
6714,12779
6705,12781
6696,12784
6688,12788
6680,12793
6672,12798
6666,12804
6660,12811
6654,12819
6649,12826
6645,12835
6642,12843
6640,12852
6639,12861
6638,12871
6638,13058
6639,13067
6640,13076
6642,13085
6645,13093
6649,13102
6654,13109
6660,13117
6666,13124
6672,13130
6680,13135
6688,13140
6696,13144
6705,13147
6714,13149
6723,13151
6732,13151
6958,13151
6967,13151
6976,13149
6985,13147
6994,13144
7002,13140
7010,13135
7017,13130
7024,13124
7030,13117
7036,13109
7041,13102
7045,13093
7048,13085
7050,13076
7051,13067
7052,13058
7052,12871
7051,12861
7050,12852
7048,12843
7045,12835
7041,12826
7036,12819
7030,12811
7024,12804
7017,12798
7010,12793
7002,12788
6994,12784
6985,12781
6976,12779
6967,12777
6958,12777
6732,12777
6723,12777
" /> 
<polyline style="fill-rule:evenodd;"
points="6160,11149
5530,11149
5530,11779
6160,11779
6160,11149
" /> 
</g>
<g style="fill:#000000; fill-opacity:1.0; 
stroke:#000000; stroke-width:629.921; stroke-opacity:1; 
stroke-linecap:round; stroke-linejoin:round;">
</g>
<g style="fill:#000000; fill-opacity:0.0; 
stroke:#000000; stroke-width:629.921; stroke-opacity:1; 
stroke-linecap:round; stroke-linejoin:round;">
<path d="M8845 14464
L8845 14464
" />
<path d="M6845 11464
L6845 11464
" />
<path d="M7845 14464
L7845 14464
" />
<path d="M7845 11464
L7845 11464
" />
<path d="M6845 14464
L6845 14464
" />
<path d="M8845 11464
L8845 11464
" />
<path d="M5845 14464
L5845 14464
" />
</g>
<g style="fill:#000000; fill-opacity:0.0; 
stroke:#000000; stroke-width:0; stroke-opacity:1; 
stroke-linecap:round; stroke-linejoin:round;">
</g>
<g style="fill:#000000; fill-opacity:1.0; 
stroke:#000000; stroke-width:0; stroke-opacity:1; 
stroke-linecap:round; stroke-linejoin:round;">
<polyline style="fill-rule:evenodd;"
points="23912,6277
23903,6279
23894,6281
23885,6284
23877,6288
23869,6293
23861,6298
23855,6304
23848,6311
23843,6319
23838,6326
23834,6335
23831,6343
23829,6352
23828,6361
23827,6371
23827,6558
23828,6567
23829,6576
23831,6585
23834,6593
23838,6602
23843,6609
23848,6617
23855,6624
23861,6630
23869,6635
23877,6640
23885,6644
23894,6647
23903,6649
23912,6651
23921,6651
24147,6651
24156,6651
24165,6649
24174,6647
24183,6644
24191,6640
24199,6635
24206,6630
24213,6624
24219,6617
24225,6609
24230,6602
24234,6593
24237,6585
24239,6576
24240,6567
24241,6558
24241,6371
24240,6361
24239,6352
24237,6343
24234,6335
24230,6326
24225,6319
24219,6311
24213,6304
24206,6298
24199,6293
24191,6288
24183,6284
24174,6281
24165,6279
24156,6277
24147,6277
23921,6277
23912,6277
" /> 
<polyline style="fill-rule:evenodd;"
points="23223,6277
23214,6279
23205,6281
23196,6284
23188,6288
23180,6293
23172,6298
23166,6304
23160,6311
23154,6319
23149,6326
23145,6335
23142,6343
23140,6352
23139,6361
23138,6371
23138,6558
23139,6567
23140,6576
23142,6585
23145,6593
23149,6602
23154,6609
23160,6617
23166,6624
23172,6630
23180,6635
23188,6640
23196,6644
23205,6647
23214,6649
23223,6651
23232,6651
23458,6651
23467,6651
23476,6649
23485,6647
23494,6644
23502,6640
23510,6635
23517,6630
23524,6624
23530,6617
23536,6609
23541,6602
23545,6593
23548,6585
23550,6576
23551,6567
23552,6558
23552,6371
23551,6361
23550,6352
23548,6343
23545,6335
23541,6326
23536,6319
23530,6311
23524,6304
23517,6298
23510,6293
23502,6288
23494,6284
23485,6281
23476,6279
23467,6277
23458,6277
23232,6277
23223,6277
" /> 
<polyline style="fill-rule:evenodd;"
points="23912,8277
23903,8279
23894,8281
23885,8284
23877,8288
23869,8293
23861,8298
23855,8304
23848,8311
23843,8319
23838,8326
23834,8335
23831,8343
23829,8352
23828,8361
23827,8371
23827,8558
23828,8567
23829,8576
23831,8585
23834,8593
23838,8602
23843,8609
23848,8617
23855,8624
23861,8630
23869,8635
23877,8640
23885,8644
23894,8647
23903,8649
23912,8651
23921,8651
24147,8651
24156,8651
24165,8649
24174,8647
24183,8644
24191,8640
24199,8635
24206,8630
24213,8624
24219,8617
24225,8609
24230,8602
24234,8593
24237,8585
24239,8576
24240,8567
24241,8558
24241,8371
24240,8361
24239,8352
24237,8343
24234,8335
24230,8326
24225,8319
24219,8311
24213,8304
24206,8298
24199,8293
24191,8288
24183,8284
24174,8281
24165,8279
24156,8277
24147,8277
23921,8277
23912,8277
" /> 
<polyline style="fill-rule:evenodd;"
points="23223,8277
23214,8279
23205,8281
23196,8284
23188,8288
23180,8293
23172,8298
23166,8304
23160,8311
23154,8319
23149,8326
23145,8335
23142,8343
23140,8352
23139,8361
23138,8371
23138,8558
23139,8567
23140,8576
23142,8585
23145,8593
23149,8602
23154,8609
23160,8617
23166,8624
23172,8630
23180,8635
23188,8640
23196,8644
23205,8647
23214,8649
23223,8651
23232,8651
23458,8651
23467,8651
23476,8649
23485,8647
23494,8644
23502,8640
23510,8635
23517,8630
23524,8624
23530,8617
23536,8609
23541,8602
23545,8593
23548,8585
23550,8576
23551,8567
23552,8558
23552,8371
23551,8361
23550,8352
23548,8343
23545,8335
23541,8326
23536,8319
23530,8311
23524,8304
23517,8298
23510,8293
23502,8288
23494,8284
23485,8281
23476,8279
23467,8277
23458,8277
23232,8277
23223,8277
" /> 
<polyline style="fill-rule:evenodd;"
points="2892,14276
2892,13942
2558,13942
2558,14276
2892,14276
" /> 
<polyline style="fill-rule:evenodd;"
points="15412,8777
15403,8779
15394,8781
15385,8784
15377,8788
15369,8793
15361,8798
15355,8804
15348,8811
15343,8819
15338,8826
15334,8835
15331,8843
15329,8852
15328,8861
15327,8871
15327,9058
15328,9067
15329,9076
15331,9085
15334,9093
15338,9102
15343,9109
15348,9117
15355,9124
15361,9130
15369,9135
15377,9140
15385,9144
15394,9147
15403,9149
15412,9151
15421,9151
15647,9151
15656,9151
15665,9149
15674,9147
15683,9144
15691,9140
15699,9135
15706,9130
15713,9124
15719,9117
15725,9109
15730,9102
15734,9093
15737,9085
15739,9076
15740,9067
15741,9058
15741,8871
15740,8861
15739,8852
15737,8843
15734,8835
15730,8826
15725,8819
15719,8811
15713,8804
15706,8798
15699,8793
15691,8788
15683,8784
15674,8781
15665,8779
15656,8777
15647,8777
15421,8777
15412,8777
" /> 
<polyline style="fill-rule:evenodd;"
points="14723,8777
14714,8779
14705,8781
14696,8784
14688,8788
14680,8793
14672,8798
14666,8804
14660,8811
14654,8819
14649,8826
14645,8835
14642,8843
14640,8852
14639,8861
14638,8871
14638,9058
14639,9067
14640,9076
14642,9085
14645,9093
14649,9102
14654,9109
14660,9117
14666,9124
14672,9130
14680,9135
14688,9140
14696,9144
14705,9147
14714,9149
14723,9151
14732,9151
14958,9151
14967,9151
14976,9149
14985,9147
14994,9144
15002,9140
15010,9135
15017,9130
15024,9124
15030,9117
15036,9109
15041,9102
15045,9093
15048,9085
15050,9076
15051,9067
15052,9058
15052,8871
15051,8861
15050,8852
15048,8843
15045,8835
15041,8826
15036,8819
15030,8811
15024,8804
15017,8798
15010,8793
15002,8788
14994,8784
14985,8781
14976,8779
14967,8777
14958,8777
14732,8777
14723,8777
" /> 
<polyline style="fill-rule:evenodd;"
points="10878,9777
10869,9779
10860,9781
10852,9784
10843,9788
10835,9793
10828,9798
10821,9804
10815,9811
10810,9819
10805,9826
10801,9835
10798,9843
10796,9852
10794,9861
10794,9871
10794,10058
10794,10067
10796,10076
10798,10085
10801,10093
10805,10102
10810,10109
10815,10117
10821,10124
10828,10130
10835,10135
10843,10140
10852,10144
10860,10147
10869,10149
10878,10151
10887,10151
11114,10151
11123,10151
11132,10149
11141,10147
11149,10144
11158,10140
11166,10135
11173,10130
11180,10124
11186,10117
11191,10109
11196,10102
11200,10093
11203,10085
11205,10076
11207,10067
11207,10058
11207,9871
11207,9861
11205,9852
11203,9843
11200,9835
11196,9826
11191,9819
11186,9811
11180,9804
11173,9798
11166,9793
11158,9788
11149,9784
11141,9781
11132,9779
11123,9777
11114,9777
10887,9777
10878,9777
" /> 
<polyline style="fill-rule:evenodd;"
points="11567,9777
11558,9779
11549,9781
11540,9784
11532,9788
11524,9793
11517,9798
11510,9804
11504,9811
11499,9819
11494,9826
11490,9835
11487,9843
11485,9852
11483,9861
11483,9871
11483,10058
11483,10067
11485,10076
11487,10085
11490,10093
11494,10102
11499,10109
11504,10117
11510,10124
11517,10130
11524,10135
11532,10140
11540,10144
11549,10147
11558,10149
11567,10151
11576,10151
11803,10151
11812,10151
11821,10149
11830,10147
11838,10144
11847,10140
11855,10135
11862,10130
11869,10124
11875,10117
11880,10109
11885,10102
11889,10093
11892,10085
11894,10076
11896,10067
11896,10058
11896,9871
11896,9861
11894,9852
11892,9843
11889,9835
11885,9826
11880,9819
11875,9811
11869,9804
11862,9798
11855,9793
11847,9788
11838,9784
11830,9781
11821,9779
11812,9777
11803,9777
11576,9777
11567,9777
" /> 
<polyline style="fill-rule:evenodd;"
points="6042,9956
6042,9622
5708,9622
5708,9956
6042,9956
" /> 
<polyline style="fill-rule:evenodd;"
points="13742,9913
13733,9915
13724,9917
13716,9920
13707,9924
13700,9929
13692,9934
13685,9940
13679,9947
13674,9954
13669,9962
13665,9971
13662,9979
13660,9988
13658,9997
13658,10006
13658,10233
13658,10242
13660,10251
13662,10260
13665,10269
13669,10277
13674,10285
13679,10292
13685,10299
13692,10305
13700,10310
13707,10315
13716,10319
13724,10322
13733,10324
13742,10326
13751,10326
13938,10326
13948,10326
13957,10324
13966,10322
13974,10319
13983,10315
13990,10310
13998,10305
14005,10299
14011,10292
14016,10285
14021,10277
14025,10269
14028,10260
14030,10251
14032,10242
14032,10233
14032,10006
14032,9997
14030,9988
14028,9979
14025,9971
14021,9962
14016,9954
14011,9947
14005,9940
13998,9934
13990,9929
13983,9924
13974,9920
13966,9917
13957,9915
13948,9913
13938,9913
13751,9913
13742,9913
" /> 
<polyline style="fill-rule:evenodd;"
points="13742,10602
13733,10604
13724,10606
13716,10609
13707,10613
13700,10618
13692,10623
13685,10629
13679,10636
13674,10643
13669,10651
13665,10660
13662,10668
13660,10677
13658,10686
13658,10695
13658,10922
13658,10931
13660,10940
13662,10949
13665,10957
13669,10966
13674,10974
13679,10981
13685,10988
13692,10994
13700,10999
13707,11004
13716,11008
13724,11011
13733,11013
13742,11015
13751,11015
13938,11015
13948,11015
13957,11013
13966,11011
13974,11008
13983,11004
13990,10999
13998,10994
14005,10988
14011,10981
14016,10974
14021,10966
14025,10957
14028,10949
14030,10940
14032,10931
14032,10922
14032,10695
14032,10686
14030,10677
14028,10668
14025,10660
14021,10651
14016,10643
14011,10636
14005,10629
13998,10623
13990,10618
13983,10613
13974,10609
13966,10606
13957,10604
13948,10602
13938,10602
13751,10602
13742,10602
" /> 
<polyline style="fill-rule:evenodd;"
points="17067,1777
17058,1779
17049,1781
17040,1784
17032,1788
17024,1793
17017,1798
17010,1804
17004,1811
16999,1819
16994,1826
16990,1835
16987,1843
16985,1852
16983,1861
16983,1871
16983,2058
16983,2067
16985,2076
16987,2085
16990,2093
16994,2102
16999,2109
17004,2117
17010,2124
17017,2130
17024,2135
17032,2140
17040,2144
17049,2147
17058,2149
17067,2151
17076,2151
17303,2151
17312,2151
17321,2149
17330,2147
17338,2144
17347,2140
17355,2135
17362,2130
17369,2124
17375,2117
17380,2109
17385,2102
17389,2093
17392,2085
17394,2076
17396,2067
17396,2058
17396,1871
17396,1861
17394,1852
17392,1843
17389,1835
17385,1826
17380,1819
17375,1811
17369,1804
17362,1798
17355,1793
17347,1788
17338,1784
17330,1781
17321,1779
17312,1777
17303,1777
17076,1777
17067,1777
" /> 
<polyline style="fill-rule:evenodd;"
points="16378,1777
16369,1779
16360,1781
16352,1784
16343,1788
16335,1793
16328,1798
16321,1804
16315,1811
16310,1819
16305,1826
16301,1835
16298,1843
16296,1852
16294,1861
16294,1871
16294,2058
16294,2067
16296,2076
16298,2085
16301,2093
16305,2102
16310,2109
16315,2117
16321,2124
16328,2130
16335,2135
16343,2140
16352,2144
16360,2147
16369,2149
16378,2151
16387,2151
16614,2151
16623,2151
16632,2149
16641,2147
16649,2144
16658,2140
16666,2135
16673,2130
16680,2124
16686,2117
16691,2109
16696,2102
16700,2093
16703,2085
16705,2076
16707,2067
16707,2058
16707,1871
16707,1861
16705,1852
16703,1843
16700,1835
16696,1826
16691,1819
16686,1811
16680,1804
16673,1798
16666,1793
16658,1788
16649,1784
16641,1781
16632,1779
16623,1777
16614,1777
16387,1777
16378,1777
" /> 
<polyline style="fill-rule:evenodd;"
points="23223,9277
23214,9279
23205,9281
23196,9284
23188,9288
23180,9293
23172,9298
23166,9304
23160,9311
23154,9319
23149,9326
23145,9335
23142,9343
23140,9352
23139,9361
23138,9371
23138,9558
23139,9567
23140,9576
23142,9585
23145,9593
23149,9602
23154,9609
23160,9617
23166,9624
23172,9630
23180,9635
23188,9640
23196,9644
23205,9647
23214,9649
23223,9651
23232,9651
23458,9651
23467,9651
23476,9649
23485,9647
23494,9644
23502,9640
23510,9635
23517,9630
23524,9624
23530,9617
23536,9609
23541,9602
23545,9593
23548,9585
23550,9576
23551,9567
23552,9558
23552,9371
23551,9361
23550,9352
23548,9343
23545,9335
23541,9326
23536,9319
23530,9311
23524,9304
23517,9298
23510,9293
23502,9288
23494,9284
23485,9281
23476,9279
23467,9277
23458,9277
23232,9277
23223,9277
" /> 
<polyline style="fill-rule:evenodd;"
points="23912,9277
23903,9279
23894,9281
23885,9284
23877,9288
23869,9293
23861,9298
23855,9304
23848,9311
23843,9319
23838,9326
23834,9335
23831,9343
23829,9352
23828,9361
23827,9371
23827,9558
23828,9567
23829,9576
23831,9585
23834,9593
23838,9602
23843,9609
23848,9617
23855,9624
23861,9630
23869,9635
23877,9640
23885,9644
23894,9647
23903,9649
23912,9651
23921,9651
24147,9651
24156,9651
24165,9649
24174,9647
24183,9644
24191,9640
24199,9635
24206,9630
24213,9624
24219,9617
24225,9609
24230,9602
24234,9593
24237,9585
24239,9576
24240,9567
24241,9558
24241,9371
24240,9361
24239,9352
24237,9343
24234,9335
24230,9326
24225,9319
24219,9311
24213,9304
24206,9298
24199,9293
24191,9288
24183,9284
24174,9281
24165,9279
24156,9277
24147,9277
23921,9277
23912,9277
" /> 
<polyline style="fill-rule:evenodd;"
points="8482,9816
8482,9482
8148,9482
8148,9816
8482,9816
" /> 
<polyline style="fill-rule:evenodd;"
points="21378,10777
21369,10779
21360,10781
21352,10784
21343,10788
21335,10793
21328,10798
21321,10804
21315,10811
21310,10819
21305,10826
21301,10835
21298,10843
21296,10852
21294,10861
21294,10871
21294,11058
21294,11067
21296,11076
21298,11085
21301,11093
21305,11102
21310,11109
21315,11117
21321,11124
21328,11130
21335,11135
21343,11140
21352,11144
21360,11147
21369,11149
21378,11151
21387,11151
21614,11151
21623,11151
21632,11149
21641,11147
21649,11144
21658,11140
21666,11135
21673,11130
21680,11124
21686,11117
21691,11109
21696,11102
21700,11093
21703,11085
21705,11076
21707,11067
21707,11058
21707,10871
21707,10861
21705,10852
21703,10843
21700,10835
21696,10826
21691,10819
21686,10811
21680,10804
21673,10798
21666,10793
21658,10788
21649,10784
21641,10781
21632,10779
21623,10777
21614,10777
21387,10777
21378,10777
" /> 
<polyline style="fill-rule:evenodd;"
points="22067,10777
22058,10779
22049,10781
22040,10784
22032,10788
22024,10793
22017,10798
22010,10804
22004,10811
21999,10819
21994,10826
21990,10835
21987,10843
21985,10852
21983,10861
21983,10871
21983,11058
21983,11067
21985,11076
21987,11085
21990,11093
21994,11102
21999,11109
22004,11117
22010,11124
22017,11130
22024,11135
22032,11140
22040,11144
22049,11147
22058,11149
22067,11151
22076,11151
22303,11151
22312,11151
22321,11149
22330,11147
22338,11144
22347,11140
22355,11135
22362,11130
22369,11124
22375,11117
22380,11109
22385,11102
22389,11093
22392,11085
22394,11076
22396,11067
22396,11058
22396,10871
22396,10861
22394,10852
22392,10843
22389,10835
22385,10826
22380,10819
22375,10811
22369,10804
22362,10798
22355,10793
22347,10788
22338,10784
22330,10781
22321,10779
22312,10777
22303,10777
22076,10777
22067,10777
" /> 
<polyline style="fill-rule:evenodd;"
points="25927,6051
25927,5717
25593,5717
25593,6051
25927,6051
" /> 
<polyline style="fill-rule:evenodd;"
points="12067,7777
12058,7779
12049,7781
12040,7784
12032,7788
12024,7793
12017,7798
12010,7804
12004,7811
11999,7819
11994,7826
11990,7835
11987,7843
11985,7852
11983,7861
11983,7871
11983,8058
11983,8067
11985,8076
11987,8085
11990,8093
11994,8102
11999,8109
12004,8117
12010,8124
12017,8130
12024,8135
12032,8140
12040,8144
12049,8147
12058,8149
12067,8151
12076,8151
12303,8151
12312,8151
12321,8149
12330,8147
12338,8144
12347,8140
12355,8135
12362,8130
12369,8124
12375,8117
12380,8109
12385,8102
12389,8093
12392,8085
12394,8076
12396,8067
12396,8058
12396,7871
12396,7861
12394,7852
12392,7843
12389,7835
12385,7826
12380,7819
12375,7811
12369,7804
12362,7798
12355,7793
12347,7788
12338,7784
12330,7781
12321,7779
12312,7777
12303,7777
12076,7777
12067,7777
" /> 
<polyline style="fill-rule:evenodd;"
points="11378,7777
11369,7779
11360,7781
11352,7784
11343,7788
11335,7793
11328,7798
11321,7804
11315,7811
11310,7819
11305,7826
11301,7835
11298,7843
11296,7852
11294,7861
11294,7871
11294,8058
11294,8067
11296,8076
11298,8085
11301,8093
11305,8102
11310,8109
11315,8117
11321,8124
11328,8130
11335,8135
11343,8140
11352,8144
11360,8147
11369,8149
11378,8151
11387,8151
11614,8151
11623,8151
11632,8149
11641,8147
11649,8144
11658,8140
11666,8135
11673,8130
11680,8124
11686,8117
11691,8109
11696,8102
11700,8093
11703,8085
11705,8076
11707,8067
11707,8058
11707,7871
11707,7861
11705,7852
11703,7843
11700,7835
11696,7826
11691,7819
11686,7811
11680,7804
11673,7798
11666,7793
11658,7788
11649,7784
11641,7781
11632,7779
11623,7777
11614,7777
11387,7777
11378,7777
" /> 
<polyline style="fill-rule:evenodd;"
points="16742,12102
16733,12104
16724,12106
16716,12109
16707,12113
16700,12118
16692,12123
16685,12129
16679,12136
16674,12143
16669,12151
16665,12160
16662,12168
16660,12177
16658,12186
16658,12195
16658,12422
16658,12431
16660,12440
16662,12449
16665,12457
16669,12466
16674,12474
16679,12481
16685,12488
16692,12494
16700,12499
16707,12504
16716,12508
16724,12511
16733,12513
16742,12515
16751,12515
16938,12515
16948,12515
16957,12513
16966,12511
16974,12508
16983,12504
16990,12499
16998,12494
17005,12488
17011,12481
17016,12474
17021,12466
17025,12457
17028,12449
17030,12440
17032,12431
17032,12422
17032,12195
17032,12186
17030,12177
17028,12168
17025,12160
17021,12151
17016,12143
17011,12136
17005,12129
16998,12123
16990,12118
16983,12113
16974,12109
16966,12106
16957,12104
16948,12102
16938,12102
16751,12102
16742,12102
" /> 
<polyline style="fill-rule:evenodd;"
points="16742,11413
16733,11415
16724,11417
16716,11420
16707,11424
16700,11429
16692,11434
16685,11440
16679,11447
16674,11454
16669,11462
16665,11471
16662,11479
16660,11488
16658,11497
16658,11506
16658,11733
16658,11742
16660,11751
16662,11760
16665,11769
16669,11777
16674,11785
16679,11792
16685,11799
16692,11805
16700,11810
16707,11815
16716,11819
16724,11822
16733,11824
16742,11826
16751,11826
16938,11826
16948,11826
16957,11824
16966,11822
16974,11819
16983,11815
16990,11810
16998,11805
17005,11799
17011,11792
17016,11785
17021,11777
17025,11769
17028,11760
17030,11751
17032,11742
17032,11733
17032,11506
17032,11497
17030,11488
17028,11479
17025,11471
17021,11462
17016,11454
17011,11447
17005,11440
16998,11434
16990,11429
16983,11424
16974,11420
16966,11417
16957,11415
16948,11413
16938,11413
16751,11413
16742,11413
" /> 
<polyline style="fill-rule:evenodd;"
points="21567,6277
21558,6279
21549,6281
21540,6284
21532,6288
21524,6293
21517,6298
21510,6304
21504,6311
21499,6319
21494,6326
21490,6335
21487,6343
21485,6352
21483,6361
21483,6371
21483,6558
21483,6567
21485,6576
21487,6585
21490,6593
21494,6602
21499,6609
21504,6617
21510,6624
21517,6630
21524,6635
21532,6640
21540,6644
21549,6647
21558,6649
21567,6651
21576,6651
21803,6651
21812,6651
21821,6649
21830,6647
21838,6644
21847,6640
21855,6635
21862,6630
21869,6624
21875,6617
21880,6609
21885,6602
21889,6593
21892,6585
21894,6576
21896,6567
21896,6558
21896,6371
21896,6361
21894,6352
21892,6343
21889,6335
21885,6326
21880,6319
21875,6311
21869,6304
21862,6298
21855,6293
21847,6288
21838,6284
21830,6281
21821,6279
21812,6277
21803,6277
21576,6277
21567,6277
" /> 
<polyline style="fill-rule:evenodd;"
points="20878,6277
20869,6279
20860,6281
20852,6284
20843,6288
20835,6293
20828,6298
20821,6304
20815,6311
20810,6319
20805,6326
20801,6335
20798,6343
20796,6352
20794,6361
20794,6371
20794,6558
20794,6567
20796,6576
20798,6585
20801,6593
20805,6602
20810,6609
20815,6617
20821,6624
20828,6630
20835,6635
20843,6640
20852,6644
20860,6647
20869,6649
20878,6651
20887,6651
21114,6651
21123,6651
21132,6649
21141,6647
21149,6644
21158,6640
21166,6635
21173,6630
21180,6624
21186,6617
21191,6609
21196,6602
21200,6593
21203,6585
21205,6576
21207,6567
21207,6558
21207,6371
21207,6361
21205,6352
21203,6343
21200,6335
21196,6326
21191,6319
21186,6311
21180,6304
21173,6298
21166,6293
21158,6288
21149,6284
21141,6281
21132,6279
21123,6277
21114,6277
20887,6277
20878,6277
" /> 
<polyline style="fill-rule:evenodd;"
points="21223,8777
21214,8779
21205,8781
21196,8784
21188,8788
21180,8793
21172,8798
21166,8804
21160,8811
21154,8819
21149,8826
21145,8835
21142,8843
21140,8852
21139,8861
21138,8871
21138,9058
21139,9067
21140,9076
21142,9085
21145,9093
21149,9102
21154,9109
21160,9117
21166,9124
21172,9130
21180,9135
21188,9140
21196,9144
21205,9147
21214,9149
21223,9151
21232,9151
21458,9151
21467,9151
21476,9149
21485,9147
21494,9144
21502,9140
21510,9135
21517,9130
21524,9124
21530,9117
21536,9109
21541,9102
21545,9093
21548,9085
21550,9076
21551,9067
21552,9058
21552,8871
21551,8861
21550,8852
21548,8843
21545,8835
21541,8826
21536,8819
21530,8811
21524,8804
21517,8798
21510,8793
21502,8788
21494,8784
21485,8781
21476,8779
21467,8777
21458,8777
21232,8777
21223,8777
" /> 
<polyline style="fill-rule:evenodd;"
points="21912,8777
21903,8779
21894,8781
21885,8784
21877,8788
21869,8793
21861,8798
21855,8804
21848,8811
21843,8819
21838,8826
21834,8835
21831,8843
21829,8852
21828,8861
21827,8871
21827,9058
21828,9067
21829,9076
21831,9085
21834,9093
21838,9102
21843,9109
21848,9117
21855,9124
21861,9130
21869,9135
21877,9140
21885,9144
21894,9147
21903,9149
21912,9151
21921,9151
22147,9151
22156,9151
22165,9149
22174,9147
22183,9144
22191,9140
22199,9135
22206,9130
22213,9124
22219,9117
22225,9109
22230,9102
22234,9093
22237,9085
22239,9076
22240,9067
22241,9058
22241,8871
22240,8861
22239,8852
22237,8843
22234,8835
22230,8826
22225,8819
22219,8811
22213,8804
22206,8798
22199,8793
22191,8788
22183,8784
22174,8781
22165,8779
22156,8777
22147,8777
21921,8777
21912,8777
" /> 
<polyline style="fill-rule:evenodd;"
points="18534,4277
18525,4279
18516,4281
18507,4284
18499,4288
18491,4293
18483,4298
18477,4304
18471,4311
18465,4319
18460,4326
18456,4335
18453,4343
18451,4352
18450,4361
18449,4371
18449,4558
18450,4567
18451,4576
18453,4585
18456,4593
18460,4602
18465,4609
18471,4617
18477,4624
18483,4630
18491,4635
18499,4640
18507,4644
18516,4647
18525,4649
18534,4651
18543,4651
18769,4651
18778,4651
18787,4649
18796,4647
18805,4644
18813,4640
18821,4635
18829,4630
18835,4624
18841,4617
18847,4609
18852,4602
18856,4593
18859,4585
18861,4576
18862,4567
18863,4558
18863,4371
18862,4361
18861,4352
18859,4343
18856,4335
18852,4326
18847,4319
18841,4311
18835,4304
18829,4298
18821,4293
18813,4288
18805,4284
18796,4281
18787,4279
18778,4277
18769,4277
18543,4277
18534,4277
" /> 
<polyline style="fill-rule:evenodd;"
points="19223,4277
19214,4279
19205,4281
19196,4284
19188,4288
19180,4293
19172,4298
19166,4304
19160,4311
19154,4319
19149,4326
19145,4335
19142,4343
19140,4352
19139,4361
19138,4371
19138,4558
19139,4567
19140,4576
19142,4585
19145,4593
19149,4602
19154,4609
19160,4617
19166,4624
19172,4630
19180,4635
19188,4640
19196,4644
19205,4647
19214,4649
19223,4651
19232,4651
19458,4651
19467,4651
19476,4649
19485,4647
19494,4644
19502,4640
19510,4635
19517,4630
19524,4624
19530,4617
19536,4609
19541,4602
19545,4593
19548,4585
19550,4576
19551,4567
19552,4558
19552,4371
19551,4361
19550,4352
19548,4343
19545,4335
19541,4326
19536,4319
19530,4311
19524,4304
19517,4298
19510,4293
19502,4288
19494,4284
19485,4281
19476,4279
19467,4277
19458,4277
19232,4277
19223,4277
" /> 
<polyline style="fill-rule:evenodd;"
points="8042,5802
8033,5804
8024,5806
8015,5809
8007,5813
7999,5818
7992,5823
7985,5829
7979,5836
7974,5844
7969,5851
7965,5860
7962,5868
7960,5877
7958,5886
7958,5896
7958,6083
7958,6092
7960,6101
7962,6110
7965,6118
7969,6127
7974,6134
7979,6142
7985,6149
7992,6155
7999,6160
8007,6165
8015,6169
8024,6172
8033,6174
8042,6176
8051,6176
8278,6176
8287,6176
8296,6174
8305,6172
8313,6169
8322,6165
8330,6160
8337,6155
8344,6149
8350,6142
8355,6134
8360,6127
8364,6118
8367,6110
8369,6101
8371,6092
8371,6083
8371,5896
8371,5886
8369,5877
8367,5868
8364,5860
8360,5851
8355,5844
8350,5836
8344,5829
8337,5823
8330,5818
8322,5813
8313,5809
8305,5806
8296,5804
8287,5802
8278,5802
8051,5802
8042,5802
" /> 
<polyline style="fill-rule:evenodd;"
points="7353,5802
7344,5804
7335,5806
7327,5809
7318,5813
7310,5818
7303,5823
7296,5829
7290,5836
7285,5844
7280,5851
7276,5860
7273,5868
7271,5877
7269,5886
7269,5896
7269,6083
7269,6092
7271,6101
7273,6110
7276,6118
7280,6127
7285,6134
7290,6142
7296,6149
7303,6155
7310,6160
7318,6165
7327,6169
7335,6172
7344,6174
7353,6176
7362,6176
7589,6176
7598,6176
7607,6174
7616,6172
7624,6169
7633,6165
7641,6160
7648,6155
7655,6149
7661,6142
7666,6134
7671,6127
7675,6118
7678,6110
7680,6101
7682,6092
7682,6083
7682,5896
7682,5886
7680,5877
7678,5868
7675,5860
7671,5851
7666,5844
7661,5836
7655,5829
7648,5823
7641,5818
7633,5813
7624,5809
7616,5806
7607,5804
7598,5802
7589,5802
7362,5802
7353,5802
" /> 
<polyline style="fill-rule:evenodd;"
points="18878,6277
18869,6279
18860,6281
18852,6284
18843,6288
18835,6293
18828,6298
18821,6304
18815,6311
18810,6319
18805,6326
18801,6335
18798,6343
18796,6352
18794,6361
18794,6371
18794,6558
18794,6567
18796,6576
18798,6585
18801,6593
18805,6602
18810,6609
18815,6617
18821,6624
18828,6630
18835,6635
18843,6640
18852,6644
18860,6647
18869,6649
18878,6651
18887,6651
19114,6651
19123,6651
19132,6649
19141,6647
19149,6644
19158,6640
19166,6635
19173,6630
19180,6624
19186,6617
19191,6609
19196,6602
19200,6593
19203,6585
19205,6576
19207,6567
19207,6558
19207,6371
19207,6361
19205,6352
19203,6343
19200,6335
19196,6326
19191,6319
19186,6311
19180,6304
19173,6298
19166,6293
19158,6288
19149,6284
19141,6281
19132,6279
19123,6277
19114,6277
18887,6277
18878,6277
" /> 
<polyline style="fill-rule:evenodd;"
points="19567,6277
19558,6279
19549,6281
19540,6284
19532,6288
19524,6293
19517,6298
19510,6304
19504,6311
19499,6319
19494,6326
19490,6335
19487,6343
19485,6352
19483,6361
19483,6371
19483,6558
19483,6567
19485,6576
19487,6585
19490,6593
19494,6602
19499,6609
19504,6617
19510,6624
19517,6630
19524,6635
19532,6640
19540,6644
19549,6647
19558,6649
19567,6651
19576,6651
19803,6651
19812,6651
19821,6649
19830,6647
19838,6644
19847,6640
19855,6635
19862,6630
19869,6624
19875,6617
19880,6609
19885,6602
19889,6593
19892,6585
19894,6576
19896,6567
19896,6558
19896,6371
19896,6361
19894,6352
19892,6343
19889,6335
19885,6326
19880,6319
19875,6311
19869,6304
19862,6298
19855,6293
19847,6288
19838,6284
19830,6281
19821,6279
19812,6277
19803,6277
19576,6277
19567,6277
" /> 
<polyline style="fill-rule:evenodd;"
points="7692,7027
7683,7029
7674,7031
7665,7034
7657,7038
7649,7043
7642,7048
7635,7054
7629,7061
7624,7069
7619,7076
7615,7085
7612,7093
7610,7102
7608,7111
7608,7121
7608,7308
7608,7317
7610,7326
7612,7335
7615,7343
7619,7352
7624,7359
7629,7367
7635,7374
7642,7380
7649,7385
7657,7390
7665,7394
7674,7397
7683,7399
7692,7401
7701,7401
7928,7401
7937,7401
7946,7399
7955,7397
7963,7394
7972,7390
7980,7385
7987,7380
7994,7374
8000,7367
8005,7359
8010,7352
8014,7343
8017,7335
8019,7326
8021,7317
8021,7308
8021,7121
8021,7111
8019,7102
8017,7093
8014,7085
8010,7076
8005,7069
8000,7061
7994,7054
7987,7048
7980,7043
7972,7038
7963,7034
7955,7031
7946,7029
7937,7027
7928,7027
7701,7027
7692,7027
" /> 
<polyline style="fill-rule:evenodd;"
points="7003,7027
6994,7029
6985,7031
6977,7034
6968,7038
6960,7043
6953,7048
6946,7054
6940,7061
6935,7069
6930,7076
6926,7085
6923,7093
6921,7102
6919,7111
6919,7121
6919,7308
6919,7317
6921,7326
6923,7335
6926,7343
6930,7352
6935,7359
6940,7367
6946,7374
6953,7380
6960,7385
6968,7390
6977,7394
6985,7397
6994,7399
7003,7401
7012,7401
7239,7401
7248,7401
7257,7399
7266,7397
7274,7394
7283,7390
7291,7385
7298,7380
7305,7374
7311,7367
7316,7359
7321,7352
7325,7343
7328,7335
7330,7326
7332,7317
7332,7308
7332,7121
7332,7111
7330,7102
7328,7093
7325,7085
7321,7076
7316,7069
7311,7061
7305,7054
7298,7048
7291,7043
7283,7038
7274,7034
7266,7031
7257,7029
7248,7027
7239,7027
7012,7027
7003,7027
" /> 
<polyline style="fill-rule:evenodd;"
points="15567,11277
15558,11279
15549,11281
15540,11284
15532,11288
15524,11293
15517,11298
15510,11304
15504,11311
15499,11319
15494,11326
15490,11335
15487,11343
15485,11352
15483,11361
15483,11371
15483,11558
15483,11567
15485,11576
15487,11585
15490,11593
15494,11602
15499,11609
15504,11617
15510,11624
15517,11630
15524,11635
15532,11640
15540,11644
15549,11647
15558,11649
15567,11651
15576,11651
15803,11651
15812,11651
15821,11649
15830,11647
15838,11644
15847,11640
15855,11635
15862,11630
15869,11624
15875,11617
15880,11609
15885,11602
15889,11593
15892,11585
15894,11576
15896,11567
15896,11558
15896,11371
15896,11361
15894,11352
15892,11343
15889,11335
15885,11326
15880,11319
15875,11311
15869,11304
15862,11298
15855,11293
15847,11288
15838,11284
15830,11281
15821,11279
15812,11277
15803,11277
15576,11277
15567,11277
" /> 
<polyline style="fill-rule:evenodd;"
points="14878,11277
14869,11279
14860,11281
14852,11284
14843,11288
14835,11293
14828,11298
14821,11304
14815,11311
14810,11319
14805,11326
14801,11335
14798,11343
14796,11352
14794,11361
14794,11371
14794,11558
14794,11567
14796,11576
14798,11585
14801,11593
14805,11602
14810,11609
14815,11617
14821,11624
14828,11630
14835,11635
14843,11640
14852,11644
14860,11647
14869,11649
14878,11651
14887,11651
15114,11651
15123,11651
15132,11649
15141,11647
15149,11644
15158,11640
15166,11635
15173,11630
15180,11624
15186,11617
15191,11609
15196,11602
15200,11593
15203,11585
15205,11576
15207,11567
15207,11558
15207,11371
15207,11361
15205,11352
15203,11343
15200,11335
15196,11326
15191,11319
15186,11311
15180,11304
15173,11298
15166,11293
15158,11288
15149,11284
15141,11281
15132,11279
15123,11277
15114,11277
14887,11277
14878,11277
" /> 
<polyline style="fill-rule:evenodd;"
points="18912,8277
18903,8279
18894,8281
18885,8284
18877,8288
18869,8293
18861,8298
18855,8304
18848,8311
18843,8319
18838,8326
18834,8335
18831,8343
18829,8352
18828,8361
18827,8371
18827,8558
18828,8567
18829,8576
18831,8585
18834,8593
18838,8602
18843,8609
18848,8617
18855,8624
18861,8630
18869,8635
18877,8640
18885,8644
18894,8647
18903,8649
18912,8651
18921,8651
19147,8651
19156,8651
19165,8649
19174,8647
19183,8644
19191,8640
19199,8635
19206,8630
19213,8624
19219,8617
19225,8609
19230,8602
19234,8593
19237,8585
19239,8576
19240,8567
19241,8558
19241,8371
19240,8361
19239,8352
19237,8343
19234,8335
19230,8326
19225,8319
19219,8311
19213,8304
19206,8298
19199,8293
19191,8288
19183,8284
19174,8281
19165,8279
19156,8277
19147,8277
18921,8277
18912,8277
" /> 
<polyline style="fill-rule:evenodd;"
points="18223,8277
18214,8279
18205,8281
18196,8284
18188,8288
18180,8293
18172,8298
18166,8304
18160,8311
18154,8319
18149,8326
18145,8335
18142,8343
18140,8352
18139,8361
18138,8371
18138,8558
18139,8567
18140,8576
18142,8585
18145,8593
18149,8602
18154,8609
18160,8617
18166,8624
18172,8630
18180,8635
18188,8640
18196,8644
18205,8647
18214,8649
18223,8651
18232,8651
18458,8651
18467,8651
18476,8649
18485,8647
18494,8644
18502,8640
18510,8635
18517,8630
18524,8624
18530,8617
18536,8609
18541,8602
18545,8593
18548,8585
18550,8576
18551,8567
18552,8558
18552,8371
18551,8361
18550,8352
18548,8343
18545,8335
18541,8326
18536,8319
18530,8311
18524,8304
18517,8298
18510,8293
18502,8288
18494,8284
18485,8281
18476,8279
18467,8277
18458,8277
18232,8277
18223,8277
" /> 
<polyline style="fill-rule:evenodd;"
points="18742,10602
18733,10604
18724,10606
18716,10609
18707,10613
18700,10618
18692,10623
18685,10629
18679,10636
18674,10643
18669,10651
18665,10660
18662,10668
18660,10677
18658,10686
18658,10695
18658,10922
18658,10931
18660,10940
18662,10949
18665,10957
18669,10966
18674,10974
18679,10981
18685,10988
18692,10994
18700,10999
18707,11004
18716,11008
18724,11011
18733,11013
18742,11015
18751,11015
18938,11015
18948,11015
18957,11013
18966,11011
18974,11008
18983,11004
18990,10999
18998,10994
19005,10988
19011,10981
19016,10974
19021,10966
19025,10957
19028,10949
19030,10940
19032,10931
19032,10922
19032,10695
19032,10686
19030,10677
19028,10668
19025,10660
19021,10651
19016,10643
19011,10636
19005,10629
18998,10623
18990,10618
18983,10613
18974,10609
18966,10606
18957,10604
18948,10602
18938,10602
18751,10602
18742,10602
" /> 
<polyline style="fill-rule:evenodd;"
points="18742,9913
18733,9915
18724,9917
18716,9920
18707,9924
18700,9929
18692,9934
18685,9940
18679,9947
18674,9954
18669,9962
18665,9971
18662,9979
18660,9988
18658,9997
18658,10006
18658,10233
18658,10242
18660,10251
18662,10260
18665,10269
18669,10277
18674,10285
18679,10292
18685,10299
18692,10305
18700,10310
18707,10315
18716,10319
18724,10322
18733,10324
18742,10326
18751,10326
18938,10326
18948,10326
18957,10324
18966,10322
18974,10319
18983,10315
18990,10310
18998,10305
19005,10299
19011,10292
19016,10285
19021,10277
19025,10269
19028,10260
19030,10251
19032,10242
19032,10233
19032,10006
19032,9997
19030,9988
19028,9979
19025,9971
19021,9962
19016,9954
19011,9947
19005,9940
18998,9934
18990,9929
18983,9924
18974,9920
18966,9917
18957,9915
18948,9913
18938,9913
18751,9913
18742,9913
" /> 
<polyline style="fill-rule:evenodd;"
points="17067,2777
17058,2779
17049,2781
17040,2784
17032,2788
17024,2793
17017,2798
17010,2804
17004,2811
16999,2819
16994,2826
16990,2835
16987,2843
16985,2852
16983,2861
16983,2871
16983,3058
16983,3067
16985,3076
16987,3085
16990,3093
16994,3102
16999,3109
17004,3117
17010,3124
17017,3130
17024,3135
17032,3140
17040,3144
17049,3147
17058,3149
17067,3151
17076,3151
17303,3151
17312,3151
17321,3149
17330,3147
17338,3144
17347,3140
17355,3135
17362,3130
17369,3124
17375,3117
17380,3109
17385,3102
17389,3093
17392,3085
17394,3076
17396,3067
17396,3058
17396,2871
17396,2861
17394,2852
17392,2843
17389,2835
17385,2826
17380,2819
17375,2811
17369,2804
17362,2798
17355,2793
17347,2788
17338,2784
17330,2781
17321,2779
17312,2777
17303,2777
17076,2777
17067,2777
" /> 
<polyline style="fill-rule:evenodd;"
points="16378,2777
16369,2779
16360,2781
16352,2784
16343,2788
16335,2793
16328,2798
16321,2804
16315,2811
16310,2819
16305,2826
16301,2835
16298,2843
16296,2852
16294,2861
16294,2871
16294,3058
16294,3067
16296,3076
16298,3085
16301,3093
16305,3102
16310,3109
16315,3117
16321,3124
16328,3130
16335,3135
16343,3140
16352,3144
16360,3147
16369,3149
16378,3151
16387,3151
16614,3151
16623,3151
16632,3149
16641,3147
16649,3144
16658,3140
16666,3135
16673,3130
16680,3124
16686,3117
16691,3109
16696,3102
16700,3093
16703,3085
16705,3076
16707,3067
16707,3058
16707,2871
16707,2861
16705,2852
16703,2843
16700,2835
16696,2826
16691,2819
16686,2811
16680,2804
16673,2798
16666,2793
16658,2788
16649,2784
16641,2781
16632,2779
16623,2777
16614,2777
16387,2777
16378,2777
" /> 
<polyline style="fill-rule:evenodd;"
points="20412,8777
20403,8779
20394,8781
20385,8784
20377,8788
20369,8793
20361,8798
20355,8804
20348,8811
20343,8819
20338,8826
20334,8835
20331,8843
20329,8852
20328,8861
20327,8871
20327,9058
20328,9067
20329,9076
20331,9085
20334,9093
20338,9102
20343,9109
20348,9117
20355,9124
20361,9130
20369,9135
20377,9140
20385,9144
20394,9147
20403,9149
20412,9151
20421,9151
20647,9151
20656,9151
20665,9149
20674,9147
20683,9144
20691,9140
20699,9135
20706,9130
20713,9124
20719,9117
20725,9109
20730,9102
20734,9093
20737,9085
20739,9076
20740,9067
20741,9058
20741,8871
20740,8861
20739,8852
20737,8843
20734,8835
20730,8826
20725,8819
20719,8811
20713,8804
20706,8798
20699,8793
20691,8788
20683,8784
20674,8781
20665,8779
20656,8777
20647,8777
20421,8777
20412,8777
" /> 
<polyline style="fill-rule:evenodd;"
points="19723,8777
19714,8779
19705,8781
19696,8784
19688,8788
19680,8793
19672,8798
19666,8804
19660,8811
19654,8819
19649,8826
19645,8835
19642,8843
19640,8852
19639,8861
19638,8871
19638,9058
19639,9067
19640,9076
19642,9085
19645,9093
19649,9102
19654,9109
19660,9117
19666,9124
19672,9130
19680,9135
19688,9140
19696,9144
19705,9147
19714,9149
19723,9151
19732,9151
19958,9151
19967,9151
19976,9149
19985,9147
19994,9144
20002,9140
20010,9135
20017,9130
20024,9124
20030,9117
20036,9109
20041,9102
20045,9093
20048,9085
20050,9076
20051,9067
20052,9058
20052,8871
20051,8861
20050,8852
20048,8843
20045,8835
20041,8826
20036,8819
20030,8811
20024,8804
20017,8798
20010,8793
20002,8788
19994,8784
19985,8781
19976,8779
19967,8777
19958,8777
19732,8777
19723,8777
" /> 
<polyline style="fill-rule:evenodd;"
points="21243,7792
21243,7458
20909,7458
20909,7792
21243,7792
" /> 
</g>
<g style="fill:#000000; fill-opacity:1.0; 
stroke:#000000; stroke-width:98.4252; stroke-opacity:1; 
stroke-linecap:round; stroke-linejoin:round;">
</g>
<g style="fill:#000000; fill-opacity:0.0; 
stroke:#000000; stroke-width:98.4252; stroke-opacity:1; 
stroke-linecap:round; stroke-linejoin:round;">
<path d="M11866 11907
L11940 11833
" />
<path d="M11940 11833
L13902 11833
" />
<path d="M9480 11907
L11866 11907
" />
</g>
<g style="fill:#000000; fill-opacity:0.0; 
stroke:#000000; stroke-width:275.591; stroke-opacity:1; 
stroke-linecap:round; stroke-linejoin:round;">
<path d="M9504 11883
L13526 11883
" />
</g>
<g style="fill:#000000; fill-opacity:0.0; 
stroke:#000000; stroke-width:98.4252; stroke-opacity:1; 
stroke-linecap:round; stroke-linejoin:round;">
<path d="M21500 10207
L21500 10964
" />
<path d="M22860 8847
L21500 10207
" />
</g>
<g style="fill:#000000; fill-opacity:0.0; 
stroke:#000000; stroke-width:275.591; stroke-opacity:1; 
stroke-linecap:round; stroke-linejoin:round;">
<path d="M23345 7281
L23345 8464
" />
<path d="M23345 6464
L23345 7281
" />
<path d="M22962 8847
L22860 8847
" />
<path d="M23345 8464
L22962 8847
" />
<path d="M25623 6464
L25146 6464
" />
<path d="M25760 6327
L25623 6464
" />
<path d="M25760 5884
L25760 6327
" />
<path d="M25146 6464
L24034 6464
" />
<path d="M24034 5653
L23856 5475
" />
<path d="M24034 6253
L24034 5653
" />
</g>
<g style="fill:#000000; fill-opacity:0.0; 
stroke:#000000; stroke-width:98.4252; stroke-opacity:1; 
stroke-linecap:round; stroke-linejoin:round;">
<path d="M24034 6253
L24034 6464
" />
</g>
<g style="fill:#000000; fill-opacity:0.0; 
stroke:#000000; stroke-width:275.591; stroke-opacity:1; 
stroke-linecap:round; stroke-linejoin:round;">
<path d="M22700 5475
L22689 5464
" />
<path d="M23856 5475
L22700 5475
" />
<path d="M22582 5571
L21689 6464
" />
</g>
<g style="fill:#000000; fill-opacity:0.0; 
stroke:#000000; stroke-width:98.4252; stroke-opacity:1; 
stroke-linecap:round; stroke-linejoin:round;">
<path d="M22582 5571
L22689 5464
" />
</g>
<g style="fill:#000000; fill-opacity:0.0; 
stroke:#000000; stroke-width:275.591; stroke-opacity:1; 
stroke-linecap:round; stroke-linejoin:round;">
<path d="M21189 4964
L21189 5656
" />
<path d="M21000 5845
L21000 6464
" />
<path d="M21189 5656
L21000 5845
" />
<path d="M19981 6173
L19689 6464
" />
<path d="M20463 6173
L19981 6173
" />
<path d="M21000 6464
L20754 6464
" />
<path d="M20754 6464
L20463 6173
" />
<path d="M17290 5464
L16845 5464
" />
<path d="M18571 5464
L17290 5464
" />
<path d="M19345 4690
L18571 5464
" />
<path d="M19345 4464
L19345 4690
" />
<path d="M19345 4464
L19591 4464
" />
<path d="M20091 4964
L20500 4964
" />
<path d="M19591 4464
L20091 4964
" />
<path d="M16845 4464
L16845 5464
" />
<path d="M24345 12464
L24822 11987
" />
<path d="M23345 12464
L24345 12464
" />
<path d="M24822 10252
L24034 9464
" />
<path d="M24822 11987
L24822 10252
" />
<path d="M24034 8464
L24034 9464
" />
<path d="M18088 7981
L18088 6464
" />
<path d="M18345 8238
L18088 7981
" />
<path d="M18345 8464
L18345 8238
" />
<path d="M19000 6464
L18088 6464
" />
<path d="M18088 6464
L16845 6464
" />
</g>
<g style="fill:#000000; fill-opacity:0.0; 
stroke:#000000; stroke-width:98.4252; stroke-opacity:1; 
stroke-linecap:round; stroke-linejoin:round;">
<path d="M11845 10120
L11689 9964
" />
<path d="M13845 10120
L11845 10120
" />
<path d="M11689 9964
L14020 9964
" />
<path d="M21392 7603
L21516 7479
" />
<path d="M21126 7603
L21392 7603
" />
<path d="M21516 7479
L20854 7479
" />
<path d="M22862 7261
L22848 7247
" />
<path d="M22848 7232
L22848 7247
" />
<path d="M22264 10205
L22264 10283
" />
</g>
<g style="fill:#000000; fill-opacity:0.0; 
stroke:#000000; stroke-width:275.591; stroke-opacity:1; 
stroke-linecap:round; stroke-linejoin:round;">
<path d="M8160 11779
L8160 11811
" />
<path d="M8160 11779
L8160 11786
" />
<path d="M9643 12261
L9667 12237
" />
<path d="M8160 11786
L8635 12261
" />
<path d="M8635 12261
L9643 12261
" />
<path d="M7845 11464
L7845 11019
" />
<path d="M7848 11016
L7845 11019
" />
<path d="M7848 11467
L8160 11779
" />
<path d="M7848 11016
L7848 11467
" />
</g>
<g style="fill:#000000; fill-opacity:0.0; 
stroke:#000000; stroke-width:98.4252; stroke-opacity:1; 
stroke-linecap:round; stroke-linejoin:round;">
<path d="M22264 10283
L22109 10438
" />
</g>
<g style="fill:#000000; fill-opacity:0.0; 
stroke:#000000; stroke-width:78.7402; stroke-opacity:1; 
stroke-linecap:round; stroke-linejoin:round;">
<path d="M21332 11553
L21092 11313
" />
<path d="M21955 10692
L21855 10692
" />
<path d="M22109 10438
L22109 10539
" />
<path d="M21855 11228
L21530 11553
" />
<path d="M22109 10539
L21955 10692
" />
<path d="M21530 11553
L21332 11553
" />
<path d="M21855 10692
L21855 11228
" />
</g>
<g style="fill:#000000; fill-opacity:0.0; 
stroke:#000000; stroke-width:275.591; stroke-opacity:1; 
stroke-linecap:round; stroke-linejoin:round;">
<path d="M22862 7966
L22862 7597
" />
</g>
<g style="fill:#000000; fill-opacity:0.0; 
stroke:#000000; stroke-width:98.4252; stroke-opacity:1; 
stroke-linecap:round; stroke-linejoin:round;">
<path d="M22862 7966
L22862 7261
" />
</g>
<g style="fill:#000000; fill-opacity:0.0; 
stroke:#000000; stroke-width:275.591; stroke-opacity:1; 
stroke-linecap:round; stroke-linejoin:round;">
<path d="M22862 8136
L22034 8964
" />
<path d="M22862 8084
L22862 8136
" />
</g>
<g style="fill:#000000; fill-opacity:0.0; 
stroke:#000000; stroke-width:98.4252; stroke-opacity:1; 
stroke-linecap:round; stroke-linejoin:round;">
<path d="M22862 8084
L22862 7966
" />
</g>
<g style="fill:#000000; fill-opacity:0.0; 
stroke:#000000; stroke-width:275.591; stroke-opacity:1; 
stroke-linecap:round; stroke-linejoin:round;">
<path d="M22034 9190
L22020 9204
" />
<path d="M22034 8964
L22034 9190
" />
<path d="M22020 9204
L22020 9246
" />
<path d="M22020 9246
L21626 9639
" />
<path d="M21626 9639
L21359 9639
" />
<path d="M21319 9679
L21092 9906
" />
</g>
<g style="fill:#000000; fill-opacity:0.0; 
stroke:#000000; stroke-width:98.4252; stroke-opacity:1; 
stroke-linecap:round; stroke-linejoin:round;">
<path d="M21319 9679
L21359 9639
" />
</g>
<g style="fill:#000000; fill-opacity:0.0; 
stroke:#000000; stroke-width:275.591; stroke-opacity:1; 
stroke-linecap:round; stroke-linejoin:round;">
<path d="M21092 9906
L21092 10466
" />
</g>
<g style="fill:#000000; fill-opacity:0.0; 
stroke:#000000; stroke-width:98.4252; stroke-opacity:1; 
stroke-linecap:round; stroke-linejoin:round;">
<path d="M21092 11313
L21092 10466
" />
<path d="M18845 9964
L18845 10120
" />
<path d="M19845 8964
L18845 9964
" />
</g>
<g style="fill:#000000; fill-opacity:0.0; 
stroke:#000000; stroke-width:275.591; stroke-opacity:1; 
stroke-linecap:round; stroke-linejoin:round;">
<path d="M18345 10120
L16845 11620
" />
<path d="M18845 10120
L18345 10120
" />
<path d="M22689 10464
L22189 10964
" />
<path d="M23345 10464
L22689 10464
" />
<path d="M22189 10964
L22189 11911
" />
<path d="M22189 11911
L21967 12133
" />
<path d="M21236 12133
L21010 11907
" />
<path d="M21967 12133
L21236 12133
" />
</g>
<g style="fill:#000000; fill-opacity:0.0; 
stroke:#000000; stroke-width:78.7402; stroke-opacity:1; 
stroke-linecap:round; stroke-linejoin:round;">
<path d="M19041 11005
L18845 10809
" />
<path d="M20705 11983
L20019 11983
" />
</g>
<g style="fill:#000000; fill-opacity:0.0; 
stroke:#000000; stroke-width:275.591; stroke-opacity:1; 
stroke-linecap:round; stroke-linejoin:round;">
<path d="M21010 11907
L20781 11907
" />
<path d="M20781 11907
L20780 11908
" />
</g>
<g style="fill:#000000; fill-opacity:0.0; 
stroke:#000000; stroke-width:78.7402; stroke-opacity:1; 
stroke-linecap:round; stroke-linejoin:round;">
<path d="M20780 11908
L20705 11983
" />
</g>
<g style="fill:#000000; fill-opacity:0.0; 
stroke:#000000; stroke-width:275.591; stroke-opacity:1; 
stroke-linecap:round; stroke-linejoin:round;">
<path d="M19041 11005
L19546 11509
" />
</g>
<g style="fill:#000000; fill-opacity:0.0; 
stroke:#000000; stroke-width:78.7402; stroke-opacity:1; 
stroke-linecap:round; stroke-linejoin:round;">
<path d="M20019 11983
L19546 11509
" />
</g>
<g style="fill:#000000; fill-opacity:0.0; 
stroke:#000000; stroke-width:275.591; stroke-opacity:1; 
stroke-linecap:round; stroke-linejoin:round;">
<path d="M13845 6464
L13845 5464
" />
<path d="M12189 7964
L12189 7464
" />
<path d="M13189 6464
L13845 6464
" />
<path d="M12189 7464
L13189 6464
" />
<path d="M14000 5464
L13845 5464
" />
<path d="M16500 2964
L14000 5464
" />
<path d="M18656 4431
L17189 2964
" />
<path d="M18656 4464
L18656 4431
" />
<path d="M17189 2964
L17189 1964
" />
</g>
<g style="fill:#000000; fill-opacity:0.0; 
stroke:#000000; stroke-width:98.4252; stroke-opacity:1; 
stroke-linecap:round; stroke-linejoin:round;">
<path d="M20534 8964
L21345 8964
" />
</g>
<g style="fill:#000000; fill-opacity:0.0; 
stroke:#000000; stroke-width:275.591; stroke-opacity:1; 
stroke-linecap:round; stroke-linejoin:round;">
<path d="M20345 13909
L20346 13910
" />
<path d="M20345 13464
L20345 13909
" />
<path d="M24445 13507
L24445 13914
" />
<path d="M23933 12995
L24445 13507
" />
</g>
<g style="fill:#000000; fill-opacity:0.0; 
stroke:#000000; stroke-width:98.4252; stroke-opacity:1; 
stroke-linecap:round; stroke-linejoin:round;">
<path d="M23680 6279
L23335 5934
" />
<path d="M23335 5934
L22775 5934
" />
<path d="M22775 5934
L22445 6264
" />
</g>
<g style="fill:#000000; fill-opacity:0.0; 
stroke:#000000; stroke-width:78.7402; stroke-opacity:1; 
stroke-linecap:round; stroke-linejoin:round;">
<path d="M23994 10114
L23994 10836
" />
<path d="M22687 12749
L22903 12965
" />
<path d="M22903 12965
L23903 12965
" />
<path d="M22687 11019
L22687 11213
" />
<path d="M23994 10836
L23846 10984
" />
<path d="M22722 10984
L22687 11019
" />
<path d="M23680 9816
L23696 9816
" />
</g>
<g style="fill:#000000; fill-opacity:0.0; 
stroke:#000000; stroke-width:275.591; stroke-opacity:1; 
stroke-linecap:round; stroke-linejoin:round;">
<path d="M24445 13914
L24257 14102
" />
<path d="M24257 14102
L20538 14102
" />
<path d="M20538 14102
L20345 13909
" />
</g>
<g style="fill:#000000; fill-opacity:0.0; 
stroke:#000000; stroke-width:78.7402; stroke-opacity:1; 
stroke-linecap:round; stroke-linejoin:round;">
<path d="M22687 12693
L22687 12749
" />
<path d="M23696 9816
L23994 10114
" />
<path d="M23903 12965
L23933 12995
" />
</g>
<g style="fill:#000000; fill-opacity:0.0; 
stroke:#000000; stroke-width:275.591; stroke-opacity:1; 
stroke-linecap:round; stroke-linejoin:round;">
<path d="M22687 11213
L22687 12693
" />
</g>
<g style="fill:#000000; fill-opacity:0.0; 
stroke:#000000; stroke-width:78.7402; stroke-opacity:1; 
stroke-linecap:round; stroke-linejoin:round;">
<path d="M23846 10984
L22722 10984
" />
<path d="M23680 6279
L23680 9816
" />
</g>
<g style="fill:#000000; fill-opacity:0.0; 
stroke:#000000; stroke-width:275.591; stroke-opacity:1; 
stroke-linecap:round; stroke-linejoin:round;">
<path d="M22445 7864
L21922 8387
" />
</g>
<g style="fill:#000000; fill-opacity:0.0; 
stroke:#000000; stroke-width:98.4252; stroke-opacity:1; 
stroke-linecap:round; stroke-linejoin:round;">
<path d="M21922 8387
L21345 8964
" />
</g>
<g style="fill:#000000; fill-opacity:0.0; 
stroke:#000000; stroke-width:78.7402; stroke-opacity:1; 
stroke-linecap:round; stroke-linejoin:round;">
<path d="M22445 6264
L22445 7864
" />
</g>
<g style="fill:#000000; fill-opacity:0.0; 
stroke:#000000; stroke-width:98.4252; stroke-opacity:1; 
stroke-linecap:round; stroke-linejoin:round;">
<path d="M15534 8738
L15534 8964
" />
<path d="M15534 8708
L15534 8738
" />
<path d="M14309 7483
L15534 8708
" />
</g>
<g style="fill:#000000; fill-opacity:0.0; 
stroke:#000000; stroke-width:275.591; stroke-opacity:1; 
stroke-linecap:round; stroke-linejoin:round;">
<path d="M13845 7464
L14160 7149
" />
<path d="M13956 7244
L14176 7464
" />
<path d="M13625 7244
L13956 7244
" />
<path d="M14290 7464
L14309 7483
" />
<path d="M14176 7464
L14290 7464
" />
<path d="M13845 7464
L13625 7244
" />
</g>
<g style="fill:#000000; fill-opacity:0.0; 
stroke:#000000; stroke-width:78.7402; stroke-opacity:1; 
stroke-linecap:round; stroke-linejoin:round;">
<path d="M14461 5988
L14362 6086
" />
</g>
<g style="fill:#000000; fill-opacity:0.0; 
stroke:#000000; stroke-width:98.4252; stroke-opacity:1; 
stroke-linecap:round; stroke-linejoin:round;">
<path d="M16835 3614
L14461 5988
" />
</g>
<g style="fill:#000000; fill-opacity:0.0; 
stroke:#000000; stroke-width:78.7402; stroke-opacity:1; 
stroke-linecap:round; stroke-linejoin:round;">
<path d="M14343 6106
L14343 6824
" />
</g>
<g style="fill:#000000; fill-opacity:0.0; 
stroke:#000000; stroke-width:98.4252; stroke-opacity:1; 
stroke-linecap:round; stroke-linejoin:round;">
<path d="M14461 5988
L14343 6106
" />
</g>
<g style="fill:#000000; fill-opacity:0.0; 
stroke:#000000; stroke-width:78.7402; stroke-opacity:1; 
stroke-linecap:round; stroke-linejoin:round;">
<path d="M14160 7007
L14160 7149
" />
<path d="M14343 6824
L14160 7007
" />
<path d="M16678 2395
L16835 2553
" />
</g>
<g style="fill:#000000; fill-opacity:0.0; 
stroke:#000000; stroke-width:98.4252; stroke-opacity:1; 
stroke-linecap:round; stroke-linejoin:round;">
<path d="M16835 2553
L16835 3614
" />
</g>
<g style="fill:#000000; fill-opacity:0.0; 
stroke:#000000; stroke-width:275.591; stroke-opacity:1; 
stroke-linecap:round; stroke-linejoin:round;">
<path d="M16254 1964
L16114 2104
" />
<path d="M16500 1964
L16254 1964
" />
<path d="M16386 2104
L16678 2395
" />
<path d="M16114 2104
L16386 2104
" />
</g>
<g style="fill:#000000; fill-opacity:0.0; 
stroke:#000000; stroke-width:98.4252; stroke-opacity:1; 
stroke-linecap:round; stroke-linejoin:round;">
<path d="M14345 10809
L14845 11309
" />
<path d="M13845 10809
L14345 10809
" />
<path d="M14845 11309
L15000 11464
" />
</g>
<g style="fill:#000000; fill-opacity:0.0; 
stroke:#000000; stroke-width:275.591; stroke-opacity:1; 
stroke-linecap:round; stroke-linejoin:round;">
<path d="M10170 6844
L10170 7375
" />
<path d="M9790 6464
L10170 6844
" />
<path d="M9345 6464
L9790 6464
" />
</g>
<g style="fill:#000000; fill-opacity:0.0; 
stroke:#000000; stroke-width:98.4252; stroke-opacity:1; 
stroke-linecap:round; stroke-linejoin:round;">
<path d="M10170 7494
L10170 7375
" />
</g>
<g style="fill:#000000; fill-opacity:0.0; 
stroke:#000000; stroke-width:275.591; stroke-opacity:1; 
stroke-linecap:round; stroke-linejoin:round;">
<path d="M13648 11005
L13845 10809
" />
<path d="M10256 11005
L13648 11005
" />
<path d="M9855 10604
L10256 11005
" />
<path d="M10170 7494
L10170 9029
" />
<path d="M9855 9344
L9855 10604
" />
<path d="M10170 9029
L9855 9344
" />
</g>
<g style="fill:#000000; fill-opacity:0.0; 
stroke:#000000; stroke-width:98.4252; stroke-opacity:1; 
stroke-linecap:round; stroke-linejoin:round;">
<path d="M19900 12464
L20345 12464
" />
<path d="M18530 11094
L19900 12464
" />
<path d="M19355 10474
L18660 10474
" />
<path d="M18530 10604
L18530 11094
" />
<path d="M18660 10474
L18530 10604
" />
</g>
<g style="fill:#000000; fill-opacity:0.0; 
stroke:#000000; stroke-width:275.591; stroke-opacity:1; 
stroke-linecap:round; stroke-linejoin:round;">
<path d="M17146 12309
L16845 12309
" />
<path d="M18022 11433
L17146 12309
" />
<path d="M18708 11433
L18022 11433
" />
<path d="M20345 12464
L19739 12464
" />
<path d="M19739 12464
L18708 11433
" />
<path d="M16534 12309
L15689 11464
" />
<path d="M16845 12309
L16534 12309
" />
<path d="M20030 11149
L19355 10474
" />
<path d="M20345 11464
L20030 11149
" />
</g>
<g style="fill:#000000; fill-opacity:0.0; 
stroke:#000000; stroke-width:98.4252; stroke-opacity:1; 
stroke-linecap:round; stroke-linejoin:round;">
<path d="M11500 7964
L10500 8964
" />
<path d="M10500 9464
L11000 9964
" />
<path d="M10500 8964
L10500 9464
" />
</g>
<g style="fill:#000000; fill-opacity:0.0; 
stroke:#000000; stroke-width:275.591; stroke-opacity:1; 
stroke-linecap:round; stroke-linejoin:round;">
<path d="M11500 7738
L11482 7719
" />
<path d="M11482 7719
L11482 5741
" />
<path d="M11500 7964
L11500 7738
" />
</g>
<g style="fill:#000000; fill-opacity:0.0; 
stroke:#000000; stroke-width:98.4252; stroke-opacity:1; 
stroke-linecap:round; stroke-linejoin:round;">
<path d="M11442 5701
L11482 5741
" />
<path d="M7486 4093
L7558 4021
" />
</g>
<g style="fill:#000000; fill-opacity:0.0; 
stroke:#000000; stroke-width:78.7402; stroke-opacity:1; 
stroke-linecap:round; stroke-linejoin:round;">
<path d="M5461 5450
L5967 4944
" />
<path d="M6506 4944
L6513 4951
" />
<path d="M5967 4944
L6506 4944
" />
<path d="M6628 4951
L7486 4093
" />
<path d="M6513 4951
L6628 4951
" />
</g>
<g style="fill:#000000; fill-opacity:0.0; 
stroke:#000000; stroke-width:275.591; stroke-opacity:1; 
stroke-linecap:round; stroke-linejoin:round;">
<path d="M5461 7025
L5461 6580
" />
<path d="M5900 7464
L5461 7025
" />
<path d="M6345 7464
L5900 7464
" />
<path d="M5461 6580
L5461 5496
" />
</g>
<g style="fill:#000000; fill-opacity:0.0; 
stroke:#000000; stroke-width:78.7402; stroke-opacity:1; 
stroke-linecap:round; stroke-linejoin:round;">
<path d="M5461 5496
L5461 5450
" />
</g>
<g style="fill:#000000; fill-opacity:0.0; 
stroke:#000000; stroke-width:275.591; stroke-opacity:1; 
stroke-linecap:round; stroke-linejoin:round;">
<path d="M7782 3797
L7486 4093
" />
<path d="M11442 5263
L9976 3797
" />
<path d="M9976 3797
L7782 3797
" />
<path d="M11442 5701
L11442 5263
" />
<path d="M11482 5303
L11442 5263
" />
<path d="M11482 5741
L11482 5303
" />
<path d="M5530 14149
L4270 12889
" />
<path d="M5845 14464
L5530 14149
" />
<path d="M4270 12889
L3586 12889
" />
<path d="M3586 12889
L2616 13859
" />
<path d="M2616 14000
L2725 14109
" />
<path d="M2616 13859
L2616 14000
" />
<path d="M5900 4464
L6345 4464
" />
<path d="M4270 6094
L5900 4464
" />
<path d="M4270 12889
L4270 6094
" />
<path d="M6660 4149
L6660 4063
" />
<path d="M6345 4464
L6660 4149
" />
<path d="M6660 4063
L7564 3159
" />
<path d="M12540 3159
L13845 4464
" />
<path d="M7564 3159
L12540 3159
" />
<path d="M16238 1121
L13845 3514
" />
<path d="M13845 3514
L13845 4464
" />
<path d="M17680 1121
L16238 1121
" />
<path d="M20259 3700
L17680 1121
" />
<path d="M20259 4203
L20259 3700
" />
<path d="M20345 9964
L20180 9799
" />
<path d="M20345 10464
L20345 9964
" />
</g>
<g style="fill:#000000; fill-opacity:0.0; 
stroke:#000000; stroke-width:98.4252; stroke-opacity:1; 
stroke-linecap:round; stroke-linejoin:round;">
<path d="M20180 9799
L20180 9703
" />
</g>
<g style="fill:#000000; fill-opacity:0.0; 
stroke:#000000; stroke-width:78.7402; stroke-opacity:1; 
stroke-linecap:round; stroke-linejoin:round;">
<path d="M20683 4627
L20835 4779
" />
<path d="M20683 4627
L20259 4203
" />
<path d="M20835 5149
L20628 5356
" />
<path d="M20835 4779
L20835 5149
" />
</g>
<g style="fill:#000000; fill-opacity:0.0; 
stroke:#000000; stroke-width:275.591; stroke-opacity:1; 
stroke-linecap:round; stroke-linejoin:round;">
<path d="M19599 5907
L18359 5907
" />
</g>
<g style="fill:#000000; fill-opacity:0.0; 
stroke:#000000; stroke-width:78.7402; stroke-opacity:1; 
stroke-linecap:round; stroke-linejoin:round;">
<path d="M18450 5907
L18359 5907
" />
</g>
<g style="fill:#000000; fill-opacity:0.0; 
stroke:#000000; stroke-width:98.4252; stroke-opacity:1; 
stroke-linecap:round; stroke-linejoin:round;">
<path d="M18450 5907
L19599 5907
" />
</g>
<g style="fill:#000000; fill-opacity:0.0; 
stroke:#000000; stroke-width:275.591; stroke-opacity:1; 
stroke-linecap:round; stroke-linejoin:round;">
<path d="M18359 5907
L17591 5907
" />
</g>
<g style="fill:#000000; fill-opacity:0.0; 
stroke:#000000; stroke-width:78.7402; stroke-opacity:1; 
stroke-linecap:round; stroke-linejoin:round;">
<path d="M20180 8693
L20180 9703
" />
<path d="M16336 6738
L16568 6970
" />
<path d="M17386 6970
L17804 7388
" />
<path d="M19423 8733
L19624 8532
" />
<path d="M16336 6107
L16336 6738
" />
<path d="M17972 8986
L19322 8986
" />
<path d="M16491 5952
L16336 6107
" />
<path d="M17107 5952
L16491 5952
" />
<path d="M17591 5907
L17152 5907
" />
<path d="M17152 5907
L17107 5952
" />
<path d="M17804 8818
L17972 8986
" />
<path d="M19624 8532
L20019 8532
" />
<path d="M17804 7388
L17804 8818
" />
<path d="M19322 8986
L19423 8885
" />
<path d="M16568 6970
L17386 6970
" />
<path d="M20019 8532
L20180 8693
" />
<path d="M19423 8885
L19423 8733
" />
</g>
<g style="fill:#000000; fill-opacity:0.0; 
stroke:#000000; stroke-width:275.591; stroke-opacity:1; 
stroke-linecap:round; stroke-linejoin:round;">
<path d="M19599 5907
L19981 5525
" />
<path d="M19981 5525
L20459 5525
" />
</g>
<g style="fill:#000000; fill-opacity:0.0; 
stroke:#000000; stroke-width:98.4252; stroke-opacity:1; 
stroke-linecap:round; stroke-linejoin:round;">
<path d="M20459 5525
L20628 5356
" />
<path d="M8581 9649
L9345 10413
" />
<path d="M8315 9649
L8581 9649
" />
<path d="M9345 7464
L9345 10559
" />
<path d="M9345 10413
L9345 10559
" />
<path d="M9345 10559
L9345 10964
" />
<path d="M15335 12897
L15325 12907
" />
<path d="M15335 11298
L15335 12897
" />
<path d="M9030 7779
L9345 7464
" />
</g>
<g style="fill:#000000; fill-opacity:0.0; 
stroke:#000000; stroke-width:275.591; stroke-opacity:1; 
stroke-linecap:round; stroke-linejoin:round;">
<path d="M9345 10964
L8845 11464
" />
<path d="M8758 9649
L8315 9649
" />
<path d="M9345 10236
L8758 9649
" />
<path d="M9345 10321
L9345 10964
" />
<path d="M9345 10321
L9345 10236
" />
<path d="M9345 7464
L9345 10321
" />
<path d="M9030 7779
L7948 7779
" />
<path d="M7402 8325
L7402 10637
" />
<path d="M7948 7779
L7402 8325
" />
<path d="M8632 12907
L15325 12907
" />
<path d="M17153 9481
L16329 10305
" />
<path d="M17153 8407
L17153 9481
" />
<path d="M16845 7464
L16845 8099
" />
<path d="M16845 8099
L17153 8407
" />
</g>
<g style="fill:#000000; fill-opacity:0.0; 
stroke:#000000; stroke-width:98.4252; stroke-opacity:1; 
stroke-linecap:round; stroke-linejoin:round;">
<path d="M16329 10305
L15335 11298
" />
</g>
<g style="fill:#000000; fill-opacity:0.0; 
stroke:#000000; stroke-width:275.591; stroke-opacity:1; 
stroke-linecap:round; stroke-linejoin:round;">
<path d="M7402 10949
L7347 11004
" />
<path d="M7402 10680
L7402 10949
" />
</g>
<g style="fill:#000000; fill-opacity:0.0; 
stroke:#000000; stroke-width:78.7402; stroke-opacity:1; 
stroke-linecap:round; stroke-linejoin:round;">
<path d="M7347 11004
L7347 11900
" />
<path d="M7402 10637
L7402 10680
" />
</g>
<g style="fill:#000000; fill-opacity:0.0; 
stroke:#000000; stroke-width:275.591; stroke-opacity:1; 
stroke-linecap:round; stroke-linejoin:round;">
<path d="M23345 13464
L22380 13464
" />
<path d="M22380 13464
L21882 12966
" />
<path d="M15384 12966
L15325 12907
" />
<path d="M19323 12966
L15384 12966
" />
<path d="M21882 12966
L21449 12966
" />
<path d="M21449 12966
L20937 12966
" />
</g>
<g style="fill:#000000; fill-opacity:0.0; 
stroke:#000000; stroke-width:78.7402; stroke-opacity:1; 
stroke-linecap:round; stroke-linejoin:round;">
<path d="M20937 12966
L19323 12966
" />
</g>
<g style="fill:#000000; fill-opacity:0.0; 
stroke:#000000; stroke-width:275.591; stroke-opacity:1; 
stroke-linecap:round; stroke-linejoin:round;">
<path d="M8632 12907
L8516 12907
" />
<path d="M8496 12907
L8496 12887
" />
</g>
<g style="fill:#000000; fill-opacity:0.0; 
stroke:#000000; stroke-width:78.7402; stroke-opacity:1; 
stroke-linecap:round; stroke-linejoin:round;">
<path d="M8496 12907
L8632 12907
" />
</g>
<g style="fill:#000000; fill-opacity:0.0; 
stroke:#000000; stroke-width:275.591; stroke-opacity:1; 
stroke-linecap:round; stroke-linejoin:round;">
<path d="M8496 12887
L7768 12159
" />
<path d="M7768 12159
L7627 12159
" />
</g>
<g style="fill:#000000; fill-opacity:0.0; 
stroke:#000000; stroke-width:78.7402; stroke-opacity:1; 
stroke-linecap:round; stroke-linejoin:round;">
<path d="M7347 11900
L7627 12159
" />
</g>
<g style="fill:#000000; fill-opacity:0.0; 
stroke:#000000; stroke-width:275.591; stroke-opacity:1; 
stroke-linecap:round; stroke-linejoin:round;">
<path d="M6845 12964
L5872 11991
" />
<path d="M5872 11491
L5845 11464
" />
<path d="M5872 11991
L5872 11491
" />
<path d="M5875 11434
L5845 11464
" />
<path d="M5875 11988
L5872 11991
" />
<path d="M5875 11008
L5875 11988
" />
<path d="M5875 11008
L5875 11434
" />
<path d="M5875 9789
L5875 11008
" />
</g>
<g style="fill:#000000; fill-opacity:0.0; 
stroke:#000000; stroke-width:98.4252; stroke-opacity:1; 
stroke-linecap:round; stroke-linejoin:round;">
<path d="M7475 6875
L7814 7214
" />
<path d="M7475 5989
L7475 6875
" />
<path d="M7814 7214
L6845 8184
" />
</g>
<g style="fill:#000000; fill-opacity:0.0; 
stroke:#000000; stroke-width:275.591; stroke-opacity:1; 
stroke-linecap:round; stroke-linejoin:round;">
<path d="M6845 11909
L6845 11464
" />
<path d="M6845 11909
L6866 11909
" />
<path d="M6896 11939
L6906 11939
" />
<path d="M6866 11909
L6896 11939
" />
<path d="M7534 12567
L7534 12964
" />
<path d="M6906 11939
L7534 12567
" />
<path d="M6845 11019
L6845 10615
" />
<path d="M6845 11464
L6845 11019
" />
<path d="M6845 11888
L6866 11909
" />
<path d="M6845 11019
L6845 11888
" />
<path d="M6845 10615
L6845 8261
" />
</g>
<g style="fill:#000000; fill-opacity:0.0; 
stroke:#000000; stroke-width:98.4252; stroke-opacity:1; 
stroke-linecap:round; stroke-linejoin:round;">
<path d="M6845 8184
L6845 8261
" />
</g>
<g style="fill:#000000; fill-opacity:0.0; 
stroke:#000000; stroke-width:275.591; stroke-opacity:1; 
stroke-linecap:round; stroke-linejoin:round;">
<path d="M9345 4464
L9345 5464
" />
<path d="M8689 5464
L8164 5989
" />
<path d="M9345 5464
L8689 5464
" />
<path d="M6345 5464
L6345 6464
" />
<path d="M6375 6464
L7125 7214
" />
<path d="M6345 6464
L6375 6464
" />
</g>
<g style="fill:#000000; fill-opacity:1.0; 
stroke:#000000; stroke-width:100; stroke-opacity:1; 
stroke-linecap:round; stroke-linejoin:round;">
<polyline style="fill-rule:evenodd;"
points="7795,11414
7787,11414
7787,11514
7795,11514
7795,11522
7895,11522
7895,11514
7903,11514
7903,11414
7895,11414
7895,11406
7795,11406
7795,11414
" /> 
<polyline style="fill-rule:evenodd;"
points="14587,6285
14587,6992
14593,7021
14570,7138
14524,7206
14504,7237
14496,7242
14506,7248
14523,7273
15725,8475
15750,8492
15793,8557
15893,8624
15969,8737
15996,8871
15996,9058
15969,9191
15893,9304
15780,9379
15647,9406
15421,9406
15287,9379
15221,9335
15193,9363
15101,9401
14957,9401
14895,9339
14895,9014
14795,9014
14795,9339
14732,9401
14589,9401
14497,9363
14426,9293
14388,9201
14388,9077
14451,9014
14795,9014
14895,9014
14903,9014
14903,8914
14895,8914
14895,8590
14795,8590
14795,8914
14451,8914
14388,8852
14388,8727
14426,8635
14497,8565
14589,8527
14732,8527
14795,8590
14895,8590
14944,8541
14261,7858
14252,7871
14065,7996
13901,8029
13789,8029
13625,7996
13438,7871
13313,7684
13269,7464
13269,7463
12645,8087
12625,8191
12549,8304
12436,8379
12303,8406
12076,8406
11943,8379
11845,8314
11747,8379
11614,8406
11482,8406
10800,9088
10800,9340
10982,9522
11114,9522
11247,9549
11313,9593
11341,9565
11433,9527
11577,9527
11639,9590
11639,9914
11632,9914
11632,10014
11639,10014
11639,10339
11577,10401
11433,10401
11341,10363
11313,10335
11247,10379
11114,10406
10887,10406
10754,10379
10641,10304
10565,10191
10539,10058
10539,9926
10469,9856
10469,10290
10885,10706
13403,10706
13403,10695
13430,10562
13474,10496
13446,10468
13408,10376
13408,10232
13470,10170
13795,10170
13795,10177
13895,10177
13895,10170
14219,10170
14282,10232
14282,10376
14244,10468
14216,10496
14225,10509
14316,10509
14345,10503
14374,10509
14374,10509
14462,10527
14561,10593
14577,10618
14982,11022
15114,11022
15176,11035
16134,10077
12146,10077
12146,10201
12108,10293
12038,10363
11946,10401
11802,10401
11739,10339
11739,10014
12084,10014
12146,10077
16134,10077
16347,9863
14282,9863
14282,10007
14219,10070
13895,10070
13895,9725
13795,9725
13795,10070
13470,10070
13408,10007
13408,9863
13446,9771
13490,9727
12146,9727
12146,9852
12084,9914
11739,9914
11739,9590
11802,9527
11946,9527
12038,9565
12108,9635
12146,9727
13490,9727
13516,9701
13608,9663
13732,9663
13795,9725
13895,9725
13957,9663
14082,9663
14174,9701
14244,9771
14282,9863
16347,9863
16546,9665
16546,7944
16438,7871
16313,7684
16269,7464
16313,7244
16405,7105
16400,7098
16211,6909
16186,6892
16120,6793
16103,6706
16103,6706
16097,6677
16103,6647
16103,6167
16097,6137
16103,6108
16103,6108
16120,6021
16186,5922
16211,5905
16360,5756
16313,5684
16269,5464
16313,5244
16438,5057
16485,5025
16432,5014
16350,4959
16295,4877
16275,4779
16275,4597
14587,6285
" /> 
<polyline style="fill-rule:evenodd;"
points="23205,9027
23232,9027
23295,9090
23295,9414
22951,9414
22888,9352
22888,9344
22144,10088
22144,10522
22208,10522
22457,10273
22474,10248
22573,10182
22660,10165
22660,10165
22689,10159
22719,10165
22775,10165
22775,10149
22795,10052
22850,9969
22932,9914
23030,9894
23072,9894
22997,9863
22926,9793
22888,9701
22888,9577
22951,9514
23295,9514
23295,9522
23380,9522
23380,8906
23326,8906
23205,9027
" /> 
<polyline style="fill-rule:evenodd;"
points="21984,8914
21976,8914
21976,9014
21984,9014
21984,9022
22084,9022
22084,9014
22092,9014
22092,8914
22084,8914
22084,8906
21984,8906
21984,8914
" /> 
<polyline style="fill-rule:evenodd;"
points="22125,6691
22049,6804
21936,6879
21803,6906
21576,6906
21443,6879
21345,6814
21247,6879
21114,6906
20887,6906
20754,6879
20641,6804
20614,6763
20076,6763
20049,6804
19936,6879
19803,6906
19576,6906
19443,6879
19345,6814
19247,6879
19114,6906
18982,6906
18644,7243
18644,8084
18658,8093
18686,8065
18778,8027
18921,8027
18984,8090
18984,8414
18976,8414
18976,8480
19092,8480
19092,8414
19084,8414
19084,8090
19146,8027
19290,8027
19382,8065
19453,8135
19491,8227
19491,8352
19428,8414
19453,8414
19523,8367
19611,8350
19611,8350
19640,8344
19670,8350
20020,8350
20050,8344
20079,8350
20079,8350
20167,8367
20266,8433
20282,8458
20358,8535
20421,8522
20647,8522
20780,8549
20893,8624
20921,8665
20958,8665
20985,8624
21098,8549
21232,8522
21364,8522
22146,7740
22146,6584
22125,6691
" /> 
</g>
<g style="fill:#FFFFFF; fill-opacity:1.0; 
stroke:#FFFFFF; stroke-width:100; stroke-opacity:1; 
stroke-linecap:round; stroke-linejoin:round;">
</g>
<g style="fill:#FFFFFF; fill-opacity:1.0; 
stroke:#FFFFFF; stroke-width:0; stroke-opacity:1; 
stroke-linecap:round; stroke-linejoin:round;">
<circle cx="13910.5" cy="11819.5" r="98.4252" /> 
</g>
<g style="fill:#FFFFFF; fill-opacity:1.0; 
stroke:#FFFFFF; stroke-width:39.3701; stroke-opacity:1; 
stroke-linecap:round; stroke-linejoin:round;">
</g>
<g style="fill:#FFFFFF; fill-opacity:1.0; 
stroke:#FFFFFF; stroke-width:0; stroke-opacity:1; 
stroke-linecap:round; stroke-linejoin:round;">
<circle cx="22856.5" cy="7213.53" r="98.4252" /> 
</g>
<g style="fill:#FFFFFF; fill-opacity:1.0; 
stroke:#FFFFFF; stroke-width:39.3701; stroke-opacity:1; 
stroke-linecap:round; stroke-linejoin:round;">
</g>
<g style="fill:#FFFFFF; fill-opacity:1.0; 
stroke:#FFFFFF; stroke-width:0; stroke-opacity:1; 
stroke-linecap:round; stroke-linejoin:round;">
<circle cx="15222.5" cy="9999.53" r="98.4252" /> 
</g>
<g style="fill:#FFFFFF; fill-opacity:1.0; 
stroke:#FFFFFF; stroke-width:39.3701; stroke-opacity:1; 
stroke-linecap:round; stroke-linejoin:round;">
</g>
<g style="fill:#FFFFFF; fill-opacity:1.0; 
stroke:#FFFFFF; stroke-width:0; stroke-opacity:1; 
stroke-linecap:round; stroke-linejoin:round;">
<circle cx="20345.5" cy="10464.5" r="157.48" /> 
</g>
<g style="fill:#FFFFFF; fill-opacity:1.0; 
stroke:#FFFFFF; stroke-width:39.3701; stroke-opacity:1; 
stroke-linecap:round; stroke-linejoin:round;">
</g>
<g style="fill:#FFFFFF; fill-opacity:1.0; 
stroke:#FFFFFF; stroke-width:0; stroke-opacity:1; 
stroke-linecap:round; stroke-linejoin:round;">
<circle cx="23345.5" cy="13464.5" r="157.48" /> 
</g>
<g style="fill:#FFFFFF; fill-opacity:1.0; 
stroke:#FFFFFF; stroke-width:39.3701; stroke-opacity:1; 
stroke-linecap:round; stroke-linejoin:round;">
</g>
<g style="fill:#FFFFFF; fill-opacity:1.0; 
stroke:#FFFFFF; stroke-width:0; stroke-opacity:1; 
stroke-linecap:round; stroke-linejoin:round;">
<circle cx="20345.5" cy="11464.5" r="157.48" /> 
</g>
<g style="fill:#FFFFFF; fill-opacity:1.0; 
stroke:#FFFFFF; stroke-width:39.3701; stroke-opacity:1; 
stroke-linecap:round; stroke-linejoin:round;">
</g>
<g style="fill:#FFFFFF; fill-opacity:1.0; 
stroke:#FFFFFF; stroke-width:0; stroke-opacity:1; 
stroke-linecap:round; stroke-linejoin:round;">
<circle cx="23345.5" cy="12464.5" r="157.48" /> 
</g>
<g style="fill:#FFFFFF; fill-opacity:1.0; 
stroke:#FFFFFF; stroke-width:39.3701; stroke-opacity:1; 
stroke-linecap:round; stroke-linejoin:round;">
</g>
<g style="fill:#FFFFFF; fill-opacity:1.0; 
stroke:#FFFFFF; stroke-width:0; stroke-opacity:1; 
stroke-linecap:round; stroke-linejoin:round;">
<circle cx="20345.5" cy="12464.5" r="157.48" /> 
</g>
<g style="fill:#FFFFFF; fill-opacity:1.0; 
stroke:#FFFFFF; stroke-width:39.3701; stroke-opacity:1; 
stroke-linecap:round; stroke-linejoin:round;">
</g>
<g style="fill:#FFFFFF; fill-opacity:1.0; 
stroke:#FFFFFF; stroke-width:0; stroke-opacity:1; 
stroke-linecap:round; stroke-linejoin:round;">
<circle cx="23345.5" cy="11464.5" r="157.48" /> 
</g>
<g style="fill:#FFFFFF; fill-opacity:1.0; 
stroke:#FFFFFF; stroke-width:39.3701; stroke-opacity:1; 
stroke-linecap:round; stroke-linejoin:round;">
</g>
<g style="fill:#FFFFFF; fill-opacity:1.0; 
stroke:#FFFFFF; stroke-width:0; stroke-opacity:1; 
stroke-linecap:round; stroke-linejoin:round;">
<circle cx="20345.5" cy="13464.5" r="157.48" /> 
</g>
<g style="fill:#FFFFFF; fill-opacity:1.0; 
stroke:#FFFFFF; stroke-width:39.3701; stroke-opacity:1; 
stroke-linecap:round; stroke-linejoin:round;">
</g>
<g style="fill:#FFFFFF; fill-opacity:1.0; 
stroke:#FFFFFF; stroke-width:0; stroke-opacity:1; 
stroke-linecap:round; stroke-linejoin:round;">
<circle cx="23345.5" cy="10464.5" r="157.48" /> 
</g>
<g style="fill:#FFFFFF; fill-opacity:1.0; 
stroke:#FFFFFF; stroke-width:39.3701; stroke-opacity:1; 
stroke-linecap:round; stroke-linejoin:round;">
</g>
<g style="fill:#FFFFFF; fill-opacity:1.0; 
stroke:#FFFFFF; stroke-width:0; stroke-opacity:1; 
stroke-linecap:round; stroke-linejoin:round;">
<circle cx="13845.5" cy="4464.53" r="157.48" /> 
</g>
<g style="fill:#FFFFFF; fill-opacity:1.0; 
stroke:#FFFFFF; stroke-width:39.3701; stroke-opacity:1; 
stroke-linecap:round; stroke-linejoin:round;">
</g>
<g style="fill:#FFFFFF; fill-opacity:1.0; 
stroke:#FFFFFF; stroke-width:0; stroke-opacity:1; 
stroke-linecap:round; stroke-linejoin:round;">
<circle cx="16845.5" cy="7464.53" r="157.48" /> 
</g>
<g style="fill:#FFFFFF; fill-opacity:1.0; 
stroke:#FFFFFF; stroke-width:39.3701; stroke-opacity:1; 
stroke-linecap:round; stroke-linejoin:round;">
</g>
<g style="fill:#FFFFFF; fill-opacity:1.0; 
stroke:#FFFFFF; stroke-width:0; stroke-opacity:1; 
stroke-linecap:round; stroke-linejoin:round;">
<circle cx="13845.5" cy="5464.53" r="157.48" /> 
</g>
<g style="fill:#FFFFFF; fill-opacity:1.0; 
stroke:#FFFFFF; stroke-width:39.3701; stroke-opacity:1; 
stroke-linecap:round; stroke-linejoin:round;">
</g>
<g style="fill:#FFFFFF; fill-opacity:1.0; 
stroke:#FFFFFF; stroke-width:0; stroke-opacity:1; 
stroke-linecap:round; stroke-linejoin:round;">
<circle cx="16845.5" cy="6464.53" r="157.48" /> 
</g>
<g style="fill:#FFFFFF; fill-opacity:1.0; 
stroke:#FFFFFF; stroke-width:39.3701; stroke-opacity:1; 
stroke-linecap:round; stroke-linejoin:round;">
</g>
<g style="fill:#FFFFFF; fill-opacity:1.0; 
stroke:#FFFFFF; stroke-width:0; stroke-opacity:1; 
stroke-linecap:round; stroke-linejoin:round;">
<circle cx="13845.5" cy="6464.53" r="157.48" /> 
</g>
<g style="fill:#FFFFFF; fill-opacity:1.0; 
stroke:#FFFFFF; stroke-width:39.3701; stroke-opacity:1; 
stroke-linecap:round; stroke-linejoin:round;">
</g>
<g style="fill:#FFFFFF; fill-opacity:1.0; 
stroke:#FFFFFF; stroke-width:0; stroke-opacity:1; 
stroke-linecap:round; stroke-linejoin:round;">
<circle cx="16845.5" cy="5464.53" r="157.48" /> 
</g>
<g style="fill:#FFFFFF; fill-opacity:1.0; 
stroke:#FFFFFF; stroke-width:39.3701; stroke-opacity:1; 
stroke-linecap:round; stroke-linejoin:round;">
</g>
<g style="fill:#FFFFFF; fill-opacity:1.0; 
stroke:#FFFFFF; stroke-width:0; stroke-opacity:1; 
stroke-linecap:round; stroke-linejoin:round;">
<circle cx="13845.5" cy="7464.53" r="157.48" /> 
</g>
<g style="fill:#FFFFFF; fill-opacity:1.0; 
stroke:#FFFFFF; stroke-width:39.3701; stroke-opacity:1; 
stroke-linecap:round; stroke-linejoin:round;">
</g>
<g style="fill:#FFFFFF; fill-opacity:1.0; 
stroke:#FFFFFF; stroke-width:0; stroke-opacity:1; 
stroke-linecap:round; stroke-linejoin:round;">
<circle cx="16845.5" cy="4464.53" r="157.48" /> 
</g>
<g style="fill:#FFFFFF; fill-opacity:1.0; 
stroke:#FFFFFF; stroke-width:39.3701; stroke-opacity:1; 
stroke-linecap:round; stroke-linejoin:round;">
</g>
<g style="fill:#FFFFFF; fill-opacity:1.0; 
stroke:#FFFFFF; stroke-width:0; stroke-opacity:1; 
stroke-linecap:round; stroke-linejoin:round;">
<circle cx="9345.47" cy="4464.53" r="157.48" /> 
</g>
<g style="fill:#FFFFFF; fill-opacity:1.0; 
stroke:#FFFFFF; stroke-width:39.3701; stroke-opacity:1; 
stroke-linecap:round; stroke-linejoin:round;">
</g>
<g style="fill:#FFFFFF; fill-opacity:1.0; 
stroke:#FFFFFF; stroke-width:0; stroke-opacity:1; 
stroke-linecap:round; stroke-linejoin:round;">
<circle cx="6345.47" cy="7464.53" r="157.48" /> 
</g>
<g style="fill:#FFFFFF; fill-opacity:1.0; 
stroke:#FFFFFF; stroke-width:39.3701; stroke-opacity:1; 
stroke-linecap:round; stroke-linejoin:round;">
</g>
<g style="fill:#FFFFFF; fill-opacity:1.0; 
stroke:#FFFFFF; stroke-width:0; stroke-opacity:1; 
stroke-linecap:round; stroke-linejoin:round;">
<circle cx="9345.47" cy="5464.53" r="157.48" /> 
</g>
<g style="fill:#FFFFFF; fill-opacity:1.0; 
stroke:#FFFFFF; stroke-width:39.3701; stroke-opacity:1; 
stroke-linecap:round; stroke-linejoin:round;">
</g>
<g style="fill:#FFFFFF; fill-opacity:1.0; 
stroke:#FFFFFF; stroke-width:0; stroke-opacity:1; 
stroke-linecap:round; stroke-linejoin:round;">
<circle cx="6345.47" cy="6464.53" r="157.48" /> 
</g>
<g style="fill:#FFFFFF; fill-opacity:1.0; 
stroke:#FFFFFF; stroke-width:39.3701; stroke-opacity:1; 
stroke-linecap:round; stroke-linejoin:round;">
</g>
<g style="fill:#FFFFFF; fill-opacity:1.0; 
stroke:#FFFFFF; stroke-width:0; stroke-opacity:1; 
stroke-linecap:round; stroke-linejoin:round;">
<circle cx="9345.47" cy="6464.53" r="157.48" /> 
</g>
<g style="fill:#FFFFFF; fill-opacity:1.0; 
stroke:#FFFFFF; stroke-width:39.3701; stroke-opacity:1; 
stroke-linecap:round; stroke-linejoin:round;">
</g>
<g style="fill:#FFFFFF; fill-opacity:1.0; 
stroke:#FFFFFF; stroke-width:0; stroke-opacity:1; 
stroke-linecap:round; stroke-linejoin:round;">
<circle cx="6345.47" cy="5464.53" r="157.48" /> 
</g>
<g style="fill:#FFFFFF; fill-opacity:1.0; 
stroke:#FFFFFF; stroke-width:39.3701; stroke-opacity:1; 
stroke-linecap:round; stroke-linejoin:round;">
</g>
<g style="fill:#FFFFFF; fill-opacity:1.0; 
stroke:#FFFFFF; stroke-width:0; stroke-opacity:1; 
stroke-linecap:round; stroke-linejoin:round;">
<circle cx="9345.47" cy="7464.53" r="157.48" /> 
</g>
<g style="fill:#FFFFFF; fill-opacity:1.0; 
stroke:#FFFFFF; stroke-width:39.3701; stroke-opacity:1; 
stroke-linecap:round; stroke-linejoin:round;">
</g>
<g style="fill:#FFFFFF; fill-opacity:1.0; 
stroke:#FFFFFF; stroke-width:0; stroke-opacity:1; 
stroke-linecap:round; stroke-linejoin:round;">
<circle cx="6345.47" cy="4464.53" r="157.48" /> 
</g>
<g style="fill:#FFFFFF; fill-opacity:1.0; 
stroke:#FFFFFF; stroke-width:39.3701; stroke-opacity:1; 
stroke-linecap:round; stroke-linejoin:round;">
</g>
<g style="fill:#FFFFFF; fill-opacity:1.0; 
stroke:#FFFFFF; stroke-width:0; stroke-opacity:1; 
stroke-linecap:round; stroke-linejoin:round;">
<circle cx="5845.47" cy="11464.5" r="157.48" /> 
</g>
<g style="fill:#FFFFFF; fill-opacity:1.0; 
stroke:#FFFFFF; stroke-width:39.3701; stroke-opacity:1; 
stroke-linecap:round; stroke-linejoin:round;">
</g>
<g style="fill:#FFFFFF; fill-opacity:1.0; 
stroke:#FFFFFF; stroke-width:0; stroke-opacity:1; 
stroke-linecap:round; stroke-linejoin:round;">
<circle cx="8845.47" cy="14464.5" r="157.48" /> 
</g>
<g style="fill:#FFFFFF; fill-opacity:1.0; 
stroke:#FFFFFF; stroke-width:39.3701; stroke-opacity:1; 
stroke-linecap:round; stroke-linejoin:round;">
</g>
<g style="fill:#FFFFFF; fill-opacity:1.0; 
stroke:#FFFFFF; stroke-width:0; stroke-opacity:1; 
stroke-linecap:round; stroke-linejoin:round;">
<circle cx="6845.47" cy="11464.5" r="157.48" /> 
</g>
<g style="fill:#FFFFFF; fill-opacity:1.0; 
stroke:#FFFFFF; stroke-width:39.3701; stroke-opacity:1; 
stroke-linecap:round; stroke-linejoin:round;">
</g>
<g style="fill:#FFFFFF; fill-opacity:1.0; 
stroke:#FFFFFF; stroke-width:0; stroke-opacity:1; 
stroke-linecap:round; stroke-linejoin:round;">
<circle cx="7845.47" cy="14464.5" r="157.48" /> 
</g>
<g style="fill:#FFFFFF; fill-opacity:1.0; 
stroke:#FFFFFF; stroke-width:39.3701; stroke-opacity:1; 
stroke-linecap:round; stroke-linejoin:round;">
</g>
<g style="fill:#FFFFFF; fill-opacity:1.0; 
stroke:#FFFFFF; stroke-width:0; stroke-opacity:1; 
stroke-linecap:round; stroke-linejoin:round;">
<circle cx="7845.47" cy="11464.5" r="157.48" /> 
</g>
<g style="fill:#FFFFFF; fill-opacity:1.0; 
stroke:#FFFFFF; stroke-width:39.3701; stroke-opacity:1; 
stroke-linecap:round; stroke-linejoin:round;">
</g>
<g style="fill:#FFFFFF; fill-opacity:1.0; 
stroke:#FFFFFF; stroke-width:0; stroke-opacity:1; 
stroke-linecap:round; stroke-linejoin:round;">
<circle cx="6845.47" cy="14464.5" r="157.48" /> 
</g>
<g style="fill:#FFFFFF; fill-opacity:1.0; 
stroke:#FFFFFF; stroke-width:39.3701; stroke-opacity:1; 
stroke-linecap:round; stroke-linejoin:round;">
</g>
<g style="fill:#FFFFFF; fill-opacity:1.0; 
stroke:#FFFFFF; stroke-width:0; stroke-opacity:1; 
stroke-linecap:round; stroke-linejoin:round;">
<circle cx="8845.47" cy="11464.5" r="157.48" /> 
</g>
<g style="fill:#FFFFFF; fill-opacity:1.0; 
stroke:#FFFFFF; stroke-width:39.3701; stroke-opacity:1; 
stroke-linecap:round; stroke-linejoin:round;">
</g>
<g style="fill:#FFFFFF; fill-opacity:1.0; 
stroke:#FFFFFF; stroke-width:0; stroke-opacity:1; 
stroke-linecap:round; stroke-linejoin:round;">
<circle cx="5845.47" cy="14464.5" r="157.48" /> 
</g>
<g style="fill:#FFFFFF; fill-opacity:1.0; 
stroke:#FFFFFF; stroke-width:39.3701; stroke-opacity:1; 
stroke-linecap:round; stroke-linejoin:round;">
</g>
<g style="fill:#FFFFFF; fill-opacity:1.0; 
stroke:#FFFFFF; stroke-width:0; stroke-opacity:1; 
stroke-linecap:round; stroke-linejoin:round;">
<circle cx="2725.47" cy="14109.5" r="98.4252" /> 
</g>
<g style="fill:#FFFFFF; fill-opacity:1.0; 
stroke:#FFFFFF; stroke-width:39.3701; stroke-opacity:1; 
stroke-linecap:round; stroke-linejoin:round;">
</g>
<g style="fill:#FFFFFF; fill-opacity:1.0; 
stroke:#FFFFFF; stroke-width:0; stroke-opacity:1; 
stroke-linecap:round; stroke-linejoin:round;">
<circle cx="5875.47" cy="9789.53" r="98.4252" /> 
</g>
<g style="fill:#FFFFFF; fill-opacity:1.0; 
stroke:#FFFFFF; stroke-width:39.3701; stroke-opacity:1; 
stroke-linecap:round; stroke-linejoin:round;">
</g>
<g style="fill:#FFFFFF; fill-opacity:1.0; 
stroke:#FFFFFF; stroke-width:0; stroke-opacity:1; 
stroke-linecap:round; stroke-linejoin:round;">
<circle cx="8315.47" cy="9649.53" r="98.4252" /> 
</g>
<g style="fill:#FFFFFF; fill-opacity:1.0; 
stroke:#FFFFFF; stroke-width:39.3701; stroke-opacity:1; 
stroke-linecap:round; stroke-linejoin:round;">
</g>
<g style="fill:#FFFFFF; fill-opacity:1.0; 
stroke:#FFFFFF; stroke-width:0; stroke-opacity:1; 
stroke-linecap:round; stroke-linejoin:round;">
<circle cx="25760.5" cy="5884.53" r="98.4252" /> 
</g>
<g style="fill:#FFFFFF; fill-opacity:1.0; 
stroke:#FFFFFF; stroke-width:39.3701; stroke-opacity:1; 
stroke-linecap:round; stroke-linejoin:round;">
</g>
<g style="fill:#FFFFFF; fill-opacity:1.0; 
stroke:#FFFFFF; stroke-width:0; stroke-opacity:1; 
stroke-linecap:round; stroke-linejoin:round;">
<circle cx="21076.5" cy="7625.53" r="98.4252" /> 
</g>
<g style="fill:#FFFFFF; fill-opacity:1.0; 
stroke:#FFFFFF; stroke-width:39.3701; stroke-opacity:1; 
stroke-linecap:round; stroke-linejoin:round;">
</g>
<g style="fill:#000000; fill-opacity:1.0; 
stroke:#000000; stroke-width:39.3701; stroke-opacity:1; 
stroke-linecap:round; stroke-linejoin:round;">
</g>
<g style="fill:#000000; fill-opacity:1.0; 
stroke:#000000; stroke-width:59.0551; stroke-opacity:1; 
stroke-linecap:round; stroke-linejoin:round;">
</g>
<g style="fill:#000000; fill-opacity:0.0; 
stroke:#000000; stroke-width:59.0551; stroke-opacity:1; 
stroke-linecap:round; stroke-linejoin:round;">
<path d="M20 16029
L28020 16029
" />
<path d="M20 29
L20 16029
" />
<path d="M28020 29
L20 29
" />
</g> 
</svg>
