<?xml version="1.0" standalone="no"?>
 <!DOCTYPE svg PUBLIC "-//W3C//DTD SVG 1.1//EN" 
 "http://www.w3.org/Graphics/SVG/1.1/DTD/svg11.dtd"> 
<svg xmlns="http://www.w3.org/2000/svg" version="1.1" 
    width="15.494cm" height="7.62cm" viewBox="0 0 61000 30000 ">
<title>SVG Picture created as Stop_Band_Filter-F.Cu.svg date 2019/01/24 12:25:38 </title>
  <desc>Picture generated by PCBNEW </desc>
<g style="fill:#000000; fill-opacity:1;stroke:#000000; stroke-opacity:1;
stroke-linecap:round; stroke-linejoin:round; "
 transform="translate(0 0) scale(1 1)">
</g>
<g style="fill:#000000; fill-opacity:0.0; 
stroke:#000000; stroke-width:-0.000393701; stroke-opacity:1; 
stroke-linecap:round; stroke-linejoin:round;">
</g>
<g style="fill:#000000; fill-opacity:0.0; 
stroke:#000000; stroke-width:118.11; stroke-opacity:1; 
stroke-linecap:round; stroke-linejoin:round;">
<path d="M18021 5239
L17937 5267
L17796 5267
L17740 5239
L17712 5210
L17683 5154
L17683 5098
L17712 5042
L17740 5014
L17796 4985
L17908 4957
L17965 4929
L17993 4901
L18021 4845
L18021 4789
L17993 4732
L17965 4704
L17908 4676
L17768 4676
L17683 4704
" />
<path d="M17515 4676
L17177 4676
" />
<path d="M17346 5267
L17346 4676
" />
<path d="M16868 4676
L16755 4676
L16699 4704
L16643 4760
L16615 4873
L16615 5070
L16643 5182
L16699 5239
L16755 5267
L16868 5267
L16924 5239
L16980 5182
L17008 5070
L17008 4873
L16980 4760
L16924 4704
L16868 4676
" />
<path d="M16362 5267
L16362 4676
L16137 4676
L16080 4704
L16052 4732
L16024 4789
L16024 4873
L16052 4929
L16080 4957
L16137 4985
L16362 4985
" />
<path d="M15124 4957
L15040 4985
L15012 5014
L14984 5070
L14984 5154
L15012 5210
L15040 5239
L15096 5267
L15321 5267
L15321 4676
L15124 4676
L15068 4704
L15040 4732
L15012 4789
L15012 4845
L15040 4901
L15068 4929
L15124 4957
L15321 4957
" />
<path d="M14759 5098
L14478 5098
" />
<path d="M14815 5267
L14618 4676
L14421 5267
" />
<path d="M14224 5267
L14224 4676
L13887 5267
L13887 4676
" />
<path d="M13606 5267
L13606 4676
L13465 4676
L13381 4704
L13325 4760
L13296 4817
L13268 4929
L13268 5014
L13296 5126
L13325 5182
L13381 5239
L13465 5267
L13606 5267
" />
<path d="M12368 4957
L12565 4957
" />
<path d="M12565 5267
L12565 4676
L12284 4676
" />
<path d="M12059 5267
L12059 4676
" />
<path d="M11497 5267
L11778 5267
L11778 4676
" />
<path d="M11384 4676
L11047 4676
" />
<path d="M11215 5267
L11215 4676
" />
<path d="M10850 4957
L10653 4957
" />
<path d="M10569 5267
L10850 5267
L10850 4676
L10569 4676
" />
<path d="M9978 5267
L10175 4985
" />
<path d="M10316 5267
L10316 4676
L10091 4676
L10034 4704
L10006 4732
L9978 4789
L9978 4873
L10006 4929
L10034 4957
L10091 4985
L10316 4985
" />
</g>
<g style="fill:#000000; fill-opacity:0.0; 
stroke:#000000; stroke-width:98.4252; stroke-opacity:1; 
stroke-linecap:round; stroke-linejoin:round;">
<path d="M8281 11685
L7981 11685
" />
<path d="M7587 11835
L7812 11835
" />
<path d="M7700 11835
L7700 11441
L7737 11498
L7775 11535
L7812 11554
" />
<path d="M7437 11479
L7418 11460
L7381 11441
L7287 11441
L7250 11460
L7231 11479
L7212 11516
L7212 11554
L7231 11610
L7456 11835
L7212 11835
" />
<path d="M7081 11573
L6987 11835
L6893 11573
" />
</g>
<g style="fill:#000000; fill-opacity:0.0; 
stroke:#000000; stroke-width:118.11; stroke-opacity:1; 
stroke-linecap:round; stroke-linejoin:round;">
<path d="M7462 21324
L7012 21324
" />
<path d="M7237 21549
L7237 21099
" />
<path d="M6421 21549
L6759 21549
" />
<path d="M6590 21549
L6590 20959
L6646 21043
L6703 21099
L6759 21127
" />
<path d="M6197 21015
L6168 20987
L6112 20959
L5972 20959
L5915 20987
L5887 21015
L5859 21071
L5859 21127
L5887 21212
L6225 21549
L5859 21549
" />
<path d="M5662 21156
L5522 21549
L5381 21156
" />
<path d="M3161 7995
L3048 7995
L2992 8023
L2936 8079
L2908 8192
L2908 8389
L2936 8501
L2992 8557
L3048 8586
L3161 8586
L3217 8557
L3273 8501
L3302 8389
L3302 8192
L3273 8079
L3217 8023
L3161 7995
" />
<path d="M2655 7995
L2655 8473
L2627 8529
L2598 8557
L2542 8586
L2430 8586
L2374 8557
L2345 8529
L2317 8473
L2317 7995
" />
<path d="M2120 7995
L1783 7995
" />
<path d="M1952 8586
L1952 7995
" />
</g>
<g style="fill:#000000; fill-opacity:0.0; 
stroke:#000000; stroke-width:0; stroke-opacity:1; 
stroke-linecap:round; stroke-linejoin:round;">
</g>
<g style="fill:#000000; fill-opacity:1.0; 
stroke:#000000; stroke-width:0; stroke-opacity:1; 
stroke-linecap:round; stroke-linejoin:round;">
<polyline style="fill-rule:evenodd;"
points="6118,13830
5488,13830
5488,14460
6118,14460
6118,13830
" /> 
</g>
<g style="fill:#000000; fill-opacity:1.0; 
stroke:#000000; stroke-width:629.921; stroke-opacity:1; 
stroke-linecap:round; stroke-linejoin:round;">
</g>
<g style="fill:#000000; fill-opacity:0.0; 
stroke:#000000; stroke-width:629.921; stroke-opacity:1; 
stroke-linecap:round; stroke-linejoin:round;">
<path d="M8803 17145
L8803 17145
" />
<path d="M6803 14145
L6803 14145
" />
<path d="M7803 17145
L7803 17145
" />
<path d="M7803 14145
L7803 14145
" />
<path d="M6803 17145
L6803 17145
" />
<path d="M8803 14145
L8803 14145
" />
<path d="M5803 17145
L5803 17145
" />
<path d="M37232 17543
L37232 17543
" />
<path d="M40232 14543
L40232 14543
" />
<path d="M38232 17543
L38232 17543
" />
<path d="M39232 14543
L39232 14543
" />
<path d="M39232 17543
L39232 17543
" />
<path d="M38232 14543
L38232 14543
" />
<path d="M40232 17543
L40232 17543
" />
</g>
<g style="fill:#000000; fill-opacity:0.0; 
stroke:#000000; stroke-width:0; stroke-opacity:1; 
stroke-linecap:round; stroke-linejoin:round;">
</g>
<g style="fill:#000000; fill-opacity:1.0; 
stroke:#000000; stroke-width:0; stroke-opacity:1; 
stroke-linecap:round; stroke-linejoin:round;">
<polyline style="fill-rule:evenodd;"
points="37547,14228
36917,14228
36917,14858
37547,14858
37547,14228
" /> 
<polyline style="fill-rule:evenodd;"
points="40023,19081
40014,19082
40005,19084
39996,19087
39988,19091
39980,19096
39973,19101
39966,19108
39960,19114
39954,19122
39950,19130
39946,19138
39943,19147
39940,19155
39939,19165
39938,19174
39938,19361
39939,19370
39940,19379
39943,19388
39946,19397
39950,19405
39954,19413
39960,19420
39966,19427
39973,19433
39980,19438
39988,19443
39996,19447
40005,19450
40014,19452
40023,19454
40032,19454
40258,19454
40268,19454
40277,19452
40286,19450
40294,19447
40302,19443
40310,19438
40318,19433
40324,19427
40331,19420
40336,19413
40341,19405
40345,19397
40348,19388
40350,19379
40351,19370
40352,19361
40352,19174
40351,19165
40350,19155
40348,19147
40345,19138
40341,19130
40336,19122
40331,19114
40324,19108
40318,19101
40310,19096
40302,19091
40294,19087
40286,19084
40277,19082
40268,19081
40258,19080
40032,19080
40023,19081
" /> 
<polyline style="fill-rule:evenodd;"
points="39334,19081
39325,19082
39316,19084
39307,19087
39299,19091
39291,19096
39284,19101
39277,19108
39271,19114
39265,19122
39261,19130
39257,19138
39254,19147
39251,19155
39250,19165
39250,19174
39250,19361
39250,19370
39251,19379
39254,19388
39257,19397
39261,19405
39265,19413
39271,19420
39277,19427
39284,19433
39291,19438
39299,19443
39307,19447
39316,19450
39325,19452
39334,19454
39343,19454
39569,19454
39579,19454
39588,19452
39597,19450
39605,19447
39613,19443
39621,19438
39629,19433
39635,19427
39642,19420
39647,19413
39652,19405
39656,19397
39659,19388
39661,19379
39662,19370
39663,19361
39663,19174
39662,19165
39661,19155
39659,19147
39656,19138
39652,19130
39647,19122
39642,19114
39635,19108
39629,19101
39621,19096
39613,19091
39605,19087
39597,19084
39588,19082
39579,19081
39569,19080
39343,19080
39334,19081
" /> 
<polyline style="fill-rule:evenodd;"
points="28175,22911
28175,22576
27840,22576
27840,22911
28175,22911
" /> 
<polyline style="fill-rule:evenodd;"
points="39613,3563
39613,3229
39278,3229
39278,3563
39613,3563
" /> 
</g>
<g style="fill:#000000; fill-opacity:1.0; 
stroke:#000000; stroke-width:629.921; stroke-opacity:1; 
stroke-linecap:round; stroke-linejoin:round;">
</g>
<g style="fill:#000000; fill-opacity:0.0; 
stroke:#000000; stroke-width:629.921; stroke-opacity:1; 
stroke-linecap:round; stroke-linejoin:round;">
<path d="M29169 17610
L29169 17610
" />
<path d="M32169 14610
L32169 14610
" />
<path d="M30169 17610
L30169 17610
" />
<path d="M31169 14610
L31169 14610
" />
<path d="M31169 17610
L31169 17610
" />
<path d="M30169 14610
L30169 14610
" />
<path d="M32169 17610
L32169 17610
" />
</g>
<g style="fill:#000000; fill-opacity:0.0; 
stroke:#000000; stroke-width:0; stroke-opacity:1; 
stroke-linecap:round; stroke-linejoin:round;">
</g>
<g style="fill:#000000; fill-opacity:1.0; 
stroke:#000000; stroke-width:0; stroke-opacity:1; 
stroke-linecap:round; stroke-linejoin:round;">
<polyline style="fill-rule:evenodd;"
points="29484,14295
28854,14295
28854,14925
29484,14925
29484,14295
" /> 
<polyline style="fill-rule:evenodd;"
points="21039,14070
20409,14070
20409,14700
21039,14700
21039,14070
" /> 
</g>
<g style="fill:#000000; fill-opacity:1.0; 
stroke:#000000; stroke-width:629.921; stroke-opacity:1; 
stroke-linecap:round; stroke-linejoin:round;">
</g>
<g style="fill:#000000; fill-opacity:0.0; 
stroke:#000000; stroke-width:629.921; stroke-opacity:1; 
stroke-linecap:round; stroke-linejoin:round;">
<path d="M23724 17385
L23724 17385
" />
<path d="M21724 14385
L21724 14385
" />
<path d="M22724 17385
L22724 17385
" />
<path d="M22724 14385
L22724 14385
" />
<path d="M21724 17385
L21724 17385
" />
<path d="M23724 14385
L23724 14385
" />
<path d="M20724 17385
L20724 17385
" />
</g>
<g style="fill:#000000; fill-opacity:0.0; 
stroke:#000000; stroke-width:0; stroke-opacity:1; 
stroke-linecap:round; stroke-linejoin:round;">
</g>
<g style="fill:#000000; fill-opacity:1.0; 
stroke:#000000; stroke-width:0; stroke-opacity:1; 
stroke-linecap:round; stroke-linejoin:round;">
<polyline style="fill-rule:evenodd;"
points="35519,7486
35510,7488
35501,7490
35492,7493
35484,7497
35476,7501
35469,7507
35462,7513
35456,7520
35450,7527
35446,7535
35442,7543
35439,7552
35436,7561
35435,7570
35435,7579
35435,7766
35435,7775
35436,7784
35439,7793
35442,7802
35446,7810
35450,7818
35456,7826
35462,7832
35469,7839
35476,7844
35484,7849
35492,7853
35501,7856
35510,7858
35519,7859
35528,7860
35754,7860
35764,7859
35773,7858
35782,7856
35790,7853
35798,7849
35806,7844
35814,7839
35821,7832
35827,7826
35832,7818
35837,7810
35841,7802
35844,7793
35846,7784
35847,7775
35848,7766
35848,7579
35847,7570
35846,7561
35844,7552
35841,7543
35837,7535
35832,7527
35827,7520
35821,7513
35814,7507
35806,7501
35798,7497
35790,7493
35782,7490
35773,7488
35764,7486
35754,7486
35528,7486
35519,7486
" /> 
<polyline style="fill-rule:evenodd;"
points="36208,7486
36199,7488
36190,7490
36181,7493
36173,7497
36165,7501
36158,7507
36151,7513
36145,7520
36139,7527
36135,7535
36131,7543
36128,7552
36125,7561
36124,7570
36124,7579
36124,7766
36124,7775
36125,7784
36128,7793
36131,7802
36135,7810
36139,7818
36145,7826
36151,7832
36158,7839
36165,7844
36173,7849
36181,7853
36190,7856
36199,7858
36208,7859
36217,7860
36443,7860
36453,7859
36462,7858
36471,7856
36479,7853
36487,7849
36495,7844
36503,7839
36510,7832
36516,7826
36521,7818
36526,7810
36530,7802
36533,7793
36535,7784
36536,7775
36537,7766
36537,7579
36536,7570
36535,7561
36533,7552
36530,7543
36526,7535
36521,7527
36516,7520
36510,7513
36503,7507
36495,7501
36487,7497
36479,7493
36471,7490
36462,7488
36453,7486
36443,7486
36217,7486
36208,7486
" /> 
<polyline style="fill-rule:evenodd;"
points="14578,13589
14569,13590
14560,13592
14551,13595
14543,13599
14535,13604
14528,13609
14521,13615
14515,13622
14509,13630
14505,13638
14501,13646
14498,13654
14495,13663
14494,13672
14494,13682
14494,13869
14494,13878
14495,13887
14498,13896
14501,13904
14505,13913
14509,13921
14515,13928
14521,13935
14528,13941
14535,13946
14543,13951
14551,13955
14560,13958
14569,13960
14578,13962
14587,13962
14813,13962
14823,13962
14832,13960
14841,13958
14849,13955
14858,13951
14865,13946
14873,13941
14880,13935
14886,13928
14891,13921
14896,13913
14900,13904
14903,13896
14905,13887
14907,13878
14907,13869
14907,13682
14907,13672
14905,13663
14903,13654
14900,13646
14896,13638
14891,13630
14886,13622
14880,13615
14873,13609
14865,13604
14858,13599
14849,13595
14841,13592
14832,13590
14823,13589
14813,13588
14587,13588
14578,13589
" /> 
<polyline style="fill-rule:evenodd;"
points="15267,13589
15258,13590
15249,13592
15240,13595
15232,13599
15224,13604
15217,13609
15210,13615
15204,13622
15198,13630
15194,13638
15190,13646
15187,13654
15184,13663
15183,13672
15183,13682
15183,13869
15183,13878
15184,13887
15187,13896
15190,13904
15194,13913
15198,13921
15204,13928
15210,13935
15217,13941
15224,13946
15232,13951
15240,13955
15249,13958
15258,13960
15267,13962
15276,13962
15502,13962
15512,13962
15521,13960
15530,13958
15538,13955
15547,13951
15554,13946
15562,13941
15569,13935
15575,13928
15580,13921
15585,13913
15589,13904
15592,13896
15594,13887
15596,13878
15596,13869
15596,13682
15596,13672
15594,13663
15592,13654
15589,13646
15585,13638
15580,13630
15575,13622
15569,13615
15562,13609
15554,13604
15547,13599
15538,13595
15530,13592
15521,13590
15512,13589
15502,13588
15276,13588
15267,13589
" /> 
<polyline style="fill-rule:evenodd;"
points="41657,10793
41648,10795
41639,10797
41630,10800
41622,10804
41614,10809
41607,10814
41600,10820
41594,10827
41588,10834
41583,10842
41579,10851
41576,10859
41574,10868
41573,10877
41572,10886
41572,11113
41573,11122
41574,11131
41576,11140
41579,11148
41583,11157
41588,11165
41594,11172
41600,11179
41607,11185
41614,11190
41622,11195
41630,11199
41639,11202
41648,11204
41657,11206
41666,11206
41853,11206
41862,11206
41871,11204
41880,11202
41889,11199
41897,11195
41905,11190
41912,11185
41919,11179
41925,11172
41931,11165
41935,11157
41939,11148
41942,11140
41945,11131
41946,11122
41946,11113
41946,10886
41946,10877
41945,10868
41942,10859
41939,10851
41935,10842
41931,10834
41925,10827
41919,10820
41912,10814
41905,10809
41897,10804
41889,10800
41880,10797
41871,10795
41862,10793
41853,10793
41666,10793
41657,10793
" /> 
<polyline style="fill-rule:evenodd;"
points="41657,11482
41648,11484
41639,11486
41630,11489
41622,11493
41614,11498
41607,11503
41600,11509
41594,11516
41588,11523
41583,11531
41579,11540
41576,11548
41574,11557
41573,11566
41572,11575
41572,11802
41573,11811
41574,11820
41576,11829
41579,11837
41583,11846
41588,11854
41594,11861
41600,11868
41607,11874
41614,11879
41622,11884
41630,11888
41639,11891
41648,11893
41657,11895
41666,11895
41853,11895
41862,11895
41871,11893
41880,11891
41889,11888
41897,11884
41905,11879
41912,11874
41919,11868
41925,11861
41931,11854
41935,11846
41939,11837
41942,11829
41945,11820
41946,11811
41946,11802
41946,11575
41946,11566
41945,11557
41942,11548
41939,11540
41935,11531
41931,11523
41925,11516
41919,11509
41912,11503
41905,11498
41897,11493
41889,11489
41880,11486
41871,11484
41862,11482
41853,11482
41666,11482
41657,11482
" /> 
<polyline style="fill-rule:evenodd;"
points="42405,13608
42396,13610
42387,13612
42378,13615
42370,13619
42362,13624
42355,13629
42348,13635
42342,13642
42336,13649
42331,13657
42327,13665
42324,13674
42322,13683
42321,13692
42320,13701
42320,13928
42321,13937
42322,13946
42324,13955
42327,13963
42331,13972
42336,13980
42342,13987
42348,13994
42355,14000
42362,14005
42370,14010
42378,14014
42387,14017
42396,14019
42405,14021
42414,14021
42601,14021
42610,14021
42619,14019
42628,14017
42637,14014
42645,14010
42653,14005
42660,14000
42667,13994
42673,13987
42679,13980
42683,13972
42687,13963
42690,13955
42693,13946
42694,13937
42694,13928
42694,13701
42694,13692
42693,13683
42690,13674
42687,13665
42683,13657
42679,13649
42673,13642
42667,13635
42660,13629
42653,13624
42645,13619
42637,13615
42628,13612
42619,13610
42610,13608
42601,13608
42414,13608
42405,13608
" /> 
<polyline style="fill-rule:evenodd;"
points="42405,12919
42396,12921
42387,12923
42378,12926
42370,12930
42362,12935
42355,12940
42348,12946
42342,12953
42336,12960
42331,12968
42327,12977
42324,12985
42322,12994
42321,13003
42320,13012
42320,13239
42321,13248
42322,13257
42324,13266
42327,13274
42331,13283
42336,13291
42342,13298
42348,13305
42355,13311
42362,13316
42370,13321
42378,13325
42387,13328
42396,13330
42405,13332
42414,13332
42601,13332
42610,13332
42619,13330
42628,13328
42637,13325
42645,13321
42653,13316
42660,13311
42667,13305
42673,13298
42679,13291
42683,13283
42687,13274
42690,13266
42693,13257
42694,13248
42694,13239
42694,13012
42694,13003
42693,12994
42690,12985
42687,12977
42683,12968
42679,12960
42673,12953
42667,12946
42660,12940
42653,12935
42645,12930
42637,12926
42628,12923
42619,12921
42610,12919
42601,12919
42414,12919
42405,12919
" /> 
<polyline style="fill-rule:evenodd;"
points="7427,20459
7427,20125
7092,20125
7092,20459
7427,20459
" /> 
<polyline style="fill-rule:evenodd;"
points="25791,20813
25781,20814
25773,20817
25764,20820
25756,20824
25748,20828
25740,20834
25734,20840
25727,20847
25722,20854
25717,20862
25713,20870
25710,20879
25708,20888
25707,20897
25706,20906
25706,21093
25707,21102
25708,21111
25710,21120
25713,21129
25717,21137
25722,21145
25727,21152
25734,21159
25740,21165
25748,21171
25756,21175
25764,21179
25773,21182
25781,21185
25791,21186
25800,21187
26026,21187
26035,21186
26044,21185
26053,21182
26062,21179
26070,21175
26078,21171
26085,21165
26092,21159
26098,21152
26104,21145
26109,21137
26112,21129
26116,21120
26118,21111
26119,21102
26120,21093
26120,20906
26119,20897
26118,20888
26116,20879
26112,20870
26109,20862
26104,20854
26098,20847
26092,20840
26085,20834
26078,20828
26070,20824
26062,20820
26053,20817
26044,20814
26035,20813
26026,20812
25800,20812
25791,20813
" /> 
<polyline style="fill-rule:evenodd;"
points="25102,20813
25092,20814
25084,20817
25075,20820
25067,20824
25059,20828
25051,20834
25045,20840
25038,20847
25033,20854
25028,20862
25024,20870
25021,20879
25019,20888
25018,20897
25017,20906
25017,21093
25018,21102
25019,21111
25021,21120
25024,21129
25028,21137
25033,21145
25038,21152
25045,21159
25051,21165
25059,21171
25067,21175
25075,21179
25084,21182
25092,21185
25102,21186
25111,21187
25337,21187
25346,21186
25355,21185
25364,21182
25373,21179
25381,21175
25389,21171
25396,21165
25403,21159
25409,21152
25415,21145
25420,21137
25423,21129
25427,21120
25429,21111
25430,21102
25431,21093
25431,20906
25430,20897
25429,20888
25427,20879
25423,20870
25420,20862
25415,20854
25409,20847
25403,20840
25396,20834
25389,20828
25381,20824
25373,20820
25364,20817
25355,20814
25346,20813
25337,20812
25111,20812
25102,20813
" /> 
<polyline style="fill-rule:evenodd;"
points="36838,22805
36829,22806
36820,22809
36811,22812
36803,22816
36795,22820
36788,22826
36781,22832
36775,22839
36769,22846
36764,22854
36761,22862
36757,22871
36755,22880
36754,22889
36753,22898
36753,23085
36754,23094
36755,23103
36757,23112
36761,23121
36764,23129
36769,23137
36775,23144
36781,23151
36788,23157
36795,23163
36803,23168
36811,23172
36820,23175
36829,23177
36838,23178
36847,23179
37073,23179
37082,23178
37092,23177
37100,23175
37109,23172
37117,23168
37125,23163
37133,23157
37139,23151
37146,23144
37151,23137
37156,23129
37160,23121
37163,23112
37165,23103
37166,23094
37167,23085
37167,22898
37166,22889
37165,22880
37163,22871
37160,22862
37156,22854
37151,22846
37146,22839
37139,22832
37133,22826
37125,22820
37117,22816
37109,22812
37100,22809
37092,22806
37082,22805
37073,22805
36847,22805
36838,22805
" /> 
<polyline style="fill-rule:evenodd;"
points="37527,22805
37518,22806
37509,22809
37500,22812
37492,22816
37484,22820
37477,22826
37470,22832
37464,22839
37458,22846
37453,22854
37450,22862
37446,22871
37444,22880
37443,22889
37442,22898
37442,23085
37443,23094
37444,23103
37446,23112
37450,23121
37453,23129
37458,23137
37464,23144
37470,23151
37477,23157
37484,23163
37492,23168
37500,23172
37509,23175
37518,23177
37527,23178
37536,23179
37762,23179
37771,23178
37781,23177
37789,23175
37798,23172
37806,23168
37814,23163
37822,23157
37828,23151
37835,23144
37840,23137
37845,23129
37849,23121
37852,23112
37854,23103
37855,23094
37856,23085
37856,22898
37855,22889
37854,22880
37852,22871
37849,22862
37845,22854
37840,22846
37835,22839
37828,22832
37822,22826
37814,22820
37806,22816
37798,22812
37789,22809
37781,22806
37771,22805
37762,22805
37536,22805
37527,22805
" /> 
<polyline style="fill-rule:evenodd;"
points="2537,9966
2537,9631
2202,9631
2202,9966
2537,9966
" /> 
<polyline style="fill-rule:evenodd;"
points="33704,22315
33695,22316
33686,22318
33677,22322
33669,22326
33661,22330
33654,22336
33647,22342
33641,22349
33635,22356
33631,22364
33627,22372
33624,22381
33621,22390
33620,22399
33620,22408
33620,22634
33620,22644
33621,22653
33624,22661
33627,22670
33631,22678
33635,22686
33641,22694
33647,22700
33654,22707
33661,22712
33669,22717
33677,22721
33686,22724
33695,22726
33704,22727
33713,22728
33900,22728
33909,22727
33918,22726
33927,22724
33936,22721
33944,22717
33952,22712
33959,22707
33966,22700
33972,22694
33978,22686
33983,22678
33986,22670
33990,22661
33992,22653
33993,22644
33994,22634
33994,22408
33993,22399
33992,22390
33990,22381
33986,22372
33983,22364
33978,22356
33972,22349
33966,22342
33959,22336
33952,22330
33944,22326
33936,22322
33927,22318
33918,22316
33909,22315
33900,22314
33713,22314
33704,22315
" /> 
<polyline style="fill-rule:evenodd;"
points="33704,21626
33695,21627
33686,21630
33677,21633
33669,21637
33661,21641
33654,21647
33647,21653
33641,21660
33635,21667
33631,21675
33627,21683
33624,21692
33621,21701
33620,21710
33620,21719
33620,21945
33620,21955
33621,21964
33624,21973
33627,21981
33631,21989
33635,21997
33641,22005
33647,22011
33654,22018
33661,22023
33669,22028
33677,22032
33686,22035
33695,22037
33704,22038
33713,22039
33900,22039
33909,22038
33918,22037
33927,22035
33936,22032
33944,22028
33952,22023
33959,22018
33966,22011
33972,22005
33978,21997
33983,21989
33986,21981
33990,21973
33992,21964
33993,21955
33994,21945
33994,21719
33993,21710
33992,21701
33990,21692
33986,21683
33983,21675
33978,21667
33972,21660
33966,21653
33959,21647
33952,21641
33944,21637
33936,21633
33927,21630
33918,21627
33909,21626
33900,21625
33713,21625
33704,21626
" /> 
<polyline style="fill-rule:evenodd;"
points="27499,18844
27490,18846
27481,18848
27473,18851
27464,18855
27456,18860
27449,18865
27442,18871
27436,18878
27431,18886
27426,18893
27422,18902
27419,18910
27417,18919
27415,18928
27415,18937
27415,19164
27415,19173
27417,19182
27419,19191
27422,19200
27426,19208
27431,19216
27436,19223
27442,19230
27449,19236
27456,19242
27464,19246
27473,19250
27481,19253
27490,19256
27499,19257
27508,19257
27695,19257
27705,19257
27714,19256
27723,19253
27731,19250
27739,19246
27747,19242
27755,19236
27761,19230
27768,19223
27773,19216
27778,19208
27782,19200
27785,19191
27787,19182
27788,19173
27789,19164
27789,18937
27788,18928
27787,18919
27785,18910
27782,18902
27778,18893
27773,18886
27768,18878
27761,18871
27755,18865
27747,18860
27739,18855
27731,18851
27723,18848
27714,18846
27705,18844
27695,18844
27508,18844
27499,18844
" /> 
<polyline style="fill-rule:evenodd;"
points="27499,19533
27490,19535
27481,19537
27473,19540
27464,19544
27456,19549
27449,19554
27442,19560
27436,19567
27431,19575
27426,19582
27422,19591
27419,19599
27417,19608
27415,19617
27415,19626
27415,19853
27415,19862
27417,19871
27419,19880
27422,19889
27426,19897
27431,19905
27436,19912
27442,19919
27449,19925
27456,19931
27464,19935
27473,19939
27481,19942
27490,19945
27499,19946
27508,19946
27695,19946
27705,19946
27714,19945
27723,19942
27731,19939
27739,19935
27747,19931
27755,19925
27761,19919
27768,19912
27773,19905
27778,19897
27782,19889
27785,19880
27787,19871
27788,19862
27789,19853
27789,19626
27788,19617
27787,19608
27785,19599
27782,19591
27778,19582
27773,19575
27768,19567
27761,19560
27755,19554
27747,19549
27739,19544
27731,19540
27723,19537
27714,19535
27705,19533
27695,19533
27508,19533
27499,19533
" /> 
<polyline style="fill-rule:evenodd;"
points="40590,22805
40581,22806
40572,22809
40563,22812
40555,22816
40547,22820
40540,22826
40533,22832
40527,22839
40521,22846
40516,22854
40513,22862
40509,22871
40507,22880
40506,22889
40505,22898
40505,23085
40506,23094
40507,23103
40509,23112
40513,23121
40516,23129
40521,23137
40527,23144
40533,23151
40540,23157
40547,23163
40555,23168
40563,23172
40572,23175
40581,23177
40590,23178
40599,23179
40825,23179
40834,23178
40844,23177
40852,23175
40861,23172
40869,23168
40877,23163
40885,23157
40891,23151
40898,23144
40903,23137
40908,23129
40912,23121
40915,23112
40917,23103
40918,23094
40919,23085
40919,22898
40918,22889
40917,22880
40915,22871
40912,22862
40908,22854
40903,22846
40898,22839
40891,22832
40885,22826
40877,22820
40869,22816
40861,22812
40852,22809
40844,22806
40834,22805
40825,22805
40599,22805
40590,22805
" /> 
<polyline style="fill-rule:evenodd;"
points="39901,22805
39892,22806
39883,22809
39874,22812
39866,22816
39858,22820
39851,22826
39844,22832
39838,22839
39832,22846
39827,22854
39824,22862
39820,22871
39818,22880
39817,22889
39816,22898
39816,23085
39817,23094
39818,23103
39820,23112
39824,23121
39827,23129
39832,23137
39838,23144
39844,23151
39851,23157
39858,23163
39866,23168
39874,23172
39883,23175
39892,23177
39901,23178
39910,23179
40136,23179
40145,23178
40155,23177
40163,23175
40172,23172
40180,23168
40188,23163
40196,23157
40202,23151
40209,23144
40214,23137
40219,23129
40223,23121
40226,23112
40228,23103
40229,23094
40230,23085
40230,22898
40229,22889
40228,22880
40226,22871
40223,22862
40219,22854
40214,22846
40209,22839
40202,22832
40196,22826
40188,22820
40180,22816
40172,22812
40163,22809
40155,22806
40145,22805
40136,22805
39910,22805
39901,22805
" /> 
<polyline style="fill-rule:evenodd;"
points="8848,10635
8848,10301
8513,10301
8513,10635
8848,10635
" /> 
<polyline style="fill-rule:evenodd;"
points="44464,17514
44455,17515
44446,17517
44437,17520
44429,17524
44421,17529
44414,17535
44407,17541
44401,17547
44395,17555
44390,17563
44387,17571
44383,17580
44381,17589
44380,17598
44379,17607
44379,17794
44380,17803
44381,17812
44383,17821
44387,17830
44390,17838
44395,17846
44401,17853
44407,17860
44414,17866
44421,17872
44429,17876
44437,17880
44446,17883
44455,17885
44464,17887
44473,17887
44699,17887
44708,17887
44718,17885
44726,17883
44735,17880
44743,17876
44751,17872
44759,17866
44765,17860
44772,17853
44777,17846
44782,17838
44786,17830
44789,17821
44791,17812
44792,17803
44793,17794
44793,17607
44792,17598
44791,17589
44789,17580
44786,17571
44782,17563
44777,17555
44772,17547
44765,17541
44759,17535
44751,17529
44743,17524
44735,17520
44726,17517
44718,17515
44708,17514
44699,17513
44473,17513
44464,17514
" /> 
<polyline style="fill-rule:evenodd;"
points="43775,17514
43766,17515
43757,17517
43748,17520
43740,17524
43732,17529
43725,17535
43718,17541
43712,17547
43706,17555
43701,17563
43698,17571
43694,17580
43692,17589
43691,17598
43690,17607
43690,17794
43691,17803
43692,17812
43694,17821
43698,17830
43701,17838
43706,17846
43712,17853
43718,17860
43725,17866
43732,17872
43740,17876
43748,17880
43757,17883
43766,17885
43775,17887
43784,17887
44010,17887
44019,17887
44029,17885
44037,17883
44046,17880
44054,17876
44062,17872
44070,17866
44076,17860
44083,17853
44088,17846
44093,17838
44097,17830
44100,17821
44102,17812
44103,17803
44104,17794
44104,17607
44103,17598
44102,17589
44100,17580
44097,17571
44093,17563
44088,17555
44083,17547
44076,17541
44070,17535
44062,17529
44054,17524
44046,17520
44037,17517
44029,17515
44019,17514
44010,17513
43784,17513
43775,17514
" /> 
<polyline style="fill-rule:evenodd;"
points="37415,11009
37415,10675
37080,10675
37080,11009
37415,11009
" /> 
<polyline style="fill-rule:evenodd;"
points="26617,23067
26608,23068
26599,23070
26591,23074
26582,23077
26575,23082
26567,23088
26560,23094
26554,23101
26549,23108
26544,23116
26540,23124
26537,23133
26535,23142
26533,23151
26533,23160
26533,23386
26533,23395
26535,23405
26537,23413
26540,23422
26544,23430
26549,23438
26554,23446
26560,23452
26567,23459
26575,23464
26582,23469
26591,23473
26599,23476
26608,23478
26617,23479
26626,23480
26813,23480
26823,23479
26832,23478
26841,23476
26849,23473
26858,23469
26865,23464
26873,23459
26880,23452
26886,23446
26891,23438
26896,23430
26900,23422
26903,23413
26905,23405
26907,23395
26907,23386
26907,23160
26907,23151
26905,23142
26903,23133
26900,23124
26896,23116
26891,23108
26886,23101
26880,23094
26873,23088
26865,23082
26858,23077
26849,23074
26841,23070
26832,23068
26823,23067
26813,23066
26626,23066
26617,23067
" /> 
<polyline style="fill-rule:evenodd;"
points="26617,23756
26608,23757
26599,23759
26591,23763
26582,23766
26575,23771
26567,23777
26560,23783
26554,23790
26549,23797
26544,23805
26540,23813
26537,23822
26535,23831
26533,23840
26533,23849
26533,24075
26533,24084
26535,24094
26537,24102
26540,24111
26544,24119
26549,24127
26554,24135
26560,24141
26567,24148
26575,24153
26582,24158
26591,24162
26599,24165
26608,24167
26617,24168
26626,24169
26813,24169
26823,24168
26832,24167
26841,24165
26849,24162
26858,24158
26865,24153
26873,24148
26880,24141
26886,24135
26891,24127
26896,24119
26900,24111
26903,24102
26905,24094
26907,24084
26907,24075
26907,23849
26907,23840
26905,23831
26903,23822
26900,23813
26896,23805
26891,23797
26886,23790
26880,23783
26873,23777
26865,23771
26858,23766
26849,23763
26841,23759
26832,23757
26823,23756
26813,23755
26626,23755
26617,23756
" /> 
<polyline style="fill-rule:evenodd;"
points="36637,18402
36628,18403
36619,18405
36610,18408
36602,18412
36594,18417
36587,18422
36580,18428
36574,18435
36568,18443
36564,18451
36560,18459
36557,18467
36554,18476
36553,18485
36553,18495
36553,18721
36553,18730
36554,18739
36557,18748
36560,18757
36564,18765
36568,18773
36574,18780
36580,18787
36587,18793
36594,18799
36602,18803
36610,18807
36619,18810
36628,18813
36637,18814
36646,18814
36833,18814
36842,18814
36851,18813
36860,18810
36869,18807
36877,18803
36885,18799
36892,18793
36899,18787
36905,18780
36911,18773
36916,18765
36920,18757
36923,18748
36925,18739
36926,18730
36927,18721
36927,18495
36926,18485
36925,18476
36923,18467
36920,18459
36916,18451
36911,18443
36905,18435
36899,18428
36892,18422
36885,18417
36877,18412
36869,18408
36860,18405
36851,18403
36842,18402
36833,18401
36646,18401
36637,18402
" /> 
<polyline style="fill-rule:evenodd;"
points="36637,19091
36628,19092
36619,19094
36610,19097
36602,19101
36594,19106
36587,19111
36580,19117
36574,19124
36568,19132
36564,19139
36560,19148
36557,19156
36554,19165
36553,19174
36553,19184
36553,19410
36553,19419
36554,19428
36557,19437
36560,19446
36564,19454
36568,19462
36574,19469
36580,19476
36587,19482
36594,19488
36602,19492
36610,19496
36619,19499
36628,19502
36637,19503
36646,19503
36833,19503
36842,19503
36851,19502
36860,19499
36869,19496
36877,19492
36885,19488
36892,19482
36899,19476
36905,19469
36911,19462
36916,19454
36920,19446
36923,19437
36925,19428
36926,19419
36927,19410
36927,19184
36926,19174
36925,19165
36923,19156
36920,19148
36916,19139
36911,19132
36905,19124
36899,19117
36892,19111
36885,19106
36877,19101
36869,19097
36860,19094
36851,19092
36842,19091
36833,19090
36646,19090
36637,19091
" /> 
<polyline style="fill-rule:evenodd;"
points="39413,10646
39404,10647
39395,10649
39386,10652
39378,10656
39370,10661
39362,10666
39356,10673
39349,10679
39344,10687
39339,10695
39335,10703
39332,10712
39330,10720
39329,10730
39328,10739
39328,10965
39329,10974
39330,10983
39332,10992
39335,11001
39339,11009
39344,11017
39349,11024
39356,11031
39362,11037
39370,11043
39378,11048
39386,11051
39395,11055
39404,11057
39413,11058
39422,11059
39609,11059
39618,11058
39627,11057
39636,11055
39645,11051
39653,11048
39661,11043
39668,11037
39675,11031
39681,11024
39686,11017
39691,11009
39695,11001
39698,10992
39700,10983
39702,10974
39702,10965
39702,10739
39702,10730
39700,10720
39698,10712
39695,10703
39691,10695
39686,10687
39681,10679
39675,10673
39668,10666
39661,10661
39653,10656
39645,10652
39636,10649
39627,10647
39618,10646
39609,10645
39422,10645
39413,10646
" /> 
<polyline style="fill-rule:evenodd;"
points="39413,9957
39404,9958
39395,9960
39386,9963
39378,9967
39370,9972
39362,9977
39356,9984
39349,9990
39344,9998
39339,10006
39335,10014
39332,10023
39330,10031
39329,10041
39328,10050
39328,10276
39329,10285
39330,10294
39332,10303
39335,10312
39339,10320
39344,10328
39349,10335
39356,10342
39362,10348
39370,10354
39378,10359
39386,10362
39395,10366
39404,10368
39413,10369
39422,10370
39609,10370
39618,10369
39627,10368
39636,10366
39645,10362
39653,10359
39661,10354
39668,10348
39675,10342
39681,10335
39686,10328
39691,10320
39695,10312
39698,10303
39700,10294
39702,10285
39702,10276
39702,10050
39702,10041
39700,10031
39698,10023
39695,10014
39691,10006
39686,9998
39681,9990
39675,9984
39668,9977
39661,9972
39653,9967
39645,9963
39636,9960
39627,9958
39618,9957
39609,9956
39422,9956
39413,9957
" /> 
<polyline style="fill-rule:evenodd;"
points="43468,20203
43459,20204
43450,20206
43441,20209
43433,20213
43425,20218
43418,20223
43411,20230
43405,20236
43399,20244
43394,20252
43390,20260
43387,20269
43385,20278
43384,20287
43383,20296
43383,20483
43384,20492
43385,20501
43387,20510
43390,20519
43394,20527
43399,20535
43405,20542
43411,20549
43418,20555
43425,20561
43433,20565
43441,20569
43450,20572
43459,20574
43468,20576
43477,20576
43703,20576
43712,20576
43721,20574
43730,20572
43739,20569
43747,20565
43755,20561
43763,20555
43769,20549
43776,20542
43781,20535
43786,20527
43790,20519
43793,20510
43795,20501
43796,20492
43797,20483
43797,20296
43796,20287
43795,20278
43793,20269
43790,20260
43786,20252
43781,20244
43776,20236
43769,20230
43763,20223
43755,20218
43747,20213
43739,20209
43730,20206
43721,20204
43712,20203
43703,20202
43477,20202
43468,20203
" /> 
<polyline style="fill-rule:evenodd;"
points="44157,20203
44148,20204
44139,20206
44130,20209
44122,20213
44114,20218
44107,20223
44100,20230
44094,20236
44088,20244
44083,20252
44079,20260
44076,20269
44074,20278
44073,20287
44072,20296
44072,20483
44073,20492
44074,20501
44076,20510
44079,20519
44083,20527
44088,20535
44094,20542
44100,20549
44107,20555
44114,20561
44122,20565
44130,20569
44139,20572
44148,20574
44157,20576
44166,20576
44392,20576
44401,20576
44410,20574
44419,20572
44428,20569
44436,20565
44444,20561
44452,20555
44458,20549
44464,20542
44470,20535
44475,20527
44479,20519
44482,20510
44484,20501
44485,20492
44486,20483
44486,20296
44485,20287
44484,20278
44482,20269
44479,20260
44475,20252
44470,20244
44464,20236
44458,20230
44452,20223
44444,20218
44436,20213
44428,20209
44419,20206
44410,20204
44401,20203
44392,20202
44166,20202
44157,20203
" /> 
<polyline style="fill-rule:evenodd;"
points="27720,12742
27711,12743
27702,12746
27693,12749
27685,12753
27677,12757
27670,12763
27663,12769
27657,12776
27651,12783
27646,12791
27642,12799
27639,12808
27637,12817
27636,12826
27635,12835
27635,13022
27636,13031
27637,13040
27639,13049
27642,13058
27646,13066
27651,13074
27657,13081
27663,13088
27670,13094
27677,13100
27685,13105
27693,13109
27702,13112
27711,13114
27720,13115
27729,13116
27955,13116
27964,13115
27973,13114
27982,13112
27991,13109
27999,13105
28007,13100
28015,13094
28021,13088
28027,13081
28033,13074
28038,13066
28042,13058
28045,13049
28047,13040
28048,13031
28049,13022
28049,12835
28048,12826
28047,12817
28045,12808
28042,12799
28038,12791
28033,12783
28027,12776
28021,12769
28015,12763
28007,12757
27999,12753
27991,12749
27982,12746
27973,12743
27964,12742
27955,12742
27729,12742
27720,12742
" /> 
<polyline style="fill-rule:evenodd;"
points="28409,12742
28400,12743
28391,12746
28382,12749
28374,12753
28366,12757
28358,12763
28352,12769
28346,12776
28340,12783
28335,12791
28331,12799
28328,12808
28326,12817
28325,12826
28324,12835
28324,13022
28325,13031
28326,13040
28328,13049
28331,13058
28335,13066
28340,13074
28346,13081
28352,13088
28358,13094
28366,13100
28374,13105
28382,13109
28391,13112
28400,13114
28409,13115
28418,13116
28644,13116
28653,13115
28662,13114
28671,13112
28680,13109
28688,13105
28696,13100
28704,13094
28710,13088
28716,13081
28722,13074
28727,13066
28731,13058
28734,13049
28736,13040
28737,13031
28738,13022
28738,12835
28737,12826
28736,12817
28734,12808
28731,12799
28727,12791
28722,12783
28716,12776
28710,12769
28704,12763
28696,12757
28688,12753
28680,12749
28671,12746
28662,12743
28653,12742
28644,12742
28418,12742
28409,12742
" /> 
<polyline style="fill-rule:evenodd;"
points="20298,11490
20289,11491
20280,11494
20272,11497
20263,11501
20256,11505
20248,11511
20241,11517
20235,11524
20230,11531
20225,11539
20221,11547
20218,11556
20216,11565
20215,11574
20214,11583
20214,11770
20215,11779
20216,11788
20218,11797
20221,11806
20225,11814
20230,11822
20235,11829
20241,11836
20248,11842
20256,11848
20263,11853
20272,11857
20280,11860
20289,11862
20298,11863
20308,11864
20534,11864
20543,11863
20552,11862
20561,11860
20570,11857
20578,11853
20586,11848
20593,11842
20600,11836
20606,11829
20612,11822
20616,11814
20620,11806
20623,11797
20626,11788
20627,11779
20627,11770
20627,11583
20627,11574
20626,11565
20623,11556
20620,11547
20616,11539
20612,11531
20606,11524
20600,11517
20593,11511
20586,11505
20578,11501
20570,11497
20561,11494
20552,11491
20543,11490
20534,11490
20308,11490
20298,11490
" /> 
<polyline style="fill-rule:evenodd;"
points="19609,11490
19600,11491
19591,11494
19583,11497
19575,11501
19567,11505
19559,11511
19552,11517
19546,11524
19541,11531
19536,11539
19532,11547
19529,11556
19527,11565
19526,11574
19525,11583
19525,11770
19526,11779
19527,11788
19529,11797
19532,11806
19536,11814
19541,11822
19546,11829
19552,11836
19559,11842
19567,11848
19575,11853
19583,11857
19591,11860
19600,11862
19609,11863
19619,11864
19845,11864
19854,11863
19863,11862
19872,11860
19881,11857
19889,11853
19897,11848
19904,11842
19911,11836
19917,11829
19923,11822
19927,11814
19931,11806
19934,11797
19937,11788
19938,11779
19938,11770
19938,11583
19938,11574
19937,11565
19934,11556
19931,11547
19927,11539
19923,11531
19917,11524
19911,11517
19904,11511
19897,11505
19889,11501
19881,11497
19872,11494
19863,11491
19854,11490
19845,11490
19619,11490
19609,11490
" /> 
<polyline style="fill-rule:evenodd;"
points="38373,7876
38364,7877
38355,7880
38347,7883
38338,7887
38330,7891
38323,7897
38316,7903
38310,7910
38305,7917
38300,7925
38296,7933
38293,7942
38291,7951
38289,7960
38289,7969
38289,8195
38289,8205
38291,8214
38293,8223
38296,8231
38300,8239
38305,8247
38310,8255
38316,8261
38323,8268
38330,8273
38338,8278
38347,8282
38355,8285
38364,8287
38373,8288
38382,8289
38569,8289
38579,8288
38588,8287
38597,8285
38605,8282
38613,8278
38621,8273
38629,8268
38635,8261
38642,8255
38647,8247
38652,8239
38656,8231
38659,8223
38661,8214
38662,8205
38663,8195
38663,7969
38662,7960
38661,7951
38659,7942
38656,7933
38652,7925
38647,7917
38642,7910
38635,7903
38629,7897
38621,7891
38613,7887
38605,7883
38597,7880
38588,7877
38579,7876
38569,7875
38382,7875
38373,7876
" /> 
<polyline style="fill-rule:evenodd;"
points="38373,8565
38364,8566
38355,8568
38347,8572
38338,8576
38330,8580
38323,8586
38316,8592
38310,8599
38305,8606
38300,8614
38296,8622
38293,8631
38291,8640
38289,8649
38289,8658
38289,8884
38289,8894
38291,8903
38293,8911
38296,8920
38300,8928
38305,8936
38310,8944
38316,8950
38323,8957
38330,8962
38338,8967
38347,8971
38355,8974
38364,8976
38373,8977
38382,8978
38569,8978
38579,8977
38588,8976
38597,8974
38605,8971
38613,8967
38621,8962
38629,8957
38635,8950
38642,8944
38647,8936
38652,8928
38656,8920
38659,8911
38661,8903
38662,8894
38663,8884
38663,8658
38662,8649
38661,8640
38659,8631
38656,8622
38652,8614
38647,8606
38642,8599
38635,8592
38629,8586
38621,8580
38613,8576
38605,8572
38597,8568
38588,8566
38579,8565
38569,8564
38382,8564
38373,8565
" /> 
<polyline style="fill-rule:evenodd;"
points="17361,13577
17352,13578
17343,13580
17335,13583
17326,13587
17319,13592
17311,13597
17304,13604
17298,13610
17293,13618
17288,13626
17284,13634
17281,13643
17279,13652
17278,13661
17277,13670
17277,13896
17278,13905
17279,13914
17281,13923
17284,13932
17288,13940
17293,13948
17298,13955
17304,13962
17311,13968
17319,13974
17326,13979
17335,13983
17343,13986
17352,13988
17361,13989
17371,13990
17558,13990
17567,13989
17576,13988
17585,13986
17593,13983
17602,13979
17610,13974
17617,13968
17624,13962
17630,13955
17635,13948
17640,13940
17644,13932
17647,13923
17649,13914
17651,13905
17651,13896
17651,13670
17651,13661
17649,13652
17647,13643
17644,13634
17640,13626
17635,13618
17630,13610
17624,13604
17617,13597
17610,13592
17602,13587
17593,13583
17585,13580
17576,13578
17567,13577
17558,13576
17371,13576
17361,13577
" /> 
<polyline style="fill-rule:evenodd;"
points="17361,14266
17352,14267
17343,14269
17335,14272
17326,14276
17319,14281
17311,14286
17304,14293
17298,14299
17293,14307
17288,14315
17284,14323
17281,14332
17279,14341
17278,14350
17277,14359
17277,14585
17278,14594
17279,14603
17281,14612
17284,14621
17288,14629
17293,14637
17298,14644
17304,14651
17311,14657
17319,14663
17326,14668
17335,14672
17343,14675
17352,14677
17361,14678
17371,14679
17558,14679
17567,14678
17576,14677
17585,14675
17593,14672
17602,14668
17610,14663
17617,14657
17624,14651
17630,14644
17635,14637
17640,14629
17644,14621
17647,14612
17649,14603
17651,14594
17651,14585
17651,14359
17651,14350
17649,14341
17647,14332
17644,14323
17640,14315
17635,14307
17630,14299
17624,14293
17617,14286
17610,14281
17602,14276
17593,14272
17585,14269
17576,14267
17567,14266
17558,14265
17371,14265
17361,14266
" /> 
<polyline style="fill-rule:evenodd;"
points="33350,18805
33341,18806
33332,18809
33323,18812
33315,18816
33307,18820
33299,18826
33293,18832
33286,18839
33281,18846
33276,18854
33272,18862
33269,18871
33267,18880
33266,18889
33265,18898
33265,19125
33266,19134
33267,19143
33269,19152
33272,19160
33276,19169
33281,19176
33286,19184
33293,19191
33299,19197
33307,19202
33315,19207
33323,19211
33332,19214
33341,19216
33350,19218
33359,19218
33546,19218
33555,19218
33564,19216
33573,19214
33582,19211
33590,19207
33598,19202
33605,19197
33612,19191
33618,19184
33624,19176
33628,19169
33632,19160
33635,19152
33637,19143
33639,19134
33639,19125
33639,18898
33639,18889
33637,18880
33635,18871
33632,18862
33628,18854
33624,18846
33618,18839
33612,18832
33605,18826
33598,18820
33590,18816
33582,18812
33573,18809
33564,18806
33555,18805
33546,18805
33359,18805
33350,18805
" /> 
<polyline style="fill-rule:evenodd;"
points="33350,19494
33341,19495
33332,19498
33323,19501
33315,19505
33307,19509
33299,19515
33293,19521
33286,19528
33281,19535
33276,19543
33272,19551
33269,19560
33267,19569
33266,19578
33265,19587
33265,19813
33266,19823
33267,19832
33269,19841
33272,19849
33276,19858
33281,19865
33286,19873
33293,19880
33299,19886
33307,19891
33315,19896
33323,19900
33332,19903
33341,19905
33350,19907
33359,19907
33546,19907
33555,19907
33564,19905
33573,19903
33582,19900
33590,19896
33598,19891
33605,19886
33612,19880
33618,19873
33624,19865
33628,19858
33632,19849
33635,19841
33637,19832
33639,19823
33639,19813
33639,19587
33639,19578
33637,19569
33635,19560
33632,19551
33628,19543
33624,19535
33618,19528
33612,19521
33605,19515
33598,19509
33590,19505
33582,19501
33573,19498
33564,19495
33555,19494
33546,19494
33359,19494
33350,19494
" /> 
<polyline style="fill-rule:evenodd;"
points="39444,6348
39435,6350
39426,6352
39417,6355
39409,6359
39401,6364
39394,6369
39387,6375
39381,6382
39375,6389
39371,6397
39367,6406
39364,6414
39362,6423
39360,6432
39360,6441
39360,6628
39360,6638
39362,6647
39364,6656
39367,6664
39371,6673
39375,6680
39381,6688
39387,6695
39394,6701
39401,6706
39409,6711
39417,6715
39426,6718
39435,6720
39444,6721
39453,6722
39680,6722
39689,6721
39698,6720
39707,6718
39715,6715
39724,6711
39732,6706
39739,6701
39746,6695
39752,6688
39757,6680
39762,6673
39766,6664
39769,6656
39771,6647
39773,6638
39773,6628
39773,6441
39773,6432
39771,6423
39769,6414
39766,6406
39762,6397
39757,6389
39752,6382
39746,6375
39739,6369
39732,6364
39724,6359
39715,6355
39707,6352
39698,6350
39689,6348
39680,6348
39453,6348
39444,6348
" /> 
<polyline style="fill-rule:evenodd;"
points="38755,6348
38746,6350
38737,6352
38728,6355
38720,6359
38712,6364
38705,6369
38698,6375
38692,6382
38687,6389
38682,6397
38678,6406
38675,6414
38673,6423
38671,6432
38671,6441
38671,6628
38671,6638
38673,6647
38675,6656
38678,6664
38682,6673
38687,6680
38692,6688
38698,6695
38705,6701
38712,6706
38720,6711
38728,6715
38737,6718
38746,6720
38755,6721
38764,6722
38991,6722
39000,6721
39009,6720
39018,6718
39026,6715
39035,6711
39043,6706
39050,6701
39057,6695
39063,6688
39068,6680
39073,6673
39077,6664
39080,6656
39082,6647
39084,6638
39084,6628
39084,6441
39084,6432
39082,6423
39080,6414
39077,6406
39073,6397
39068,6389
39063,6382
39057,6375
39050,6369
39043,6364
39035,6359
39026,6355
39018,6352
39009,6350
39000,6348
38991,6348
38764,6348
38755,6348
" /> 
<polyline style="fill-rule:evenodd;"
points="24176,19533
24167,19535
24158,19537
24150,19540
24141,19544
24134,19549
24126,19554
24119,19560
24113,19567
24108,19575
24103,19582
24099,19591
24096,19599
24094,19608
24092,19617
24092,19626
24092,19813
24092,19823
24094,19832
24096,19841
24099,19849
24103,19858
24108,19865
24113,19873
24119,19880
24126,19886
24134,19891
24141,19896
24150,19900
24158,19903
24167,19905
24176,19907
24186,19907
24412,19907
24421,19907
24430,19905
24439,19903
24448,19900
24456,19896
24464,19891
24471,19886
24478,19880
24484,19873
24490,19865
24494,19858
24498,19849
24501,19841
24504,19832
24505,19823
24505,19813
24505,19626
24505,19617
24504,19608
24501,19599
24498,19591
24494,19582
24490,19575
24484,19567
24478,19560
24471,19554
24464,19549
24456,19544
24448,19540
24439,19537
24430,19535
24421,19533
24412,19533
24186,19533
24176,19533
" /> 
<polyline style="fill-rule:evenodd;"
points="23487,19533
23478,19535
23469,19537
23461,19540
23452,19544
23445,19549
23437,19554
23430,19560
23424,19567
23419,19575
23414,19582
23410,19591
23407,19599
23405,19608
23403,19617
23403,19626
23403,19813
23403,19823
23405,19832
23407,19841
23410,19849
23414,19858
23419,19865
23424,19873
23430,19880
23437,19886
23445,19891
23452,19896
23461,19900
23469,19903
23478,19905
23487,19907
23497,19907
23723,19907
23732,19907
23741,19905
23750,19903
23759,19900
23767,19896
23775,19891
23782,19886
23789,19880
23795,19873
23801,19865
23805,19858
23809,19849
23812,19841
23815,19832
23816,19823
23816,19813
23816,19626
23816,19617
23815,19608
23812,19599
23809,19591
23805,19582
23801,19575
23795,19567
23789,19560
23782,19554
23775,19549
23767,19544
23759,19540
23750,19537
23741,19535
23732,19533
23723,19533
23497,19533
23487,19533
" /> 
<polyline style="fill-rule:evenodd;"
points="41509,20459
41500,20460
41491,20462
41482,20465
41474,20469
41466,20474
41459,20479
41452,20486
41446,20492
41440,20500
41436,20508
41432,20516
41429,20525
41426,20533
41425,20543
41425,20552
41425,20739
41425,20748
41426,20757
41429,20766
41432,20774
41436,20783
41440,20791
41446,20798
41452,20805
41459,20811
41466,20816
41474,20821
41482,20825
41491,20828
41500,20830
41509,20832
41518,20832
41745,20832
41754,20832
41763,20830
41772,20828
41780,20825
41789,20821
41797,20816
41804,20811
41811,20805
41817,20798
41822,20791
41827,20783
41831,20774
41834,20766
41836,20757
41838,20748
41838,20739
41838,20552
41838,20543
41836,20533
41834,20525
41831,20516
41827,20508
41822,20500
41817,20492
41811,20486
41804,20479
41797,20474
41789,20469
41780,20465
41772,20462
41763,20460
41754,20459
41745,20458
41518,20458
41509,20459
" /> 
<polyline style="fill-rule:evenodd;"
points="40820,20459
40811,20460
40802,20462
40793,20465
40785,20469
40777,20474
40770,20479
40763,20486
40757,20492
40751,20500
40747,20508
40743,20516
40740,20525
40738,20533
40736,20543
40736,20552
40736,20739
40736,20748
40738,20757
40740,20766
40743,20774
40747,20783
40751,20791
40757,20798
40763,20805
40770,20811
40777,20816
40785,20821
40793,20825
40802,20828
40811,20830
40820,20832
40829,20832
41056,20832
41065,20832
41074,20830
41083,20828
41091,20825
41100,20821
41108,20816
41115,20811
41122,20805
41128,20798
41133,20791
41138,20783
41142,20774
41145,20766
41147,20757
41149,20748
41149,20739
41149,20552
41149,20543
41147,20533
41145,20525
41142,20516
41138,20508
41133,20500
41128,20492
41122,20486
41115,20479
41108,20474
41100,20469
41091,20465
41083,20462
41074,20460
41065,20459
41056,20458
40829,20458
40820,20459
" /> 
<polyline style="fill-rule:evenodd;"
points="51927,11297
51927,10962
51592,10962
51592,11297
51927,11297
" /> 
</g>
<g style="fill:#000000; fill-opacity:1.0; 
stroke:#000000; stroke-width:275.591; stroke-opacity:1; 
stroke-linecap:round; stroke-linejoin:round;">
</g>
<g style="fill:#000000; fill-opacity:0.0; 
stroke:#000000; stroke-width:275.591; stroke-opacity:1; 
stroke-linecap:round; stroke-linejoin:round;">
<path d="M7803 17145
L6803 17145
" />
<path d="M7803 17145
L8803 17145
" />
<path d="M42507 12437
L41759 11688
" />
<path d="M42507 13125
L42507 12437
" />
<path d="M42734 13125
L42746 13137
" />
<path d="M42507 13125
L42734 13125
" />
<path d="M42746 13137
L43877 13137
" />
<path d="M44586 13846
L44586 17700
" />
<path d="M43877 13137
L44586 13846
" />
<path d="M39663 11000
L39515 10852
" />
<path d="M41759 11000
L39663 11000
" />
<path d="M39505 10842
L39515 10852
" />
<path d="M37248 10842
L39505 10842
" />
<path d="M39515 9811
L38476 8771
" />
<path d="M39515 10163
L39515 9811
" />
<path d="M36527 7869
L36330 7673
" />
<path d="M37625 8968
L36527 7869
" />
<path d="M38279 8968
L37625 8968
" />
<path d="M38476 8771
L38279 8968
" />
<path d="M30169 14610
L29169 14610
" />
<path d="M28531 13972
L29169 14610
" />
<path d="M28531 12929
L28531 13972
" />
<path d="M35445 12909
L35445 7869
" />
<path d="M28578 14610
L28460 14728
" />
<path d="M29169 14610
L28578 14610
" />
<path d="M28460 14728
L28460 15488
" />
<path d="M28460 15488
L28846 15874
" />
<path d="M35445 7869
L35641 7673
" />
<path d="M28846 15874
L32480 15874
" />
<path d="M32480 15874
L35445 12909
" />
<path d="M42281 13814
L41940 14155
" />
<path d="M42507 13814
L42281 13814
" />
<path d="M41940 14155
L41940 14574
" />
<path d="M41940 14574
L41157 15358
" />
<path d="M40047 15358
L39232 14543
" />
<path d="M41157 15358
L40047 15358
" />
<path d="M38566 21535
L36267 21535
" />
<path d="M40023 22992
L38566 21535
" />
<path d="M36267 21535
L34488 23314
" />
<path d="M34488 23314
L32889 23314
" />
<path d="M32889 23314
L32192 22618
" />
<path d="M32192 22618
L32192 19086
" />
<path d="M32192 19086
L35437 15842
" />
<path d="M35437 15842
L35437 14503
" />
<path d="M35437 14503
L36885 13055
" />
<path d="M36885 13055
L38570 13055
" />
<path d="M39232 13716
L39232 14543
" />
<path d="M38570 13055
L39232 13716
" />
<path d="M38476 6937
L38877 6535
" />
<path d="M38476 8082
L38476 6937
" />
<path d="M38250 8082
L35954 5787
" />
<path d="M38476 8082
L38250 8082
" />
<path d="M35954 5787
L34354 5787
" />
<path d="M31169 8972
L31169 14610
" />
<path d="M34354 5787
L31169 8972
" />
<path d="M40712 23218
L39994 23937
" />
<path d="M40712 22992
L40712 23218
" />
<path d="M38594 23937
L37649 22992
" />
<path d="M39994 23937
L38594 23937
" />
<path d="M40958 22992
L41001 22948
" />
<path d="M40712 22992
L40958 22992
" />
<path d="M41001 22948
L43948 22948
" />
<path d="M44279 22618
L44279 20389
" />
<path d="M43948 22948
L44279 22618
" />
<path d="M51759 11572
L47303 16029
" />
<path d="M51759 11129
L51759 11572
" />
<path d="M47303 17366
L44279 20389
" />
<path d="M47303 16029
L47303 17366
" />
<path d="M44161 11129
L39566 6535
" />
<path d="M51759 11129
L44161 11129
" />
<path d="M39456 19267
L39456 18720
" />
<path d="M39456 18720
L39523 18653
" />
<path d="M39523 18653
L40610 18653
" />
<path d="M40942 18986
L40942 20645
" />
<path d="M40610 18653
L40942 18986
" />
<path d="M36769 19267
L36740 19297
" />
<path d="M39456 19267
L36769 19267
" />
<path d="M40236 21688
L40145 21598
" />
<path d="M42539 21425
L42295 21669
" />
<path d="M40145 21598
L40145 19267
" />
<path d="M42295 21669
L41321 21669
" />
<path d="M42539 19059
L42539 21425
" />
<path d="M41321 21669
L41301 21688
" />
<path d="M41301 21688
L40236 21688
" />
<path d="M43228 18370
L42539 19059
" />
<path d="M43897 17700
L43228 18370
" />
<path d="M38464 15874
L38232 15641
" />
<path d="M40736 15874
L38464 15874
" />
<path d="M38232 15641
L38232 14543
" />
<path d="M43228 18370
L41870 17011
" />
<path d="M41870 17007
L40736 15874
" />
<path d="M41870 17011
L41870 17007
" />
<path d="M38232 14097
L38200 14066
" />
<path d="M38232 14543
L38232 14097
" />
<path d="M38200 14066
L37554 14066
" />
<path d="M37232 14388
L37232 14543
" />
<path d="M37554 14066
L37232 14388
" />
<path d="M30169 17610
L29397 18381
" />
<path d="M23610 19448
L23610 19720
" />
<path d="M24677 18381
L23610 19448
" />
<path d="M31169 17610
L30169 17610
" />
<path d="M26720 23273
L26720 21539
" />
<path d="M26720 21539
L27618 20641
" />
</g>
<g style="fill:#000000; fill-opacity:0.0; 
stroke:#000000; stroke-width:157.48; stroke-opacity:1; 
stroke-linecap:round; stroke-linejoin:round;">
<path d="M30220 20641
L31763 19098
" />
<path d="M27618 20641
L30220 20641
" />
<path d="M31763 19098
L31763 19059
" />
<path d="M31763 19059
L33003 17818
" />
<path d="M33003 17818
L33003 16799
" />
<path d="M33003 16799
L32877 16673
" />
<path d="M32877 16673
L28334 16673
" />
<path d="M27437 17570
L27437 18381
" />
<path d="M28334 16673
L27437 17570
" />
</g>
<g style="fill:#000000; fill-opacity:0.0; 
stroke:#000000; stroke-width:275.591; stroke-opacity:1; 
stroke-linecap:round; stroke-linejoin:round;">
<path d="M29397 18381
L27437 18381
" />
<path d="M27437 18381
L24677 18381
" />
<path d="M27375 19051
L27372 19047
" />
<path d="M27602 19051
L27375 19051
" />
<path d="M24972 19047
L24299 19720
" />
<path d="M27372 19047
L24972 19047
" />
<path d="M27842 12929
L27842 15047
" />
</g>
<g style="fill:#000000; fill-opacity:0.0; 
stroke:#000000; stroke-width:157.48; stroke-opacity:1; 
stroke-linecap:round; stroke-linejoin:round;">
<path d="M27842 15047
L27314 15047
" />
<path d="M27314 15047
L22716 19645
" />
<path d="M22716 19645
L22716 20228
" />
<path d="M22716 20228
L23291 20803
" />
<path d="M23291 20803
L23870 20803
" />
<path d="M24299 20374
L24299 19720
" />
<path d="M23870 20803
L24299 20374
" />
</g>
<g style="fill:#000000; fill-opacity:0.0; 
stroke:#000000; stroke-width:275.591; stroke-opacity:1; 
stroke-linecap:round; stroke-linejoin:round;">
<path d="M40232 17543
L40547 17858
" />
<path d="M41631 18498
L41631 20645
" />
<path d="M40992 17858
L41631 18498
" />
<path d="M43590 20875
L43574 20890
" />
<path d="M43590 20389
L43590 20875
" />
<path d="M43574 20890
L43574 21500
" />
<path d="M43574 21500
L42803 22271
" />
<path d="M42803 22271
L40129 22271
" />
<path d="M40129 22271
L38559 20700
" />
<path d="M38559 20700
L36066 20700
" />
<path d="M36066 20700
L34937 21830
" />
</g>
<g style="fill:#000000; fill-opacity:0.0; 
stroke:#000000; stroke-width:157.48; stroke-opacity:1; 
stroke-linecap:round; stroke-linejoin:round;">
<path d="M34937 21830
L34468 22299
" />
<path d="M34468 22299
L34468 22791
" />
<path d="M34468 22791
L34283 22976
" />
<path d="M34283 22976
L32968 22976
" />
<path d="M32968 22976
L32968 21232
" />
<path d="M32968 21232
L32700 20964
" />
<path d="M32700 20964
L32700 19086
" />
<path d="M32700 19086
L33688 18098
" />
<path d="M33688 18098
L34649 18098
" />
<path d="M34649 18098
L36106 16641
" />
<path d="M36106 16641
L38220 16641
" />
</g>
<g style="fill:#000000; fill-opacity:0.0; 
stroke:#000000; stroke-width:275.591; stroke-opacity:1; 
stroke-linecap:round; stroke-linejoin:round;">
<path d="M39330 16641
L38220 16641
" />
<path d="M39641 16952
L40669 16952
" />
<path d="M39641 16952
L39330 16641
" />
<path d="M40232 17543
L39641 16952
" />
<path d="M40748 17031
L40748 17858
" />
<path d="M40669 16952
L40748 17031
" />
<path d="M40547 17858
L40748 17858
" />
<path d="M40748 17858
L40992 17858
" />
<path d="M27828 19740
L27602 19740
" />
<path d="M32169 18055
L30484 19740
" />
<path d="M30484 19740
L27828 19740
" />
<path d="M32169 17610
L32169 18055
" />
<path d="M27173 19740
L25913 21000
" />
<path d="M27173 19740
L27602 19740
" />
<path d="M33807 20055
L33452 19700
" />
<path d="M33807 21832
L33807 20055
" />
<path d="M37167 18608
L36740 18608
" />
<path d="M38232 17543
L37167 18608
" />
<path d="M39232 17543
L38232 17543
" />
<path d="M33856 18608
L33452 19011
" />
<path d="M36740 18608
L33856 18608
" />
<path d="M23724 17831
L22086 19469
" />
<path d="M23724 17385
L23724 17831
" />
<path d="M22086 19469
L22086 22169
" />
<path d="M23879 23962
L26720 23962
" />
<path d="M22086 22169
L23879 23962
" />
<path d="M36960 22992
L35755 22992
" />
<path d="M34785 23962
L26720 23962
" />
<path d="M35755 22992
L34785 23962
" />
<path d="M6237 20292
L7260 20292
" />
<path d="M5803 17145
L5803 19858
" />
<path d="M5803 19858
L6237 20292
" />
<path d="M22074 16035
L23929 16035
" />
<path d="M23929 16035
L26251 13712
" />
<path d="M26251 13712
L26251 9661
" />
<path d="M26251 9661
L31251 4661
" />
<path d="M31251 4661
L41629 4661
" />
<path d="M41629 4661
L41645 4677
" />
<path d="M46031 4677
L50362 9007
" />
<path d="M41645 4677
L46031 4677
" />
<path d="M50362 9007
L53901 9007
" />
<path d="M53901 9007
L55507 10614
" />
<path d="M55507 10614
L55507 20011
" />
<path d="M55507 20011
L49106 26413
" />
<path d="M25829 26413
L25813 26397
" />
<path d="M49106 26413
L25829 26413
" />
<path d="M25813 26397
L22259 26397
" />
<path d="M16154 20292
L7260 20292
" />
<path d="M22259 26397
L16154 20292
" />
<path d="M20278 17385
L20223 17330
" />
<path d="M20724 17385
L20278 17385
" />
<path d="M20223 17330
L20153 17330
" />
<path d="M20153 17330
L19795 16972
" />
<path d="M19795 16972
L19795 16787
" />
<path d="M19822 16814
L21295 16814
" />
<path d="M19795 16787
L19822 16814
" />
<path d="M21295 16814
L22074 16035
" />
<path d="M8803 14145
L13503 9444
" />
<path d="M13503 9444
L21389 9444
" />
<path d="M21389 9444
L23003 11059
" />
<path d="M23003 11059
L23003 11177
" />
<path d="M23724 11897
L23724 14385
" />
<path d="M23003 11177
L23724 11897
" />
<path d="M8681 14023
L8803 14145
" />
<path d="M8681 10468
L8681 14023
" />
<path d="M2370 11303
L5212 14145
" />
<path d="M5212 14145
L5803 14145
" />
<path d="M2370 9799
L2370 11303
" />
<path d="M15389 13775
L15389 14001
" />
<path d="M15389 13775
L15389 14401
" />
<path d="M15389 14401
L16153 15165
" />
<path d="M16153 15165
L14370 16948
" />
<path d="M14370 16948
L10405 16948
" />
<path d="M10405 16948
L9354 15897
" />
<path d="M5803 14736
L5803 14145
" />
<path d="M6964 15897
L5803 14736
" />
<path d="M9354 15897
L6964 15897
" />
<path d="M17625 13783
L17464 13783
" />
<path d="M19732 11677
L17625 13783
" />
<path d="M6803 13700
L6795 13692
" />
<path d="M6803 13700
L6803 14145
" />
<path d="M7614 14956
L6803 14145
" />
<path d="M14435 14956
L7614 14956
" />
<path d="M14435 14267
L14435 14956
" />
<path d="M14700 14001
L14435 14267
" />
<path d="M14700 13775
L14700 14001
" />
<path d="M17238 13783
L15667 12212
" />
<path d="M17464 13783
L17238 13783
" />
<path d="M15667 12212
L14803 12212
" />
<path d="M14700 12314
L14700 13775
" />
<path d="M14803 12212
L14700 12314
" />
<path d="M20421 14082
L20724 14385
" />
<path d="M20421 11677
L20421 14082
" />
<path d="M21724 14385
L20724 14385
" />
<path d="M17464 14718
L18822 16076
" />
<path d="M17464 14472
L17464 14718
" />
<path d="M21724 17385
L22724 17385
" />
<path d="M18822 16076
L18822 17318
" />
<path d="M18822 17318
L19960 18456
" />
<path d="M20653 18456
L20673 18437
" />
<path d="M19960 18456
L20653 18456
" />
<path d="M20673 18437
L21724 17385
" />
</g>
<g style="fill:#000000; fill-opacity:1.0; 
stroke:#000000; stroke-width:100; stroke-opacity:1; 
stroke-linecap:round; stroke-linejoin:round;">
<polyline style="fill-rule:evenodd;"
points="50,29950
60950,29950
60950,10614
55903,10614
55895,10652
55895,19973
55903,20011
55873,20163
55809,20259
55809,20259
55787,20291
55755,20313
49407,26660
49385,26692
49353,26714
49257,26778
49106,26808
49068,26801
25867,26801
25829,26808
25791,26801
25791,26801
25712,26785
22298,26785
22259,26793
22221,26785
22221,26785
22108,26762
21980,26677
21958,26644
15994,20680
7912,20680
7912,22081
4988,22081
4988,20577
5966,20577
5957,20572
5936,20539
5555,20159
5523,20137
5437,20009
5415,19896
5415,19896
5407,19858
5415,19820
5415,17566
5395,17552
5270,17366
5227,17145
5270,16925
5395,16738
5582,16613
5747,16580
5858,16580
6023,16613
6210,16738
6303,16877
6395,16738
6582,16613
6747,16580
6858,16580
7023,16613
7210,16738
7223,16757
7382,16757
7395,16738
7582,16613
7747,16580
7858,16580
8023,16613
8210,16738
8223,16757
8382,16757
8395,16738
8582,16613
8747,16580
8858,16580
9023,16613
9210,16738
9335,16925
9379,17145
9335,17366
9210,17552
9023,17677
8858,17710
8747,17710
8582,17677
8395,17552
8382,17533
8223,17533
8210,17552
8023,17677
7858,17710
7747,17710
7582,17677
7395,17552
7382,17533
7223,17533
7210,17552
7023,17677
6858,17710
6747,17710
6582,17677
6395,17552
6303,17414
6210,17552
6190,17566
6190,19697
6398,19904
6972,19904
6995,19889
7092,19870
7427,19870
7524,19889
7547,19904
16116,19904
16154,19897
16192,19904
16192,19904
16306,19927
16402,19991
16402,19991
16434,20013
16456,20045
22420,26009
25775,26009
25813,26002
25852,26009
25931,26025
48945,26025
51866,23104
41169,23104
41169,23228
41131,23320
41060,23391
40969,23429
40825,23429
40762,23366
40762,23042
41106,23042
41169,23104
51866,23104
54468,20502
44736,20502
44736,20626
44698,20718
44627,20788
44535,20826
44392,20826
44329,20764
44329,20439
44673,20439
44736,20502
54468,20502
54818,20153
44736,20153
44736,20277
44673,20339
44329,20339
44329,20015
44392,19952
44535,19952
44627,19990
44698,20061
44736,20153
54818,20153
55120,19851
55120,11242
52177,11242
52177,11346
52139,11438
52068,11509
51976,11547
51872,11547
51809,11484
51809,11179
51709,11179
51709,11484
51647,11547
51542,11547
51450,11509
51380,11438
51342,11346
51342,11242
51405,11179
51709,11179
51809,11179
52114,11179
52177,11242
55120,11242
55120,10912
52177,10912
52177,11017
52114,11079
51809,11079
51809,10775
51709,10775
51709,11079
51405,11079
51342,11017
51342,10912
51380,10820
51450,10750
51542,10712
51647,10712
51709,10775
51809,10775
51872,10712
51976,10712
52068,10750
52139,10820
52177,10912
55120,10912
55120,10774
53740,9395
50400,9395
50362,9403
50324,9395
50324,9395
50210,9373
50082,9287
50060,9255
47453,6647
40023,6647
40023,6772
39985,6864
39915,6934
39823,6972
39679,6972
39616,6909
39616,6585
39961,6585
40023,6647
47453,6647
47104,6298
40023,6298
40023,6422
39961,6485
39616,6485
39616,6160
39679,6098
39823,6098
39915,6136
39985,6206
40023,6298
47104,6298
45870,5064
41683,5064
41645,5072
41607,5064
41607,5064
41528,5049
31412,5049
26639,9822
26639,13674
26647,13712
26639,13750
26639,13750
26625,13821
26617,13863
26594,13898
26531,13992
26499,14013
24230,16282
24208,16315
24176,16336
24176,16336
24101,16386
24080,16400
23967,16423
23967,16423
23929,16430
23890,16423
22235,16423
21828,16830
21944,16853
22131,16978
22144,16998
22304,16998
22317,16978
22503,16853
22668,16820
22780,16820
22944,16853
23131,16978
23224,17117
23317,16978
23503,16853
23668,16820
23780,16820
23944,16853
24131,16978
24256,17165
24300,17385
24256,17606
24187,17710
27059,14837
27077,14810
27186,14737
27282,14718
27282,14718
27314,14712
27347,14718
27454,14718
27454,13226
27407,13155
27380,13022
27380,12835
27407,12702
27482,12589
27596,12513
27729,12487
27955,12487
28089,12513
28187,12579
28284,12513
28418,12487
28644,12487
28778,12513
28891,12589
28966,12702
28993,12835
28993,13022
28966,13155
28919,13226
28919,13811
29147,14040
29484,14040
29581,14059
29664,14115
29719,14197
29724,14222
29748,14222
29761,14202
29948,14078
30113,14045
30224,14045
30389,14078
30576,14202
30669,14341
30761,14202
30781,14189
30781,9010
30773,8972
30781,8934
30781,8934
30803,8821
30837,8771
30868,8725
30868,8725
30889,8692
30922,8671
34053,5540
34074,5507
34203,5422
34316,5399
34316,5399
34354,5392
34392,5399
35916,5399
35954,5392
35992,5399
35992,5399
36106,5422
36234,5507
36255,5540
38088,7372
38088,6975
38080,6937
38088,6898
38088,6898
38111,6785
38126,6762
38175,6689
38175,6689
38196,6657
38229,6635
38416,6448
38416,6441
38442,6308
38518,6195
38631,6120
38764,6093
38991,6093
39124,6120
39190,6164
39218,6136
39310,6098
39454,6098
39516,6160
39516,6485
39509,6485
39509,6585
39516,6585
39516,6909
39454,6972
39310,6972
39218,6934
39190,6906
39124,6950
38991,6977
38984,6977
38864,7097
38864,7794
38891,7836
38918,7969
38918,8195
38891,8329
38826,8427
38891,8525
38918,8658
38918,8665
39762,9509
39795,9531
39816,9563
39816,9563
39881,9659
39911,9811
39903,9849
39903,9875
39931,9916
39957,10050
39957,10276
39931,10409
39865,10507
39931,10605
39932,10612
41462,10612
41533,10564
41666,10538
41853,10538
41986,10564
42099,10640
42175,10753
42201,10886
42201,11113
42175,11246
42109,11344
42175,11442
42201,11575
42201,11582
42755,12135
42787,12157
42809,12189
42809,12189
42873,12285
42903,12437
42895,12475
42895,12750
43839,12750
43877,12742
43916,12750
43916,12750
44029,12772
44157,12858
44179,12890
44833,13545
44866,13566
44887,13599
44904,13624
44951,13695
44974,13808
44974,13808
44982,13846
44974,13884
44974,17403
45021,17473
45048,17607
45048,17794
45021,17927
44946,18040
44833,18116
44699,18142
44473,18142
44340,18116
44242,18050
44144,18116
44010,18142
44004,18142
43529,18617
43507,18649
43475,18671
42927,19219
42927,21387
42934,21425
42904,21576
42840,21672
42840,21672
42818,21704
42786,21726
42629,21883
42642,21883
43187,21339
43187,20929
43179,20890
43196,20803
43202,20773
43202,20687
43155,20616
43128,20483
43128,20296
43155,20162
43231,20049
43344,19974
43477,19947
43703,19947
43837,19974
43903,20018
43931,19990
44023,19952
44167,19952
44229,20015
44229,20339
44221,20339
44221,20439
44229,20439
44229,20764
44167,20826
44023,20826
43978,20808
43978,20836
43985,20875
43962,20992
43962,21461
43970,21500
43940,21651
43876,21747
43876,21747
43854,21779
43822,21801
43104,22518
43082,22551
43050,22572
43050,22572
42983,22617
42954,22636
42841,22659
42841,22659
42803,22667
42764,22659
41127,22659
41131,22663
41169,22755
41169,22879
41106,22942
40762,22942
40762,22934
40662,22934
40662,22942
40654,22942
40654,23042
40662,23042
40662,23366
40600,23429
40456,23429
40364,23391
40336,23363
40270,23407
40136,23434
39910,23434
39777,23407
39664,23331
39588,23218
39565,23104
38106,23104
38106,23228
38068,23320
37997,23391
37906,23429
37762,23429
37699,23366
37699,23042
38043,23042
38106,23104
39565,23104
39562,23085
39562,23078
39238,22755
38106,22755
38106,22879
38043,22942
37699,22942
37699,22617
37762,22555
37906,22555
37997,22593
38068,22663
38106,22755
39238,22755
38406,21923
36428,21923
35754,22596
35755,22596
35794,22604
36672,22604
36714,22576
36847,22550
37073,22550
37207,22576
37273,22621
37301,22593
37393,22555
37537,22555
37599,22617
37599,22942
37591,22942
37591,23042
37599,23042
37599,23366
37537,23429
37393,23429
37301,23391
37273,23363
37207,23407
37073,23434
36847,23434
36714,23407
36672,23379
35916,23379
35086,24209
35065,24242
34936,24327
34823,24350
34823,24350
34785,24357
34747,24350
27018,24350
26947,24397
26813,24424
26626,24424
26493,24397
26422,24350
23918,24350
23879,24357
23841,24350
23841,24350
23728,24327
23600,24242
23578,24209
21839,22470
21807,22448
21785,22416
21785,22416
21721,22320
21716,22294
21698,22207
21698,22207
21691,22169
21698,22131
21698,19507
21691,19469
21698,19430
21698,19430
21721,19317
21807,19189
21839,19167
23275,17731
23224,17654
23131,17793
22944,17918
22780,17950
22668,17950
22503,17918
22317,17793
22304,17773
22144,17773
22131,17793
21944,17918
21780,17950
21707,17950
20954,18703
20933,18736
20804,18821
20691,18844
20691,18844
20653,18852
20615,18844
19998,18844
19960,18852
19922,18844
19922,18844
19809,18821
19681,18736
19659,18703
18575,17620
18543,17598
18457,17470
18435,17357
18435,17357
18427,17318
18435,17280
18435,16237
17217,15019
17184,14998
17163,14965
17163,14965
17099,14869
17099,14869
17077,14761
17049,14718
17022,14585
17022,14359
17049,14225
17099,14151
17086,14148
16958,14063
16936,14030
15506,12600
15088,12600
15088,13396
15143,13360
15276,13333
15502,13333
15636,13360
15749,13435
15824,13548
15851,13682
15851,13869
15824,14002
15777,14073
15777,14240
16400,14864
16433,14885
16454,14918
16518,15014
16548,15165
16518,15316
16433,15444
16400,15466
14671,17196
14649,17228
14521,17314
14408,17336
14408,17336
14370,17344
14331,17336
10443,17336
10405,17344
10367,17336
10367,17336
10254,17314
10125,17228
10104,17196
9193,16285
7002,16285
6964,16293
6926,16285
6926,16285
6813,16262
6684,16177
6663,16144
5555,15037
5523,15015
5501,14983
5501,14983
5437,14887
5421,14805
5415,14774
5415,14774
5407,14736
5414,14700
5390,14696
5307,14640
5252,14558
5247,14534
5212,14541
5174,14533
5174,14533
5061,14510
4933,14425
4911,14392
2122,11604
2090,11582
2068,11550
2068,11550
2004,11454
1995,11409
1982,11341
1982,11341
1974,11303
1982,11264
1982,10086
1967,10064
1947,9966
1947,9631
1967,9534
2022,9451
2105,9396
2202,9376
2537,9376
2634,9396
2717,9451
2772,9534
2792,9631
2792,9966
2772,10064
2757,10086
2757,11142
5291,13675
5307,13650
5390,13595
5488,13575
6118,13575
6215,13595
6298,13650
6353,13733
6364,13785
6395,13738
6407,13730
6399,13692
6429,13541
6515,13412
6643,13327
6795,13296
6946,13327
7042,13391
7050,13399
7082,13420
7168,13548
7190,13662
7190,13662
7198,13700
7193,13726
7210,13738
7311,13889
7349,13809
7512,13661
7665,13597
7753,13645
7753,14095
7745,14095
7745,14195
7753,14195
7753,14203
7853,14203
7853,14195
7861,14195
7861,14095
7853,14095
7853,13645
7940,13597
8093,13661
8256,13809
8293,13886
8293,12288
6538,12288
6538,11099
8293,11099
8293,10755
8278,10733
8258,10635
8258,10301
8278,10203
8333,10120
8416,10065
8513,10046
8848,10046
8945,10065
9028,10120
9083,10203
9103,10301
9103,10635
9083,10733
9068,10755
9068,13331
13202,9197
13224,9165
13352,9079
13465,9057
13465,9057
13503,9049
13542,9057
21351,9057
21389,9049
21427,9057
21427,9057
21541,9079
21636,9143
21636,9143
21669,9165
21690,9197
23251,10757
23283,10779
23305,10811
23332,10852
23369,10907
23390,11015
23971,11596
24003,11618
24089,11746
24112,11859
24112,11859
24119,11897
24112,11935
24112,13965
24131,13978
24256,14165
24300,14385
24256,14606
24131,14793
23944,14918
23780,14950
23668,14950
23503,14918
23317,14793
23224,14654
23131,14793
22944,14918
22780,14950
22668,14950
22503,14918
22317,14793
22224,14654
22131,14793
21944,14918
21780,14950
21668,14950
21503,14918
21317,14793
21304,14773
21279,14773
21274,14798
21219,14881
21136,14936
21039,14955
20409,14955
20311,14936
20229,14881
20173,14798
20154,14700
20154,14370
20141,14362
20055,14233
20033,14120
20033,14120
20025,14082
20033,14044
20033,12056
19978,12092
19845,12119
19838,12119
17927,14030
17905,14063
17873,14084
17873,14084
17819,14120
17814,14127
17879,14225
17906,14359
17906,14585
17902,14607
19070,15775
19102,15797
19124,15829
19163,15888
19188,15925
19210,16038
19210,16038
19218,16076
19210,16114
19210,17158
20121,18068
20492,18068
20620,17941
20503,17918
20317,17793
20305,17775
20278,17781
20240,17773
20240,17773
20127,17751
20063,17708
20002,17696
19873,17610
19852,17577
19548,17273
19515,17252
19429,17123
19407,17010
19407,17010
19399,16972
19407,16934
19407,16825
19399,16787
19407,16749
19407,16749
19429,16636
19515,16507
19643,16422
19795,16392
19946,16422
19954,16427
21134,16427
21773,15788
21795,15755
21923,15670
22036,15647
22036,15647
22074,15640
22112,15647
23768,15647
25864,13551
25864,9699
25856,9661
25864,9623
25864,9623
25886,9510
25972,9381
26004,9360
27750,7614
3723,7614
3723,9118
1418,9118
1418,7614
3723,7614
27750,7614
30950,4414
30972,4381
31100,4296
31104,4295
18442,4295
18442,5799
9557,5799
9557,4295
18442,4295
31104,4295
31213,4273
31213,4273
31251,4266
31290,4273
41591,4273
41629,4266
41668,4273
41747,4289
45993,4289
46031,4281
46069,4289
46069,4289
46182,4311
46311,4397
46332,4429
50522,8620
53863,8620
53901,8612
53939,8620
53939,8620
54052,8642
54181,8728
54202,8760
55755,10312
55787,10334
55809,10366
55857,10439
55873,10462
55895,10575
55895,10575
55903,10614
60950,10614
60950,3229
39868,3229
39868,3563
39849,3661
39793,3744
39711,3799
39613,3818
39278,3818
39181,3799
39098,3744
39043,3661
39024,3563
39024,3229
39043,3131
39098,3049
39181,2993
39278,2974
39613,2974
39711,2993
39793,3049
39849,3131
39868,3229
60950,3229
60950,50
50,50
50,29950
" /> 
<polyline style="fill-rule:evenodd;"
points="24760,19807
24760,19813
24734,19947
24658,20060
24627,20080
24627,20341
24634,20374
24627,20406
24627,20406
24608,20502
24536,20611
24508,20629
24125,21012
24107,21040
24028,21092
23998,21112
23870,21138
23837,21131
23323,21131
23291,21138
23258,21131
23258,21131
23163,21112
23054,21040
23035,21012
22506,20483
22479,20465
22474,20457
22474,22008
24040,23574
26341,23574
26305,23520
26278,23386
26278,23160
26305,23027
26332,22985
26332,21577
26325,21539
26332,21501
26332,21501
26355,21388
26364,21374
26419,21292
26419,21292
26440,21259
26473,21238
27370,20340
27466,20276
27618,20246
27769,20276
27824,20312
30084,20312
30269,20127
27899,20127
27829,20175
27695,20201
27508,20201
27375,20175
27322,20139
26374,21086
26374,21093
26348,21226
26272,21339
26159,21415
26026,21441
25800,21441
25666,21415
25600,21371
25572,21398
25480,21437
25336,21437
25274,21374
25274,21050
25174,21050
25174,21374
25111,21437
24967,21437
24876,21398
24805,21328
24767,21236
24767,21112
24830,21050
25174,21050
25274,21050
25282,21050
25282,20950
25274,20950
25274,20625
25174,20625
25174,20950
24830,20950
24767,20887
24767,20763
24805,20671
24876,20601
24967,20562
25111,20562
25174,20625
25274,20625
25336,20562
25480,20562
25572,20601
25600,20628
25666,20584
25800,20558
25806,20558
26926,19438
26931,19435
25133,19435
24760,19807
" /> 
<polyline style="fill-rule:evenodd;"
points="30475,20851
30457,20878
30348,20951
30252,20970
30252,20970
30220,20976
30187,20970
27837,20970
27108,21700
27108,22985
27135,23027
27162,23160
27162,23386
27135,23520
27099,23574
32596,23574
32588,23562
31945,22919
31913,22897
31891,22865
31891,22865
31885,22856
28425,22856
28425,22961
28387,23053
28316,23123
28224,23161
28120,23161
28057,23098
28057,22794
27957,22794
27957,23098
27895,23161
27790,23161
27698,23123
27628,23053
27590,22961
27590,22856
27653,22794
27957,22794
28057,22794
28362,22794
28425,22856
31885,22856
31827,22769
31821,22739
31805,22656
31805,22656
31797,22618
31805,22579
31805,22527
28425,22527
28425,22631
28362,22694
28057,22694
28057,22389
27957,22389
27957,22694
27653,22694
27590,22631
27590,22527
27628,22435
27698,22364
27790,22326
27895,22326
27957,22389
28057,22389
28120,22326
28224,22326
28316,22364
28387,22435
28425,22527
31805,22527
31805,19521
30475,20851
" /> 
<polyline style="fill-rule:evenodd;"
points="33029,20828
33178,20977
33205,20995
33224,21022
33278,21104
33303,21232
33297,21264
33297,22647
33370,22647
33370,22634
33432,22571
33757,22571
33757,22579
33857,22579
33857,22571
33864,22571
33864,22471
33857,22471
33857,22463
33757,22463
33757,22471
33432,22471
33370,22409
33370,22265
33408,22173
33435,22145
33391,22079
33365,21945
33365,21719
33391,21586
33419,21544
33419,20215
33365,20162
33359,20162
33225,20135
33112,20060
33037,19947
33029,19907
33029,20828
" /> 
</g>
<g style="fill:#FFFFFF; fill-opacity:1.0; 
stroke:#FFFFFF; stroke-width:100; stroke-opacity:1; 
stroke-linecap:round; stroke-linejoin:round;">
</g>
<g style="fill:#FFFFFF; fill-opacity:1.0; 
stroke:#FFFFFF; stroke-width:0; stroke-opacity:1; 
stroke-linecap:round; stroke-linejoin:round;">
<circle cx="5803.15" cy="14145.7" r="157.48" /> 
</g>
<g style="fill:#FFFFFF; fill-opacity:1.0; 
stroke:#FFFFFF; stroke-width:39.3701; stroke-opacity:1; 
stroke-linecap:round; stroke-linejoin:round;">
</g>
<g style="fill:#FFFFFF; fill-opacity:1.0; 
stroke:#FFFFFF; stroke-width:0; stroke-opacity:1; 
stroke-linecap:round; stroke-linejoin:round;">
<circle cx="8803.15" cy="17145.7" r="157.48" /> 
</g>
<g style="fill:#FFFFFF; fill-opacity:1.0; 
stroke:#FFFFFF; stroke-width:39.3701; stroke-opacity:1; 
stroke-linecap:round; stroke-linejoin:round;">
</g>
<g style="fill:#FFFFFF; fill-opacity:1.0; 
stroke:#FFFFFF; stroke-width:0; stroke-opacity:1; 
stroke-linecap:round; stroke-linejoin:round;">
<circle cx="6803.15" cy="14145.7" r="157.48" /> 
</g>
<g style="fill:#FFFFFF; fill-opacity:1.0; 
stroke:#FFFFFF; stroke-width:39.3701; stroke-opacity:1; 
stroke-linecap:round; stroke-linejoin:round;">
</g>
<g style="fill:#FFFFFF; fill-opacity:1.0; 
stroke:#FFFFFF; stroke-width:0; stroke-opacity:1; 
stroke-linecap:round; stroke-linejoin:round;">
<circle cx="7803.15" cy="17145.7" r="157.48" /> 
</g>
<g style="fill:#FFFFFF; fill-opacity:1.0; 
stroke:#FFFFFF; stroke-width:39.3701; stroke-opacity:1; 
stroke-linecap:round; stroke-linejoin:round;">
</g>
<g style="fill:#FFFFFF; fill-opacity:1.0; 
stroke:#FFFFFF; stroke-width:0; stroke-opacity:1; 
stroke-linecap:round; stroke-linejoin:round;">
<circle cx="7803.15" cy="14145.7" r="157.48" /> 
</g>
<g style="fill:#FFFFFF; fill-opacity:1.0; 
stroke:#FFFFFF; stroke-width:39.3701; stroke-opacity:1; 
stroke-linecap:round; stroke-linejoin:round;">
</g>
<g style="fill:#FFFFFF; fill-opacity:1.0; 
stroke:#FFFFFF; stroke-width:0; stroke-opacity:1; 
stroke-linecap:round; stroke-linejoin:round;">
<circle cx="6803.15" cy="17145.7" r="157.48" /> 
</g>
<g style="fill:#FFFFFF; fill-opacity:1.0; 
stroke:#FFFFFF; stroke-width:39.3701; stroke-opacity:1; 
stroke-linecap:round; stroke-linejoin:round;">
</g>
<g style="fill:#FFFFFF; fill-opacity:1.0; 
stroke:#FFFFFF; stroke-width:0; stroke-opacity:1; 
stroke-linecap:round; stroke-linejoin:round;">
<circle cx="8803.15" cy="14145.7" r="157.48" /> 
</g>
<g style="fill:#FFFFFF; fill-opacity:1.0; 
stroke:#FFFFFF; stroke-width:39.3701; stroke-opacity:1; 
stroke-linecap:round; stroke-linejoin:round;">
</g>
<g style="fill:#FFFFFF; fill-opacity:1.0; 
stroke:#FFFFFF; stroke-width:0; stroke-opacity:1; 
stroke-linecap:round; stroke-linejoin:round;">
<circle cx="5803.15" cy="17145.7" r="157.48" /> 
</g>
<g style="fill:#FFFFFF; fill-opacity:1.0; 
stroke:#FFFFFF; stroke-width:39.3701; stroke-opacity:1; 
stroke-linecap:round; stroke-linejoin:round;">
</g>
<g style="fill:#FFFFFF; fill-opacity:1.0; 
stroke:#FFFFFF; stroke-width:0; stroke-opacity:1; 
stroke-linecap:round; stroke-linejoin:round;">
<circle cx="37232.3" cy="17543.3" r="157.48" /> 
</g>
<g style="fill:#FFFFFF; fill-opacity:1.0; 
stroke:#FFFFFF; stroke-width:39.3701; stroke-opacity:1; 
stroke-linecap:round; stroke-linejoin:round;">
</g>
<g style="fill:#FFFFFF; fill-opacity:1.0; 
stroke:#FFFFFF; stroke-width:0; stroke-opacity:1; 
stroke-linecap:round; stroke-linejoin:round;">
<circle cx="40232.3" cy="14543.3" r="157.48" /> 
</g>
<g style="fill:#FFFFFF; fill-opacity:1.0; 
stroke:#FFFFFF; stroke-width:39.3701; stroke-opacity:1; 
stroke-linecap:round; stroke-linejoin:round;">
</g>
<g style="fill:#FFFFFF; fill-opacity:1.0; 
stroke:#FFFFFF; stroke-width:0; stroke-opacity:1; 
stroke-linecap:round; stroke-linejoin:round;">
<circle cx="38232.3" cy="17543.3" r="157.48" /> 
</g>
<g style="fill:#FFFFFF; fill-opacity:1.0; 
stroke:#FFFFFF; stroke-width:39.3701; stroke-opacity:1; 
stroke-linecap:round; stroke-linejoin:round;">
</g>
<g style="fill:#FFFFFF; fill-opacity:1.0; 
stroke:#FFFFFF; stroke-width:0; stroke-opacity:1; 
stroke-linecap:round; stroke-linejoin:round;">
<circle cx="39232.3" cy="14543.3" r="157.48" /> 
</g>
<g style="fill:#FFFFFF; fill-opacity:1.0; 
stroke:#FFFFFF; stroke-width:39.3701; stroke-opacity:1; 
stroke-linecap:round; stroke-linejoin:round;">
</g>
<g style="fill:#FFFFFF; fill-opacity:1.0; 
stroke:#FFFFFF; stroke-width:0; stroke-opacity:1; 
stroke-linecap:round; stroke-linejoin:round;">
<circle cx="39232.3" cy="17543.3" r="157.48" /> 
</g>
<g style="fill:#FFFFFF; fill-opacity:1.0; 
stroke:#FFFFFF; stroke-width:39.3701; stroke-opacity:1; 
stroke-linecap:round; stroke-linejoin:round;">
</g>
<g style="fill:#FFFFFF; fill-opacity:1.0; 
stroke:#FFFFFF; stroke-width:0; stroke-opacity:1; 
stroke-linecap:round; stroke-linejoin:round;">
<circle cx="38232.3" cy="14543.3" r="157.48" /> 
</g>
<g style="fill:#FFFFFF; fill-opacity:1.0; 
stroke:#FFFFFF; stroke-width:39.3701; stroke-opacity:1; 
stroke-linecap:round; stroke-linejoin:round;">
</g>
<g style="fill:#FFFFFF; fill-opacity:1.0; 
stroke:#FFFFFF; stroke-width:0; stroke-opacity:1; 
stroke-linecap:round; stroke-linejoin:round;">
<circle cx="40232.3" cy="17543.3" r="157.48" /> 
</g>
<g style="fill:#FFFFFF; fill-opacity:1.0; 
stroke:#FFFFFF; stroke-width:39.3701; stroke-opacity:1; 
stroke-linecap:round; stroke-linejoin:round;">
</g>
<g style="fill:#FFFFFF; fill-opacity:1.0; 
stroke:#FFFFFF; stroke-width:0; stroke-opacity:1; 
stroke-linecap:round; stroke-linejoin:round;">
<circle cx="37232.3" cy="14543.3" r="157.48" /> 
</g>
<g style="fill:#FFFFFF; fill-opacity:1.0; 
stroke:#FFFFFF; stroke-width:39.3701; stroke-opacity:1; 
stroke-linecap:round; stroke-linejoin:round;">
</g>
<g style="fill:#FFFFFF; fill-opacity:1.0; 
stroke:#FFFFFF; stroke-width:0; stroke-opacity:1; 
stroke-linecap:round; stroke-linejoin:round;">
<circle cx="28007.9" cy="22744.1" r="98.4252" /> 
</g>
<g style="fill:#FFFFFF; fill-opacity:1.0; 
stroke:#FFFFFF; stroke-width:39.3701; stroke-opacity:1; 
stroke-linecap:round; stroke-linejoin:round;">
</g>
<g style="fill:#FFFFFF; fill-opacity:1.0; 
stroke:#FFFFFF; stroke-width:0; stroke-opacity:1; 
stroke-linecap:round; stroke-linejoin:round;">
<circle cx="39446.2" cy="3396.6" r="98.4252" /> 
</g>
<g style="fill:#FFFFFF; fill-opacity:1.0; 
stroke:#FFFFFF; stroke-width:39.3701; stroke-opacity:1; 
stroke-linecap:round; stroke-linejoin:round;">
</g>
<g style="fill:#FFFFFF; fill-opacity:1.0; 
stroke:#FFFFFF; stroke-width:0; stroke-opacity:1; 
stroke-linecap:round; stroke-linejoin:round;">
<circle cx="29169.3" cy="17610.2" r="157.48" /> 
</g>
<g style="fill:#FFFFFF; fill-opacity:1.0; 
stroke:#FFFFFF; stroke-width:39.3701; stroke-opacity:1; 
stroke-linecap:round; stroke-linejoin:round;">
</g>
<g style="fill:#FFFFFF; fill-opacity:1.0; 
stroke:#FFFFFF; stroke-width:0; stroke-opacity:1; 
stroke-linecap:round; stroke-linejoin:round;">
<circle cx="32169.3" cy="14610.2" r="157.48" /> 
</g>
<g style="fill:#FFFFFF; fill-opacity:1.0; 
stroke:#FFFFFF; stroke-width:39.3701; stroke-opacity:1; 
stroke-linecap:round; stroke-linejoin:round;">
</g>
<g style="fill:#FFFFFF; fill-opacity:1.0; 
stroke:#FFFFFF; stroke-width:0; stroke-opacity:1; 
stroke-linecap:round; stroke-linejoin:round;">
<circle cx="30169.3" cy="17610.2" r="157.48" /> 
</g>
<g style="fill:#FFFFFF; fill-opacity:1.0; 
stroke:#FFFFFF; stroke-width:39.3701; stroke-opacity:1; 
stroke-linecap:round; stroke-linejoin:round;">
</g>
<g style="fill:#FFFFFF; fill-opacity:1.0; 
stroke:#FFFFFF; stroke-width:0; stroke-opacity:1; 
stroke-linecap:round; stroke-linejoin:round;">
<circle cx="31169.3" cy="14610.2" r="157.48" /> 
</g>
<g style="fill:#FFFFFF; fill-opacity:1.0; 
stroke:#FFFFFF; stroke-width:39.3701; stroke-opacity:1; 
stroke-linecap:round; stroke-linejoin:round;">
</g>
<g style="fill:#FFFFFF; fill-opacity:1.0; 
stroke:#FFFFFF; stroke-width:0; stroke-opacity:1; 
stroke-linecap:round; stroke-linejoin:round;">
<circle cx="31169.3" cy="17610.2" r="157.48" /> 
</g>
<g style="fill:#FFFFFF; fill-opacity:1.0; 
stroke:#FFFFFF; stroke-width:39.3701; stroke-opacity:1; 
stroke-linecap:round; stroke-linejoin:round;">
</g>
<g style="fill:#FFFFFF; fill-opacity:1.0; 
stroke:#FFFFFF; stroke-width:0; stroke-opacity:1; 
stroke-linecap:round; stroke-linejoin:round;">
<circle cx="30169.3" cy="14610.2" r="157.48" /> 
</g>
<g style="fill:#FFFFFF; fill-opacity:1.0; 
stroke:#FFFFFF; stroke-width:39.3701; stroke-opacity:1; 
stroke-linecap:round; stroke-linejoin:round;">
</g>
<g style="fill:#FFFFFF; fill-opacity:1.0; 
stroke:#FFFFFF; stroke-width:0; stroke-opacity:1; 
stroke-linecap:round; stroke-linejoin:round;">
<circle cx="32169.3" cy="17610.2" r="157.48" /> 
</g>
<g style="fill:#FFFFFF; fill-opacity:1.0; 
stroke:#FFFFFF; stroke-width:39.3701; stroke-opacity:1; 
stroke-linecap:round; stroke-linejoin:round;">
</g>
<g style="fill:#FFFFFF; fill-opacity:1.0; 
stroke:#FFFFFF; stroke-width:0; stroke-opacity:1; 
stroke-linecap:round; stroke-linejoin:round;">
<circle cx="29169.3" cy="14610.2" r="157.48" /> 
</g>
<g style="fill:#FFFFFF; fill-opacity:1.0; 
stroke:#FFFFFF; stroke-width:39.3701; stroke-opacity:1; 
stroke-linecap:round; stroke-linejoin:round;">
</g>
<g style="fill:#FFFFFF; fill-opacity:1.0; 
stroke:#FFFFFF; stroke-width:0; stroke-opacity:1; 
stroke-linecap:round; stroke-linejoin:round;">
<circle cx="20724.4" cy="14385.8" r="157.48" /> 
</g>
<g style="fill:#FFFFFF; fill-opacity:1.0; 
stroke:#FFFFFF; stroke-width:39.3701; stroke-opacity:1; 
stroke-linecap:round; stroke-linejoin:round;">
</g>
<g style="fill:#FFFFFF; fill-opacity:1.0; 
stroke:#FFFFFF; stroke-width:0; stroke-opacity:1; 
stroke-linecap:round; stroke-linejoin:round;">
<circle cx="23724.4" cy="17385.8" r="157.48" /> 
</g>
<g style="fill:#FFFFFF; fill-opacity:1.0; 
stroke:#FFFFFF; stroke-width:39.3701; stroke-opacity:1; 
stroke-linecap:round; stroke-linejoin:round;">
</g>
<g style="fill:#FFFFFF; fill-opacity:1.0; 
stroke:#FFFFFF; stroke-width:0; stroke-opacity:1; 
stroke-linecap:round; stroke-linejoin:round;">
<circle cx="21724.4" cy="14385.8" r="157.48" /> 
</g>
<g style="fill:#FFFFFF; fill-opacity:1.0; 
stroke:#FFFFFF; stroke-width:39.3701; stroke-opacity:1; 
stroke-linecap:round; stroke-linejoin:round;">
</g>
<g style="fill:#FFFFFF; fill-opacity:1.0; 
stroke:#FFFFFF; stroke-width:0; stroke-opacity:1; 
stroke-linecap:round; stroke-linejoin:round;">
<circle cx="22724.4" cy="17385.8" r="157.48" /> 
</g>
<g style="fill:#FFFFFF; fill-opacity:1.0; 
stroke:#FFFFFF; stroke-width:39.3701; stroke-opacity:1; 
stroke-linecap:round; stroke-linejoin:round;">
</g>
<g style="fill:#FFFFFF; fill-opacity:1.0; 
stroke:#FFFFFF; stroke-width:0; stroke-opacity:1; 
stroke-linecap:round; stroke-linejoin:round;">
<circle cx="22724.4" cy="14385.8" r="157.48" /> 
</g>
<g style="fill:#FFFFFF; fill-opacity:1.0; 
stroke:#FFFFFF; stroke-width:39.3701; stroke-opacity:1; 
stroke-linecap:round; stroke-linejoin:round;">
</g>
<g style="fill:#FFFFFF; fill-opacity:1.0; 
stroke:#FFFFFF; stroke-width:0; stroke-opacity:1; 
stroke-linecap:round; stroke-linejoin:round;">
<circle cx="21724.4" cy="17385.8" r="157.48" /> 
</g>
<g style="fill:#FFFFFF; fill-opacity:1.0; 
stroke:#FFFFFF; stroke-width:39.3701; stroke-opacity:1; 
stroke-linecap:round; stroke-linejoin:round;">
</g>
<g style="fill:#FFFFFF; fill-opacity:1.0; 
stroke:#FFFFFF; stroke-width:0; stroke-opacity:1; 
stroke-linecap:round; stroke-linejoin:round;">
<circle cx="23724.4" cy="14385.8" r="157.48" /> 
</g>
<g style="fill:#FFFFFF; fill-opacity:1.0; 
stroke:#FFFFFF; stroke-width:39.3701; stroke-opacity:1; 
stroke-linecap:round; stroke-linejoin:round;">
</g>
<g style="fill:#FFFFFF; fill-opacity:1.0; 
stroke:#FFFFFF; stroke-width:0; stroke-opacity:1; 
stroke-linecap:round; stroke-linejoin:round;">
<circle cx="20724.4" cy="17385.8" r="157.48" /> 
</g>
<g style="fill:#FFFFFF; fill-opacity:1.0; 
stroke:#FFFFFF; stroke-width:39.3701; stroke-opacity:1; 
stroke-linecap:round; stroke-linejoin:round;">
</g>
<g style="fill:#FFFFFF; fill-opacity:1.0; 
stroke:#FFFFFF; stroke-width:0; stroke-opacity:1; 
stroke-linecap:round; stroke-linejoin:round;">
<circle cx="7260.12" cy="20292.6" r="98.4252" /> 
</g>
<g style="fill:#FFFFFF; fill-opacity:1.0; 
stroke:#FFFFFF; stroke-width:39.3701; stroke-opacity:1; 
stroke-linecap:round; stroke-linejoin:round;">
</g>
<g style="fill:#FFFFFF; fill-opacity:1.0; 
stroke:#FFFFFF; stroke-width:0; stroke-opacity:1; 
stroke-linecap:round; stroke-linejoin:round;">
<circle cx="2370.08" cy="9799.21" r="98.4252" /> 
</g>
<g style="fill:#FFFFFF; fill-opacity:1.0; 
stroke:#FFFFFF; stroke-width:39.3701; stroke-opacity:1; 
stroke-linecap:round; stroke-linejoin:round;">
</g>
<g style="fill:#FFFFFF; fill-opacity:1.0; 
stroke:#FFFFFF; stroke-width:0; stroke-opacity:1; 
stroke-linecap:round; stroke-linejoin:round;">
<circle cx="8681.1" cy="10468.5" r="98.4252" /> 
</g>
<g style="fill:#FFFFFF; fill-opacity:1.0; 
stroke:#FFFFFF; stroke-width:39.3701; stroke-opacity:1; 
stroke-linecap:round; stroke-linejoin:round;">
</g>
<g style="fill:#FFFFFF; fill-opacity:1.0; 
stroke:#FFFFFF; stroke-width:0; stroke-opacity:1; 
stroke-linecap:round; stroke-linejoin:round;">
<circle cx="37248" cy="10842.5" r="98.4252" /> 
</g>
<g style="fill:#FFFFFF; fill-opacity:1.0; 
stroke:#FFFFFF; stroke-width:39.3701; stroke-opacity:1; 
stroke-linecap:round; stroke-linejoin:round;">
</g>
<g style="fill:#FFFFFF; fill-opacity:1.0; 
stroke:#FFFFFF; stroke-width:0; stroke-opacity:1; 
stroke-linecap:round; stroke-linejoin:round;">
<circle cx="51759.8" cy="11129.9" r="98.4252" /> 
</g>
<g style="fill:#FFFFFF; fill-opacity:1.0; 
stroke:#FFFFFF; stroke-width:39.3701; stroke-opacity:1; 
stroke-linecap:round; stroke-linejoin:round;">
</g>
<g style="fill:#000000; fill-opacity:1.0; 
stroke:#000000; stroke-width:39.3701; stroke-opacity:1; 
stroke-linecap:round; stroke-linejoin:round;">
</g> 
</svg>
