<?xml version="1.0" standalone="no"?>
 <!DOCTYPE svg PUBLIC "-//W3C//DTD SVG 1.1//EN" 
 "http://www.w3.org/Graphics/SVG/1.1/DTD/svg11.dtd"> 
<svg xmlns="http://www.w3.org/2000/svg" version="1.1" 
    width="15.494cm" height="7.62cm" viewBox="0 0 61000 30000 ">
<title>SVG Picture created as Stop_Band_Filter-F.Cu.svg date 2019/02/21 14:58:25 </title>
  <desc>Picture generated by PCBNEW </desc>
<g style="fill:#000000; fill-opacity:1;stroke:#000000; stroke-opacity:1;
stroke-linecap:round; stroke-linejoin:round; "
 transform="translate(0 0) scale(1 1)">
</g>
<g style="fill:#000000; fill-opacity:0.0; 
stroke:#000000; stroke-width:-0.000393701; stroke-opacity:1; 
stroke-linecap:round; stroke-linejoin:round;">
</g>
<g style="fill:#000000; fill-opacity:0.0; 
stroke:#000000; stroke-width:118.11; stroke-opacity:1; 
stroke-linecap:round; stroke-linejoin:round;">
<path d="M42978 5239
L43062 5267
L43203 5267
L43259 5239
L43287 5210
L43316 5154
L43316 5098
L43287 5042
L43259 5014
L43203 4985
L43091 4957
L43034 4929
L43006 4901
L42978 4845
L42978 4789
L43006 4732
L43034 4704
L43091 4676
L43231 4676
L43316 4704
" />
<path d="M43484 4676
L43822 4676
" />
<path d="M43653 5267
L43653 4676
" />
<path d="M44131 4676
L44244 4676
L44300 4704
L44356 4760
L44384 4873
L44384 5070
L44356 5182
L44300 5239
L44244 5267
L44131 5267
L44075 5239
L44019 5182
L43991 5070
L43991 4873
L44019 4760
L44075 4704
L44131 4676
" />
<path d="M44637 5267
L44637 4676
L44862 4676
L44919 4704
L44947 4732
L44975 4789
L44975 4873
L44947 4929
L44919 4957
L44862 4985
L44637 4985
" />
<path d="M45875 4957
L45959 4985
L45987 5014
L46015 5070
L46015 5154
L45987 5210
L45959 5239
L45903 5267
L45678 5267
L45678 4676
L45875 4676
L45931 4704
L45959 4732
L45987 4789
L45987 4845
L45959 4901
L45931 4929
L45875 4957
L45678 4957
" />
<path d="M46240 5098
L46521 5098
" />
<path d="M46184 5267
L46381 4676
L46578 5267
" />
<path d="M46775 5267
L46775 4676
L47112 5267
L47112 4676
" />
<path d="M47393 5267
L47393 4676
L47534 4676
L47618 4704
L47674 4760
L47703 4817
L47731 4929
L47731 5014
L47703 5126
L47674 5182
L47618 5239
L47534 5267
L47393 5267
" />
<path d="M48631 4957
L48434 4957
" />
<path d="M48434 5267
L48434 4676
L48715 4676
" />
<path d="M48940 5267
L48940 4676
" />
<path d="M49502 5267
L49221 5267
L49221 4676
" />
<path d="M49615 4676
L49952 4676
" />
<path d="M49784 5267
L49784 4676
" />
<path d="M50149 4957
L50346 4957
" />
<path d="M50430 5267
L50149 5267
L50149 4676
L50430 4676
" />
<path d="M51021 5267
L50824 4985
" />
<path d="M50683 5267
L50683 4676
L50908 4676
L50965 4704
L50993 4732
L51021 4789
L51021 4873
L50993 4929
L50965 4957
L50908 4985
L50683 4985
" />
</g>
<g style="fill:#000000; fill-opacity:0.0; 
stroke:#000000; stroke-width:98.4252; stroke-opacity:1; 
stroke-linecap:round; stroke-linejoin:round;">
<path d="M52718 11685
L53018 11685
" />
<path d="M53412 11835
L53187 11835
" />
<path d="M53299 11835
L53299 11441
L53262 11498
L53224 11535
L53187 11554
" />
<path d="M53562 11479
L53581 11460
L53618 11441
L53712 11441
L53749 11460
L53768 11479
L53787 11516
L53787 11554
L53768 11610
L53543 11835
L53787 11835
" />
<path d="M53918 11573
L54012 11835
L54106 11573
" />
</g>
<g style="fill:#000000; fill-opacity:0.0; 
stroke:#000000; stroke-width:118.11; stroke-opacity:1; 
stroke-linecap:round; stroke-linejoin:round;">
<path d="M53537 21324
L53987 21324
" />
<path d="M53762 21549
L53762 21099
" />
<path d="M54578 21549
L54240 21549
" />
<path d="M54409 21549
L54409 20959
L54353 21043
L54296 21099
L54240 21127
" />
<path d="M54802 21015
L54831 20987
L54887 20959
L55027 20959
L55084 20987
L55112 21015
L55140 21071
L55140 21127
L55112 21212
L54774 21549
L55140 21549
" />
<path d="M55337 21156
L55477 21549
L55618 21156
" />
<path d="M57838 7995
L57951 7995
L58007 8023
L58063 8079
L58091 8192
L58091 8389
L58063 8501
L58007 8557
L57951 8586
L57838 8586
L57782 8557
L57726 8501
L57697 8389
L57697 8192
L57726 8079
L57782 8023
L57838 7995
" />
<path d="M58344 7995
L58344 8473
L58372 8529
L58401 8557
L58457 8586
L58569 8586
L58625 8557
L58654 8529
L58682 8473
L58682 7995
" />
<path d="M58879 7995
L59216 7995
" />
<path d="M59047 8586
L59047 7995
" />
</g>
<g style="fill:#000000; fill-opacity:0.0; 
stroke:#000000; stroke-width:0; stroke-opacity:1; 
stroke-linecap:round; stroke-linejoin:round;">
</g>
<g style="fill:#000000; fill-opacity:1.0; 
stroke:#000000; stroke-width:0; stroke-opacity:1; 
stroke-linecap:round; stroke-linejoin:round;">
<polyline style="fill-rule:evenodd;"
points="54881,13830
55511,13830
55511,14460
54881,14460
54881,13830
" /> 
</g>
<g style="fill:#000000; fill-opacity:1.0; 
stroke:#000000; stroke-width:629.921; stroke-opacity:1; 
stroke-linecap:round; stroke-linejoin:round;">
</g>
<g style="fill:#000000; fill-opacity:0.0; 
stroke:#000000; stroke-width:629.921; stroke-opacity:1; 
stroke-linecap:round; stroke-linejoin:round;">
<path d="M52196 17145
L52196 17145
" />
<path d="M54196 14145
L54196 14145
" />
<path d="M53196 17145
L53196 17145
" />
<path d="M53196 14145
L53196 14145
" />
<path d="M54196 17145
L54196 17145
" />
<path d="M52196 14145
L52196 14145
" />
<path d="M55196 17145
L55196 17145
" />
<path d="M23767 17543
L23767 17543
" />
<path d="M20767 14543
L20767 14543
" />
<path d="M22767 17543
L22767 17543
" />
<path d="M21767 14543
L21767 14543
" />
<path d="M21767 17543
L21767 17543
" />
<path d="M22767 14543
L22767 14543
" />
<path d="M20767 17543
L20767 17543
" />
</g>
<g style="fill:#000000; fill-opacity:0.0; 
stroke:#000000; stroke-width:0; stroke-opacity:1; 
stroke-linecap:round; stroke-linejoin:round;">
</g>
<g style="fill:#000000; fill-opacity:1.0; 
stroke:#000000; stroke-width:0; stroke-opacity:1; 
stroke-linecap:round; stroke-linejoin:round;">
<polyline style="fill-rule:evenodd;"
points="23452,14228
24082,14228
24082,14858
23452,14858
23452,14228
" /> 
<polyline style="fill-rule:evenodd;"
points="20976,19081
20985,19082
20994,19084
21003,19087
21011,19091
21019,19096
21026,19101
21033,19108
21039,19114
21045,19122
21049,19130
21053,19138
21056,19147
21059,19155
21060,19165
21061,19174
21061,19361
21060,19370
21059,19379
21056,19388
21053,19397
21049,19405
21045,19413
21039,19420
21033,19427
21026,19433
21019,19438
21011,19443
21003,19447
20994,19450
20985,19452
20976,19454
20967,19454
20741,19454
20731,19454
20722,19452
20713,19450
20705,19447
20697,19443
20689,19438
20681,19433
20675,19427
20668,19420
20663,19413
20658,19405
20654,19397
20651,19388
20649,19379
20648,19370
20647,19361
20647,19174
20648,19165
20649,19155
20651,19147
20654,19138
20658,19130
20663,19122
20668,19114
20675,19108
20681,19101
20689,19096
20697,19091
20705,19087
20713,19084
20722,19082
20731,19081
20741,19080
20967,19080
20976,19081
" /> 
<polyline style="fill-rule:evenodd;"
points="21665,19081
21674,19082
21683,19084
21692,19087
21700,19091
21708,19096
21715,19101
21722,19108
21728,19114
21734,19122
21738,19130
21742,19138
21745,19147
21748,19155
21749,19165
21750,19174
21750,19361
21749,19370
21748,19379
21745,19388
21742,19397
21738,19405
21734,19413
21728,19420
21722,19427
21715,19433
21708,19438
21700,19443
21692,19447
21683,19450
21674,19452
21665,19454
21656,19454
21430,19454
21420,19454
21411,19452
21402,19450
21394,19447
21386,19443
21378,19438
21370,19433
21364,19427
21357,19420
21352,19413
21347,19405
21343,19397
21340,19388
21338,19379
21337,19370
21336,19361
21336,19174
21337,19165
21338,19155
21340,19147
21343,19138
21347,19130
21352,19122
21357,19114
21364,19108
21370,19101
21378,19096
21386,19091
21394,19087
21402,19084
21411,19082
21420,19081
21430,19080
21656,19080
21665,19081
" /> 
<polyline style="fill-rule:evenodd;"
points="32824,22911
32824,22576
33159,22576
33159,22911
32824,22911
" /> 
<polyline style="fill-rule:evenodd;"
points="21386,3563
21386,3229
21721,3229
21721,3563
21386,3563
" /> 
</g>
<g style="fill:#000000; fill-opacity:1.0; 
stroke:#000000; stroke-width:629.921; stroke-opacity:1; 
stroke-linecap:round; stroke-linejoin:round;">
</g>
<g style="fill:#000000; fill-opacity:0.0; 
stroke:#000000; stroke-width:629.921; stroke-opacity:1; 
stroke-linecap:round; stroke-linejoin:round;">
<path d="M31830 17610
L31830 17610
" />
<path d="M28830 14610
L28830 14610
" />
<path d="M30830 17610
L30830 17610
" />
<path d="M29830 14610
L29830 14610
" />
<path d="M29830 17610
L29830 17610
" />
<path d="M30830 14610
L30830 14610
" />
<path d="M28830 17610
L28830 17610
" />
</g>
<g style="fill:#000000; fill-opacity:0.0; 
stroke:#000000; stroke-width:0; stroke-opacity:1; 
stroke-linecap:round; stroke-linejoin:round;">
</g>
<g style="fill:#000000; fill-opacity:1.0; 
stroke:#000000; stroke-width:0; stroke-opacity:1; 
stroke-linecap:round; stroke-linejoin:round;">
<polyline style="fill-rule:evenodd;"
points="31515,14295
32145,14295
32145,14925
31515,14925
31515,14295
" /> 
<polyline style="fill-rule:evenodd;"
points="39960,14070
40590,14070
40590,14700
39960,14700
39960,14070
" /> 
</g>
<g style="fill:#000000; fill-opacity:1.0; 
stroke:#000000; stroke-width:629.921; stroke-opacity:1; 
stroke-linecap:round; stroke-linejoin:round;">
</g>
<g style="fill:#000000; fill-opacity:0.0; 
stroke:#000000; stroke-width:629.921; stroke-opacity:1; 
stroke-linecap:round; stroke-linejoin:round;">
<path d="M37275 17385
L37275 17385
" />
<path d="M39275 14385
L39275 14385
" />
<path d="M38275 17385
L38275 17385
" />
<path d="M38275 14385
L38275 14385
" />
<path d="M39275 17385
L39275 17385
" />
<path d="M37275 14385
L37275 14385
" />
<path d="M40275 17385
L40275 17385
" />
</g>
<g style="fill:#000000; fill-opacity:0.0; 
stroke:#000000; stroke-width:0; stroke-opacity:1; 
stroke-linecap:round; stroke-linejoin:round;">
</g>
<g style="fill:#000000; fill-opacity:1.0; 
stroke:#000000; stroke-width:0; stroke-opacity:1; 
stroke-linecap:round; stroke-linejoin:round;">
<polyline style="fill-rule:evenodd;"
points="25480,7486
25489,7488
25498,7490
25507,7493
25515,7497
25523,7501
25530,7507
25537,7513
25543,7520
25549,7527
25553,7535
25557,7543
25560,7552
25563,7561
25564,7570
25564,7579
25564,7766
25564,7775
25563,7784
25560,7793
25557,7802
25553,7810
25549,7818
25543,7826
25537,7832
25530,7839
25523,7844
25515,7849
25507,7853
25498,7856
25489,7858
25480,7859
25471,7860
25245,7860
25235,7859
25226,7858
25217,7856
25209,7853
25201,7849
25193,7844
25185,7839
25178,7832
25172,7826
25167,7818
25162,7810
25158,7802
25155,7793
25153,7784
25152,7775
25151,7766
25151,7579
25152,7570
25153,7561
25155,7552
25158,7543
25162,7535
25167,7527
25172,7520
25178,7513
25185,7507
25193,7501
25201,7497
25209,7493
25217,7490
25226,7488
25235,7486
25245,7486
25471,7486
25480,7486
" /> 
<polyline style="fill-rule:evenodd;"
points="24791,7486
24800,7488
24809,7490
24818,7493
24826,7497
24834,7501
24841,7507
24848,7513
24854,7520
24860,7527
24864,7535
24868,7543
24871,7552
24874,7561
24875,7570
24875,7579
24875,7766
24875,7775
24874,7784
24871,7793
24868,7802
24864,7810
24860,7818
24854,7826
24848,7832
24841,7839
24834,7844
24826,7849
24818,7853
24809,7856
24800,7858
24791,7859
24782,7860
24556,7860
24546,7859
24537,7858
24528,7856
24520,7853
24512,7849
24504,7844
24496,7839
24489,7832
24483,7826
24478,7818
24473,7810
24469,7802
24466,7793
24464,7784
24463,7775
24462,7766
24462,7579
24463,7570
24464,7561
24466,7552
24469,7543
24473,7535
24478,7527
24483,7520
24489,7513
24496,7507
24504,7501
24512,7497
24520,7493
24528,7490
24537,7488
24546,7486
24556,7486
24782,7486
24791,7486
" /> 
<polyline style="fill-rule:evenodd;"
points="46421,13589
46430,13590
46439,13592
46448,13595
46456,13599
46464,13604
46471,13609
46478,13615
46484,13622
46490,13630
46494,13638
46498,13646
46501,13654
46504,13663
46505,13672
46505,13682
46505,13869
46505,13878
46504,13887
46501,13896
46498,13904
46494,13913
46490,13921
46484,13928
46478,13935
46471,13941
46464,13946
46456,13951
46448,13955
46439,13958
46430,13960
46421,13962
46412,13962
46186,13962
46176,13962
46167,13960
46158,13958
46150,13955
46141,13951
46134,13946
46126,13941
46119,13935
46113,13928
46108,13921
46103,13913
46099,13904
46096,13896
46094,13887
46092,13878
46092,13869
46092,13682
46092,13672
46094,13663
46096,13654
46099,13646
46103,13638
46108,13630
46113,13622
46119,13615
46126,13609
46134,13604
46141,13599
46150,13595
46158,13592
46167,13590
46176,13589
46186,13588
46412,13588
46421,13589
" /> 
<polyline style="fill-rule:evenodd;"
points="45732,13589
45741,13590
45750,13592
45759,13595
45767,13599
45775,13604
45782,13609
45789,13615
45795,13622
45801,13630
45805,13638
45809,13646
45812,13654
45815,13663
45816,13672
45816,13682
45816,13869
45816,13878
45815,13887
45812,13896
45809,13904
45805,13913
45801,13921
45795,13928
45789,13935
45782,13941
45775,13946
45767,13951
45759,13955
45750,13958
45741,13960
45732,13962
45723,13962
45497,13962
45487,13962
45478,13960
45469,13958
45461,13955
45452,13951
45445,13946
45437,13941
45430,13935
45424,13928
45419,13921
45414,13913
45410,13904
45407,13896
45405,13887
45403,13878
45403,13869
45403,13682
45403,13672
45405,13663
45407,13654
45410,13646
45414,13638
45419,13630
45424,13622
45430,13615
45437,13609
45445,13604
45452,13599
45461,13595
45469,13592
45478,13590
45487,13589
45497,13588
45723,13588
45732,13589
" /> 
<polyline style="fill-rule:evenodd;"
points="19342,10793
19351,10795
19360,10797
19369,10800
19377,10804
19385,10809
19392,10814
19399,10820
19405,10827
19411,10834
19416,10842
19420,10851
19423,10859
19425,10868
19426,10877
19427,10886
19427,11113
19426,11122
19425,11131
19423,11140
19420,11148
19416,11157
19411,11165
19405,11172
19399,11179
19392,11185
19385,11190
19377,11195
19369,11199
19360,11202
19351,11204
19342,11206
19333,11206
19146,11206
19137,11206
19128,11204
19119,11202
19110,11199
19102,11195
19094,11190
19087,11185
19080,11179
19074,11172
19068,11165
19064,11157
19060,11148
19057,11140
19054,11131
19053,11122
19053,11113
19053,10886
19053,10877
19054,10868
19057,10859
19060,10851
19064,10842
19068,10834
19074,10827
19080,10820
19087,10814
19094,10809
19102,10804
19110,10800
19119,10797
19128,10795
19137,10793
19146,10793
19333,10793
19342,10793
" /> 
<polyline style="fill-rule:evenodd;"
points="19342,11482
19351,11484
19360,11486
19369,11489
19377,11493
19385,11498
19392,11503
19399,11509
19405,11516
19411,11523
19416,11531
19420,11540
19423,11548
19425,11557
19426,11566
19427,11575
19427,11802
19426,11811
19425,11820
19423,11829
19420,11837
19416,11846
19411,11854
19405,11861
19399,11868
19392,11874
19385,11879
19377,11884
19369,11888
19360,11891
19351,11893
19342,11895
19333,11895
19146,11895
19137,11895
19128,11893
19119,11891
19110,11888
19102,11884
19094,11879
19087,11874
19080,11868
19074,11861
19068,11854
19064,11846
19060,11837
19057,11829
19054,11820
19053,11811
19053,11802
19053,11575
19053,11566
19054,11557
19057,11548
19060,11540
19064,11531
19068,11523
19074,11516
19080,11509
19087,11503
19094,11498
19102,11493
19110,11489
19119,11486
19128,11484
19137,11482
19146,11482
19333,11482
19342,11482
" /> 
<polyline style="fill-rule:evenodd;"
points="18594,13608
18603,13610
18612,13612
18621,13615
18629,13619
18637,13624
18644,13629
18651,13635
18657,13642
18663,13649
18668,13657
18672,13665
18675,13674
18677,13683
18678,13692
18679,13701
18679,13928
18678,13937
18677,13946
18675,13955
18672,13963
18668,13972
18663,13980
18657,13987
18651,13994
18644,14000
18637,14005
18629,14010
18621,14014
18612,14017
18603,14019
18594,14021
18585,14021
18398,14021
18389,14021
18380,14019
18371,14017
18362,14014
18354,14010
18346,14005
18339,14000
18332,13994
18326,13987
18320,13980
18316,13972
18312,13963
18309,13955
18306,13946
18305,13937
18305,13928
18305,13701
18305,13692
18306,13683
18309,13674
18312,13665
18316,13657
18320,13649
18326,13642
18332,13635
18339,13629
18346,13624
18354,13619
18362,13615
18371,13612
18380,13610
18389,13608
18398,13608
18585,13608
18594,13608
" /> 
<polyline style="fill-rule:evenodd;"
points="18594,12919
18603,12921
18612,12923
18621,12926
18629,12930
18637,12935
18644,12940
18651,12946
18657,12953
18663,12960
18668,12968
18672,12977
18675,12985
18677,12994
18678,13003
18679,13012
18679,13239
18678,13248
18677,13257
18675,13266
18672,13274
18668,13283
18663,13291
18657,13298
18651,13305
18644,13311
18637,13316
18629,13321
18621,13325
18612,13328
18603,13330
18594,13332
18585,13332
18398,13332
18389,13332
18380,13330
18371,13328
18362,13325
18354,13321
18346,13316
18339,13311
18332,13305
18326,13298
18320,13291
18316,13283
18312,13274
18309,13266
18306,13257
18305,13248
18305,13239
18305,13012
18305,13003
18306,12994
18309,12985
18312,12977
18316,12968
18320,12960
18326,12953
18332,12946
18339,12940
18346,12935
18354,12930
18362,12926
18371,12923
18380,12921
18389,12919
18398,12919
18585,12919
18594,12919
" /> 
<polyline style="fill-rule:evenodd;"
points="53572,20459
53572,20125
53907,20125
53907,20459
53572,20459
" /> 
<polyline style="fill-rule:evenodd;"
points="35208,20813
35218,20814
35226,20817
35235,20820
35243,20824
35251,20828
35259,20834
35265,20840
35272,20847
35277,20854
35282,20862
35286,20870
35289,20879
35291,20888
35292,20897
35293,20906
35293,21093
35292,21102
35291,21111
35289,21120
35286,21129
35282,21137
35277,21145
35272,21152
35265,21159
35259,21165
35251,21171
35243,21175
35235,21179
35226,21182
35218,21185
35208,21186
35199,21187
34973,21187
34964,21186
34955,21185
34946,21182
34937,21179
34929,21175
34921,21171
34914,21165
34907,21159
34901,21152
34895,21145
34890,21137
34887,21129
34883,21120
34881,21111
34880,21102
34879,21093
34879,20906
34880,20897
34881,20888
34883,20879
34887,20870
34890,20862
34895,20854
34901,20847
34907,20840
34914,20834
34921,20828
34929,20824
34937,20820
34946,20817
34955,20814
34964,20813
34973,20812
35199,20812
35208,20813
" /> 
<polyline style="fill-rule:evenodd;"
points="35897,20813
35907,20814
35915,20817
35924,20820
35932,20824
35940,20828
35948,20834
35954,20840
35961,20847
35966,20854
35971,20862
35975,20870
35978,20879
35980,20888
35981,20897
35982,20906
35982,21093
35981,21102
35980,21111
35978,21120
35975,21129
35971,21137
35966,21145
35961,21152
35954,21159
35948,21165
35940,21171
35932,21175
35924,21179
35915,21182
35907,21185
35897,21186
35888,21187
35662,21187
35653,21186
35644,21185
35635,21182
35626,21179
35618,21175
35610,21171
35603,21165
35596,21159
35590,21152
35584,21145
35579,21137
35576,21129
35572,21120
35570,21111
35569,21102
35568,21093
35568,20906
35569,20897
35570,20888
35572,20879
35576,20870
35579,20862
35584,20854
35590,20847
35596,20840
35603,20834
35610,20828
35618,20824
35626,20820
35635,20817
35644,20814
35653,20813
35662,20812
35888,20812
35897,20813
" /> 
<polyline style="fill-rule:evenodd;"
points="24161,22805
24170,22806
24179,22809
24188,22812
24196,22816
24204,22820
24211,22826
24218,22832
24224,22839
24230,22846
24235,22854
24238,22862
24242,22871
24244,22880
24245,22889
24246,22898
24246,23085
24245,23094
24244,23103
24242,23112
24238,23121
24235,23129
24230,23137
24224,23144
24218,23151
24211,23157
24204,23163
24196,23168
24188,23172
24179,23175
24170,23177
24161,23178
24152,23179
23926,23179
23917,23178
23907,23177
23899,23175
23890,23172
23882,23168
23874,23163
23866,23157
23860,23151
23853,23144
23848,23137
23843,23129
23839,23121
23836,23112
23834,23103
23833,23094
23832,23085
23832,22898
23833,22889
23834,22880
23836,22871
23839,22862
23843,22854
23848,22846
23853,22839
23860,22832
23866,22826
23874,22820
23882,22816
23890,22812
23899,22809
23907,22806
23917,22805
23926,22805
24152,22805
24161,22805
" /> 
<polyline style="fill-rule:evenodd;"
points="23472,22805
23481,22806
23490,22809
23499,22812
23507,22816
23515,22820
23522,22826
23529,22832
23535,22839
23541,22846
23546,22854
23549,22862
23553,22871
23555,22880
23556,22889
23557,22898
23557,23085
23556,23094
23555,23103
23553,23112
23549,23121
23546,23129
23541,23137
23535,23144
23529,23151
23522,23157
23515,23163
23507,23168
23499,23172
23490,23175
23481,23177
23472,23178
23463,23179
23237,23179
23228,23178
23218,23177
23210,23175
23201,23172
23193,23168
23185,23163
23177,23157
23171,23151
23164,23144
23159,23137
23154,23129
23150,23121
23147,23112
23145,23103
23144,23094
23143,23085
23143,22898
23144,22889
23145,22880
23147,22871
23150,22862
23154,22854
23159,22846
23164,22839
23171,22832
23177,22826
23185,22820
23193,22816
23201,22812
23210,22809
23218,22806
23228,22805
23237,22805
23463,22805
23472,22805
" /> 
<polyline style="fill-rule:evenodd;"
points="58462,9966
58462,9631
58797,9631
58797,9966
58462,9966
" /> 
<polyline style="fill-rule:evenodd;"
points="27295,22315
27304,22316
27313,22318
27322,22322
27330,22326
27338,22330
27345,22336
27352,22342
27358,22349
27364,22356
27368,22364
27372,22372
27375,22381
27378,22390
27379,22399
27379,22408
27379,22634
27379,22644
27378,22653
27375,22661
27372,22670
27368,22678
27364,22686
27358,22694
27352,22700
27345,22707
27338,22712
27330,22717
27322,22721
27313,22724
27304,22726
27295,22727
27286,22728
27099,22728
27090,22727
27081,22726
27072,22724
27063,22721
27055,22717
27047,22712
27040,22707
27033,22700
27027,22694
27021,22686
27016,22678
27013,22670
27009,22661
27007,22653
27006,22644
27005,22634
27005,22408
27006,22399
27007,22390
27009,22381
27013,22372
27016,22364
27021,22356
27027,22349
27033,22342
27040,22336
27047,22330
27055,22326
27063,22322
27072,22318
27081,22316
27090,22315
27099,22314
27286,22314
27295,22315
" /> 
<polyline style="fill-rule:evenodd;"
points="27295,21626
27304,21627
27313,21630
27322,21633
27330,21637
27338,21641
27345,21647
27352,21653
27358,21660
27364,21667
27368,21675
27372,21683
27375,21692
27378,21701
27379,21710
27379,21719
27379,21945
27379,21955
27378,21964
27375,21973
27372,21981
27368,21989
27364,21997
27358,22005
27352,22011
27345,22018
27338,22023
27330,22028
27322,22032
27313,22035
27304,22037
27295,22038
27286,22039
27099,22039
27090,22038
27081,22037
27072,22035
27063,22032
27055,22028
27047,22023
27040,22018
27033,22011
27027,22005
27021,21997
27016,21989
27013,21981
27009,21973
27007,21964
27006,21955
27005,21945
27005,21719
27006,21710
27007,21701
27009,21692
27013,21683
27016,21675
27021,21667
27027,21660
27033,21653
27040,21647
27047,21641
27055,21637
27063,21633
27072,21630
27081,21627
27090,21626
27099,21625
27286,21625
27295,21626
" /> 
<polyline style="fill-rule:evenodd;"
points="33500,18844
33509,18846
33518,18848
33526,18851
33535,18855
33543,18860
33550,18865
33557,18871
33563,18878
33568,18886
33573,18893
33577,18902
33580,18910
33582,18919
33584,18928
33584,18937
33584,19164
33584,19173
33582,19182
33580,19191
33577,19200
33573,19208
33568,19216
33563,19223
33557,19230
33550,19236
33543,19242
33535,19246
33526,19250
33518,19253
33509,19256
33500,19257
33491,19257
33304,19257
33294,19257
33285,19256
33276,19253
33268,19250
33260,19246
33252,19242
33244,19236
33238,19230
33231,19223
33226,19216
33221,19208
33217,19200
33214,19191
33212,19182
33211,19173
33210,19164
33210,18937
33211,18928
33212,18919
33214,18910
33217,18902
33221,18893
33226,18886
33231,18878
33238,18871
33244,18865
33252,18860
33260,18855
33268,18851
33276,18848
33285,18846
33294,18844
33304,18844
33491,18844
33500,18844
" /> 
<polyline style="fill-rule:evenodd;"
points="33500,19533
33509,19535
33518,19537
33526,19540
33535,19544
33543,19549
33550,19554
33557,19560
33563,19567
33568,19575
33573,19582
33577,19591
33580,19599
33582,19608
33584,19617
33584,19626
33584,19853
33584,19862
33582,19871
33580,19880
33577,19889
33573,19897
33568,19905
33563,19912
33557,19919
33550,19925
33543,19931
33535,19935
33526,19939
33518,19942
33509,19945
33500,19946
33491,19946
33304,19946
33294,19946
33285,19945
33276,19942
33268,19939
33260,19935
33252,19931
33244,19925
33238,19919
33231,19912
33226,19905
33221,19897
33217,19889
33214,19880
33212,19871
33211,19862
33210,19853
33210,19626
33211,19617
33212,19608
33214,19599
33217,19591
33221,19582
33226,19575
33231,19567
33238,19560
33244,19554
33252,19549
33260,19544
33268,19540
33276,19537
33285,19535
33294,19533
33304,19533
33491,19533
33500,19533
" /> 
<polyline style="fill-rule:evenodd;"
points="20409,22805
20418,22806
20427,22809
20436,22812
20444,22816
20452,22820
20459,22826
20466,22832
20472,22839
20478,22846
20483,22854
20486,22862
20490,22871
20492,22880
20493,22889
20494,22898
20494,23085
20493,23094
20492,23103
20490,23112
20486,23121
20483,23129
20478,23137
20472,23144
20466,23151
20459,23157
20452,23163
20444,23168
20436,23172
20427,23175
20418,23177
20409,23178
20400,23179
20174,23179
20165,23178
20155,23177
20147,23175
20138,23172
20130,23168
20122,23163
20114,23157
20108,23151
20101,23144
20096,23137
20091,23129
20087,23121
20084,23112
20082,23103
20081,23094
20080,23085
20080,22898
20081,22889
20082,22880
20084,22871
20087,22862
20091,22854
20096,22846
20101,22839
20108,22832
20114,22826
20122,22820
20130,22816
20138,22812
20147,22809
20155,22806
20165,22805
20174,22805
20400,22805
20409,22805
" /> 
<polyline style="fill-rule:evenodd;"
points="21098,22805
21107,22806
21116,22809
21125,22812
21133,22816
21141,22820
21148,22826
21155,22832
21161,22839
21167,22846
21172,22854
21175,22862
21179,22871
21181,22880
21182,22889
21183,22898
21183,23085
21182,23094
21181,23103
21179,23112
21175,23121
21172,23129
21167,23137
21161,23144
21155,23151
21148,23157
21141,23163
21133,23168
21125,23172
21116,23175
21107,23177
21098,23178
21089,23179
20863,23179
20854,23178
20844,23177
20836,23175
20827,23172
20819,23168
20811,23163
20803,23157
20797,23151
20790,23144
20785,23137
20780,23129
20776,23121
20773,23112
20771,23103
20770,23094
20769,23085
20769,22898
20770,22889
20771,22880
20773,22871
20776,22862
20780,22854
20785,22846
20790,22839
20797,22832
20803,22826
20811,22820
20819,22816
20827,22812
20836,22809
20844,22806
20854,22805
20863,22805
21089,22805
21098,22805
" /> 
<polyline style="fill-rule:evenodd;"
points="52151,10635
52151,10301
52486,10301
52486,10635
52151,10635
" /> 
<polyline style="fill-rule:evenodd;"
points="16535,17514
16544,17515
16553,17517
16562,17520
16570,17524
16578,17529
16585,17535
16592,17541
16598,17547
16604,17555
16609,17563
16612,17571
16616,17580
16618,17589
16619,17598
16620,17607
16620,17794
16619,17803
16618,17812
16616,17821
16612,17830
16609,17838
16604,17846
16598,17853
16592,17860
16585,17866
16578,17872
16570,17876
16562,17880
16553,17883
16544,17885
16535,17887
16526,17887
16300,17887
16291,17887
16281,17885
16273,17883
16264,17880
16256,17876
16248,17872
16240,17866
16234,17860
16227,17853
16222,17846
16217,17838
16213,17830
16210,17821
16208,17812
16207,17803
16206,17794
16206,17607
16207,17598
16208,17589
16210,17580
16213,17571
16217,17563
16222,17555
16227,17547
16234,17541
16240,17535
16248,17529
16256,17524
16264,17520
16273,17517
16281,17515
16291,17514
16300,17513
16526,17513
16535,17514
" /> 
<polyline style="fill-rule:evenodd;"
points="17224,17514
17233,17515
17242,17517
17251,17520
17259,17524
17267,17529
17274,17535
17281,17541
17287,17547
17293,17555
17298,17563
17301,17571
17305,17580
17307,17589
17308,17598
17309,17607
17309,17794
17308,17803
17307,17812
17305,17821
17301,17830
17298,17838
17293,17846
17287,17853
17281,17860
17274,17866
17267,17872
17259,17876
17251,17880
17242,17883
17233,17885
17224,17887
17215,17887
16989,17887
16980,17887
16970,17885
16962,17883
16953,17880
16945,17876
16937,17872
16929,17866
16923,17860
16916,17853
16911,17846
16906,17838
16902,17830
16899,17821
16897,17812
16896,17803
16895,17794
16895,17607
16896,17598
16897,17589
16899,17580
16902,17571
16906,17563
16911,17555
16916,17547
16923,17541
16929,17535
16937,17529
16945,17524
16953,17520
16962,17517
16970,17515
16980,17514
16989,17513
17215,17513
17224,17514
" /> 
<polyline style="fill-rule:evenodd;"
points="23584,11009
23584,10675
23919,10675
23919,11009
23584,11009
" /> 
<polyline style="fill-rule:evenodd;"
points="34382,23067
34391,23068
34400,23070
34408,23074
34417,23077
34424,23082
34432,23088
34439,23094
34445,23101
34450,23108
34455,23116
34459,23124
34462,23133
34464,23142
34466,23151
34466,23160
34466,23386
34466,23395
34464,23405
34462,23413
34459,23422
34455,23430
34450,23438
34445,23446
34439,23452
34432,23459
34424,23464
34417,23469
34408,23473
34400,23476
34391,23478
34382,23479
34373,23480
34186,23480
34176,23479
34167,23478
34158,23476
34150,23473
34141,23469
34134,23464
34126,23459
34119,23452
34113,23446
34108,23438
34103,23430
34099,23422
34096,23413
34094,23405
34092,23395
34092,23386
34092,23160
34092,23151
34094,23142
34096,23133
34099,23124
34103,23116
34108,23108
34113,23101
34119,23094
34126,23088
34134,23082
34141,23077
34150,23074
34158,23070
34167,23068
34176,23067
34186,23066
34373,23066
34382,23067
" /> 
<polyline style="fill-rule:evenodd;"
points="34382,23756
34391,23757
34400,23759
34408,23763
34417,23766
34424,23771
34432,23777
34439,23783
34445,23790
34450,23797
34455,23805
34459,23813
34462,23822
34464,23831
34466,23840
34466,23849
34466,24075
34466,24084
34464,24094
34462,24102
34459,24111
34455,24119
34450,24127
34445,24135
34439,24141
34432,24148
34424,24153
34417,24158
34408,24162
34400,24165
34391,24167
34382,24168
34373,24169
34186,24169
34176,24168
34167,24167
34158,24165
34150,24162
34141,24158
34134,24153
34126,24148
34119,24141
34113,24135
34108,24127
34103,24119
34099,24111
34096,24102
34094,24094
34092,24084
34092,24075
34092,23849
34092,23840
34094,23831
34096,23822
34099,23813
34103,23805
34108,23797
34113,23790
34119,23783
34126,23777
34134,23771
34141,23766
34150,23763
34158,23759
34167,23757
34176,23756
34186,23755
34373,23755
34382,23756
" /> 
<polyline style="fill-rule:evenodd;"
points="24362,18402
24371,18403
24380,18405
24389,18408
24397,18412
24405,18417
24412,18422
24419,18428
24425,18435
24431,18443
24435,18451
24439,18459
24442,18467
24445,18476
24446,18485
24446,18495
24446,18721
24446,18730
24445,18739
24442,18748
24439,18757
24435,18765
24431,18773
24425,18780
24419,18787
24412,18793
24405,18799
24397,18803
24389,18807
24380,18810
24371,18813
24362,18814
24353,18814
24166,18814
24157,18814
24148,18813
24139,18810
24130,18807
24122,18803
24114,18799
24107,18793
24100,18787
24094,18780
24088,18773
24083,18765
24079,18757
24076,18748
24074,18739
24073,18730
24072,18721
24072,18495
24073,18485
24074,18476
24076,18467
24079,18459
24083,18451
24088,18443
24094,18435
24100,18428
24107,18422
24114,18417
24122,18412
24130,18408
24139,18405
24148,18403
24157,18402
24166,18401
24353,18401
24362,18402
" /> 
<polyline style="fill-rule:evenodd;"
points="24362,19091
24371,19092
24380,19094
24389,19097
24397,19101
24405,19106
24412,19111
24419,19117
24425,19124
24431,19132
24435,19139
24439,19148
24442,19156
24445,19165
24446,19174
24446,19184
24446,19410
24446,19419
24445,19428
24442,19437
24439,19446
24435,19454
24431,19462
24425,19469
24419,19476
24412,19482
24405,19488
24397,19492
24389,19496
24380,19499
24371,19502
24362,19503
24353,19503
24166,19503
24157,19503
24148,19502
24139,19499
24130,19496
24122,19492
24114,19488
24107,19482
24100,19476
24094,19469
24088,19462
24083,19454
24079,19446
24076,19437
24074,19428
24073,19419
24072,19410
24072,19184
24073,19174
24074,19165
24076,19156
24079,19148
24083,19139
24088,19132
24094,19124
24100,19117
24107,19111
24114,19106
24122,19101
24130,19097
24139,19094
24148,19092
24157,19091
24166,19090
24353,19090
24362,19091
" /> 
<polyline style="fill-rule:evenodd;"
points="21586,10646
21595,10647
21604,10649
21613,10652
21621,10656
21629,10661
21637,10666
21643,10673
21650,10679
21655,10687
21660,10695
21664,10703
21667,10712
21669,10720
21670,10730
21671,10739
21671,10965
21670,10974
21669,10983
21667,10992
21664,11001
21660,11009
21655,11017
21650,11024
21643,11031
21637,11037
21629,11043
21621,11048
21613,11051
21604,11055
21595,11057
21586,11058
21577,11059
21390,11059
21381,11058
21372,11057
21363,11055
21354,11051
21346,11048
21338,11043
21331,11037
21324,11031
21318,11024
21313,11017
21308,11009
21304,11001
21301,10992
21299,10983
21297,10974
21297,10965
21297,10739
21297,10730
21299,10720
21301,10712
21304,10703
21308,10695
21313,10687
21318,10679
21324,10673
21331,10666
21338,10661
21346,10656
21354,10652
21363,10649
21372,10647
21381,10646
21390,10645
21577,10645
21586,10646
" /> 
<polyline style="fill-rule:evenodd;"
points="21586,9957
21595,9958
21604,9960
21613,9963
21621,9967
21629,9972
21637,9977
21643,9984
21650,9990
21655,9998
21660,10006
21664,10014
21667,10023
21669,10031
21670,10041
21671,10050
21671,10276
21670,10285
21669,10294
21667,10303
21664,10312
21660,10320
21655,10328
21650,10335
21643,10342
21637,10348
21629,10354
21621,10359
21613,10362
21604,10366
21595,10368
21586,10369
21577,10370
21390,10370
21381,10369
21372,10368
21363,10366
21354,10362
21346,10359
21338,10354
21331,10348
21324,10342
21318,10335
21313,10328
21308,10320
21304,10312
21301,10303
21299,10294
21297,10285
21297,10276
21297,10050
21297,10041
21299,10031
21301,10023
21304,10014
21308,10006
21313,9998
21318,9990
21324,9984
21331,9977
21338,9972
21346,9967
21354,9963
21363,9960
21372,9958
21381,9957
21390,9956
21577,9956
21586,9957
" /> 
<polyline style="fill-rule:evenodd;"
points="17531,20203
17540,20204
17549,20206
17558,20209
17566,20213
17574,20218
17581,20223
17588,20230
17594,20236
17600,20244
17605,20252
17609,20260
17612,20269
17614,20278
17615,20287
17616,20296
17616,20483
17615,20492
17614,20501
17612,20510
17609,20519
17605,20527
17600,20535
17594,20542
17588,20549
17581,20555
17574,20561
17566,20565
17558,20569
17549,20572
17540,20574
17531,20576
17522,20576
17296,20576
17287,20576
17278,20574
17269,20572
17260,20569
17252,20565
17244,20561
17236,20555
17230,20549
17223,20542
17218,20535
17213,20527
17209,20519
17206,20510
17204,20501
17203,20492
17202,20483
17202,20296
17203,20287
17204,20278
17206,20269
17209,20260
17213,20252
17218,20244
17223,20236
17230,20230
17236,20223
17244,20218
17252,20213
17260,20209
17269,20206
17278,20204
17287,20203
17296,20202
17522,20202
17531,20203
" /> 
<polyline style="fill-rule:evenodd;"
points="16842,20203
16851,20204
16860,20206
16869,20209
16877,20213
16885,20218
16892,20223
16899,20230
16905,20236
16911,20244
16916,20252
16920,20260
16923,20269
16925,20278
16926,20287
16927,20296
16927,20483
16926,20492
16925,20501
16923,20510
16920,20519
16916,20527
16911,20535
16905,20542
16899,20549
16892,20555
16885,20561
16877,20565
16869,20569
16860,20572
16851,20574
16842,20576
16833,20576
16607,20576
16598,20576
16589,20574
16580,20572
16571,20569
16563,20565
16555,20561
16547,20555
16541,20549
16535,20542
16529,20535
16524,20527
16520,20519
16517,20510
16515,20501
16514,20492
16513,20483
16513,20296
16514,20287
16515,20278
16517,20269
16520,20260
16524,20252
16529,20244
16535,20236
16541,20230
16547,20223
16555,20218
16563,20213
16571,20209
16580,20206
16589,20204
16598,20203
16607,20202
16833,20202
16842,20203
" /> 
<polyline style="fill-rule:evenodd;"
points="33279,12742
33288,12743
33297,12746
33306,12749
33314,12753
33322,12757
33329,12763
33336,12769
33342,12776
33348,12783
33353,12791
33357,12799
33360,12808
33362,12817
33363,12826
33364,12835
33364,13022
33363,13031
33362,13040
33360,13049
33357,13058
33353,13066
33348,13074
33342,13081
33336,13088
33329,13094
33322,13100
33314,13105
33306,13109
33297,13112
33288,13114
33279,13115
33270,13116
33044,13116
33035,13115
33026,13114
33017,13112
33008,13109
33000,13105
32992,13100
32984,13094
32978,13088
32972,13081
32966,13074
32961,13066
32957,13058
32954,13049
32952,13040
32951,13031
32950,13022
32950,12835
32951,12826
32952,12817
32954,12808
32957,12799
32961,12791
32966,12783
32972,12776
32978,12769
32984,12763
32992,12757
33000,12753
33008,12749
33017,12746
33026,12743
33035,12742
33044,12742
33270,12742
33279,12742
" /> 
<polyline style="fill-rule:evenodd;"
points="32590,12742
32599,12743
32608,12746
32617,12749
32625,12753
32633,12757
32641,12763
32647,12769
32653,12776
32659,12783
32664,12791
32668,12799
32671,12808
32673,12817
32674,12826
32675,12835
32675,13022
32674,13031
32673,13040
32671,13049
32668,13058
32664,13066
32659,13074
32653,13081
32647,13088
32641,13094
32633,13100
32625,13105
32617,13109
32608,13112
32599,13114
32590,13115
32581,13116
32355,13116
32346,13115
32337,13114
32328,13112
32319,13109
32311,13105
32303,13100
32295,13094
32289,13088
32283,13081
32277,13074
32272,13066
32268,13058
32265,13049
32263,13040
32262,13031
32261,13022
32261,12835
32262,12826
32263,12817
32265,12808
32268,12799
32272,12791
32277,12783
32283,12776
32289,12769
32295,12763
32303,12757
32311,12753
32319,12749
32328,12746
32337,12743
32346,12742
32355,12742
32581,12742
32590,12742
" /> 
<polyline style="fill-rule:evenodd;"
points="40701,11490
40710,11491
40719,11494
40727,11497
40736,11501
40743,11505
40751,11511
40758,11517
40764,11524
40769,11531
40774,11539
40778,11547
40781,11556
40783,11565
40784,11574
40785,11583
40785,11770
40784,11779
40783,11788
40781,11797
40778,11806
40774,11814
40769,11822
40764,11829
40758,11836
40751,11842
40743,11848
40736,11853
40727,11857
40719,11860
40710,11862
40701,11863
40691,11864
40465,11864
40456,11863
40447,11862
40438,11860
40429,11857
40421,11853
40413,11848
40406,11842
40399,11836
40393,11829
40387,11822
40383,11814
40379,11806
40376,11797
40373,11788
40372,11779
40372,11770
40372,11583
40372,11574
40373,11565
40376,11556
40379,11547
40383,11539
40387,11531
40393,11524
40399,11517
40406,11511
40413,11505
40421,11501
40429,11497
40438,11494
40447,11491
40456,11490
40465,11490
40691,11490
40701,11490
" /> 
<polyline style="fill-rule:evenodd;"
points="41390,11490
41399,11491
41408,11494
41416,11497
41424,11501
41432,11505
41440,11511
41447,11517
41453,11524
41458,11531
41463,11539
41467,11547
41470,11556
41472,11565
41473,11574
41474,11583
41474,11770
41473,11779
41472,11788
41470,11797
41467,11806
41463,11814
41458,11822
41453,11829
41447,11836
41440,11842
41432,11848
41424,11853
41416,11857
41408,11860
41399,11862
41390,11863
41380,11864
41154,11864
41145,11863
41136,11862
41127,11860
41118,11857
41110,11853
41102,11848
41095,11842
41088,11836
41082,11829
41076,11822
41072,11814
41068,11806
41065,11797
41062,11788
41061,11779
41061,11770
41061,11583
41061,11574
41062,11565
41065,11556
41068,11547
41072,11539
41076,11531
41082,11524
41088,11517
41095,11511
41102,11505
41110,11501
41118,11497
41127,11494
41136,11491
41145,11490
41154,11490
41380,11490
41390,11490
" /> 
<polyline style="fill-rule:evenodd;"
points="22626,7876
22635,7877
22644,7880
22652,7883
22661,7887
22669,7891
22676,7897
22683,7903
22689,7910
22694,7917
22699,7925
22703,7933
22706,7942
22708,7951
22710,7960
22710,7969
22710,8195
22710,8205
22708,8214
22706,8223
22703,8231
22699,8239
22694,8247
22689,8255
22683,8261
22676,8268
22669,8273
22661,8278
22652,8282
22644,8285
22635,8287
22626,8288
22617,8289
22430,8289
22420,8288
22411,8287
22402,8285
22394,8282
22386,8278
22378,8273
22370,8268
22364,8261
22357,8255
22352,8247
22347,8239
22343,8231
22340,8223
22338,8214
22337,8205
22336,8195
22336,7969
22337,7960
22338,7951
22340,7942
22343,7933
22347,7925
22352,7917
22357,7910
22364,7903
22370,7897
22378,7891
22386,7887
22394,7883
22402,7880
22411,7877
22420,7876
22430,7875
22617,7875
22626,7876
" /> 
<polyline style="fill-rule:evenodd;"
points="22626,8565
22635,8566
22644,8568
22652,8572
22661,8576
22669,8580
22676,8586
22683,8592
22689,8599
22694,8606
22699,8614
22703,8622
22706,8631
22708,8640
22710,8649
22710,8658
22710,8884
22710,8894
22708,8903
22706,8911
22703,8920
22699,8928
22694,8936
22689,8944
22683,8950
22676,8957
22669,8962
22661,8967
22652,8971
22644,8974
22635,8976
22626,8977
22617,8978
22430,8978
22420,8977
22411,8976
22402,8974
22394,8971
22386,8967
22378,8962
22370,8957
22364,8950
22357,8944
22352,8936
22347,8928
22343,8920
22340,8911
22338,8903
22337,8894
22336,8884
22336,8658
22337,8649
22338,8640
22340,8631
22343,8622
22347,8614
22352,8606
22357,8599
22364,8592
22370,8586
22378,8580
22386,8576
22394,8572
22402,8568
22411,8566
22420,8565
22430,8564
22617,8564
22626,8565
" /> 
<polyline style="fill-rule:evenodd;"
points="43638,13577
43647,13578
43656,13580
43664,13583
43673,13587
43680,13592
43688,13597
43695,13604
43701,13610
43706,13618
43711,13626
43715,13634
43718,13643
43720,13652
43721,13661
43722,13670
43722,13896
43721,13905
43720,13914
43718,13923
43715,13932
43711,13940
43706,13948
43701,13955
43695,13962
43688,13968
43680,13974
43673,13979
43664,13983
43656,13986
43647,13988
43638,13989
43628,13990
43441,13990
43432,13989
43423,13988
43414,13986
43406,13983
43397,13979
43389,13974
43382,13968
43375,13962
43369,13955
43364,13948
43359,13940
43355,13932
43352,13923
43350,13914
43348,13905
43348,13896
43348,13670
43348,13661
43350,13652
43352,13643
43355,13634
43359,13626
43364,13618
43369,13610
43375,13604
43382,13597
43389,13592
43397,13587
43406,13583
43414,13580
43423,13578
43432,13577
43441,13576
43628,13576
43638,13577
" /> 
<polyline style="fill-rule:evenodd;"
points="43638,14266
43647,14267
43656,14269
43664,14272
43673,14276
43680,14281
43688,14286
43695,14293
43701,14299
43706,14307
43711,14315
43715,14323
43718,14332
43720,14341
43721,14350
43722,14359
43722,14585
43721,14594
43720,14603
43718,14612
43715,14621
43711,14629
43706,14637
43701,14644
43695,14651
43688,14657
43680,14663
43673,14668
43664,14672
43656,14675
43647,14677
43638,14678
43628,14679
43441,14679
43432,14678
43423,14677
43414,14675
43406,14672
43397,14668
43389,14663
43382,14657
43375,14651
43369,14644
43364,14637
43359,14629
43355,14621
43352,14612
43350,14603
43348,14594
43348,14585
43348,14359
43348,14350
43350,14341
43352,14332
43355,14323
43359,14315
43364,14307
43369,14299
43375,14293
43382,14286
43389,14281
43397,14276
43406,14272
43414,14269
43423,14267
43432,14266
43441,14265
43628,14265
43638,14266
" /> 
<polyline style="fill-rule:evenodd;"
points="27649,18805
27658,18806
27667,18809
27676,18812
27684,18816
27692,18820
27700,18826
27706,18832
27713,18839
27718,18846
27723,18854
27727,18862
27730,18871
27732,18880
27733,18889
27734,18898
27734,19125
27733,19134
27732,19143
27730,19152
27727,19160
27723,19169
27718,19176
27713,19184
27706,19191
27700,19197
27692,19202
27684,19207
27676,19211
27667,19214
27658,19216
27649,19218
27640,19218
27453,19218
27444,19218
27435,19216
27426,19214
27417,19211
27409,19207
27401,19202
27394,19197
27387,19191
27381,19184
27375,19176
27371,19169
27367,19160
27364,19152
27362,19143
27360,19134
27360,19125
27360,18898
27360,18889
27362,18880
27364,18871
27367,18862
27371,18854
27375,18846
27381,18839
27387,18832
27394,18826
27401,18820
27409,18816
27417,18812
27426,18809
27435,18806
27444,18805
27453,18805
27640,18805
27649,18805
" /> 
<polyline style="fill-rule:evenodd;"
points="27649,19494
27658,19495
27667,19498
27676,19501
27684,19505
27692,19509
27700,19515
27706,19521
27713,19528
27718,19535
27723,19543
27727,19551
27730,19560
27732,19569
27733,19578
27734,19587
27734,19813
27733,19823
27732,19832
27730,19841
27727,19849
27723,19858
27718,19865
27713,19873
27706,19880
27700,19886
27692,19891
27684,19896
27676,19900
27667,19903
27658,19905
27649,19907
27640,19907
27453,19907
27444,19907
27435,19905
27426,19903
27417,19900
27409,19896
27401,19891
27394,19886
27387,19880
27381,19873
27375,19865
27371,19858
27367,19849
27364,19841
27362,19832
27360,19823
27360,19813
27360,19587
27360,19578
27362,19569
27364,19560
27367,19551
27371,19543
27375,19535
27381,19528
27387,19521
27394,19515
27401,19509
27409,19505
27417,19501
27426,19498
27435,19495
27444,19494
27453,19494
27640,19494
27649,19494
" /> 
<polyline style="fill-rule:evenodd;"
points="21555,6348
21564,6350
21573,6352
21582,6355
21590,6359
21598,6364
21605,6369
21612,6375
21618,6382
21624,6389
21628,6397
21632,6406
21635,6414
21637,6423
21639,6432
21639,6441
21639,6628
21639,6638
21637,6647
21635,6656
21632,6664
21628,6673
21624,6680
21618,6688
21612,6695
21605,6701
21598,6706
21590,6711
21582,6715
21573,6718
21564,6720
21555,6721
21546,6722
21319,6722
21310,6721
21301,6720
21292,6718
21284,6715
21275,6711
21267,6706
21260,6701
21253,6695
21247,6688
21242,6680
21237,6673
21233,6664
21230,6656
21228,6647
21226,6638
21226,6628
21226,6441
21226,6432
21228,6423
21230,6414
21233,6406
21237,6397
21242,6389
21247,6382
21253,6375
21260,6369
21267,6364
21275,6359
21284,6355
21292,6352
21301,6350
21310,6348
21319,6348
21546,6348
21555,6348
" /> 
<polyline style="fill-rule:evenodd;"
points="22244,6348
22253,6350
22262,6352
22271,6355
22279,6359
22287,6364
22294,6369
22301,6375
22307,6382
22312,6389
22317,6397
22321,6406
22324,6414
22326,6423
22328,6432
22328,6441
22328,6628
22328,6638
22326,6647
22324,6656
22321,6664
22317,6673
22312,6680
22307,6688
22301,6695
22294,6701
22287,6706
22279,6711
22271,6715
22262,6718
22253,6720
22244,6721
22235,6722
22008,6722
21999,6721
21990,6720
21981,6718
21973,6715
21964,6711
21956,6706
21949,6701
21942,6695
21936,6688
21931,6680
21926,6673
21922,6664
21919,6656
21917,6647
21915,6638
21915,6628
21915,6441
21915,6432
21917,6423
21919,6414
21922,6406
21926,6397
21931,6389
21936,6382
21942,6375
21949,6369
21956,6364
21964,6359
21973,6355
21981,6352
21990,6350
21999,6348
22008,6348
22235,6348
22244,6348
" /> 
<polyline style="fill-rule:evenodd;"
points="36823,19533
36832,19535
36841,19537
36849,19540
36858,19544
36865,19549
36873,19554
36880,19560
36886,19567
36891,19575
36896,19582
36900,19591
36903,19599
36905,19608
36907,19617
36907,19626
36907,19813
36907,19823
36905,19832
36903,19841
36900,19849
36896,19858
36891,19865
36886,19873
36880,19880
36873,19886
36865,19891
36858,19896
36849,19900
36841,19903
36832,19905
36823,19907
36813,19907
36587,19907
36578,19907
36569,19905
36560,19903
36551,19900
36543,19896
36535,19891
36528,19886
36521,19880
36515,19873
36509,19865
36505,19858
36501,19849
36498,19841
36495,19832
36494,19823
36494,19813
36494,19626
36494,19617
36495,19608
36498,19599
36501,19591
36505,19582
36509,19575
36515,19567
36521,19560
36528,19554
36535,19549
36543,19544
36551,19540
36560,19537
36569,19535
36578,19533
36587,19533
36813,19533
36823,19533
" /> 
<polyline style="fill-rule:evenodd;"
points="37512,19533
37521,19535
37530,19537
37538,19540
37547,19544
37554,19549
37562,19554
37569,19560
37575,19567
37580,19575
37585,19582
37589,19591
37592,19599
37594,19608
37596,19617
37596,19626
37596,19813
37596,19823
37594,19832
37592,19841
37589,19849
37585,19858
37580,19865
37575,19873
37569,19880
37562,19886
37554,19891
37547,19896
37538,19900
37530,19903
37521,19905
37512,19907
37502,19907
37276,19907
37267,19907
37258,19905
37249,19903
37240,19900
37232,19896
37224,19891
37217,19886
37210,19880
37204,19873
37198,19865
37194,19858
37190,19849
37187,19841
37184,19832
37183,19823
37183,19813
37183,19626
37183,19617
37184,19608
37187,19599
37190,19591
37194,19582
37198,19575
37204,19567
37210,19560
37217,19554
37224,19549
37232,19544
37240,19540
37249,19537
37258,19535
37267,19533
37276,19533
37502,19533
37512,19533
" /> 
<polyline style="fill-rule:evenodd;"
points="19490,20459
19499,20460
19508,20462
19517,20465
19525,20469
19533,20474
19540,20479
19547,20486
19553,20492
19559,20500
19563,20508
19567,20516
19570,20525
19573,20533
19574,20543
19574,20552
19574,20739
19574,20748
19573,20757
19570,20766
19567,20774
19563,20783
19559,20791
19553,20798
19547,20805
19540,20811
19533,20816
19525,20821
19517,20825
19508,20828
19499,20830
19490,20832
19481,20832
19254,20832
19245,20832
19236,20830
19227,20828
19219,20825
19210,20821
19202,20816
19195,20811
19188,20805
19182,20798
19177,20791
19172,20783
19168,20774
19165,20766
19163,20757
19161,20748
19161,20739
19161,20552
19161,20543
19163,20533
19165,20525
19168,20516
19172,20508
19177,20500
19182,20492
19188,20486
19195,20479
19202,20474
19210,20469
19219,20465
19227,20462
19236,20460
19245,20459
19254,20458
19481,20458
19490,20459
" /> 
<polyline style="fill-rule:evenodd;"
points="20179,20459
20188,20460
20197,20462
20206,20465
20214,20469
20222,20474
20229,20479
20236,20486
20242,20492
20248,20500
20252,20508
20256,20516
20259,20525
20261,20533
20263,20543
20263,20552
20263,20739
20263,20748
20261,20757
20259,20766
20256,20774
20252,20783
20248,20791
20242,20798
20236,20805
20229,20811
20222,20816
20214,20821
20206,20825
20197,20828
20188,20830
20179,20832
20170,20832
19943,20832
19934,20832
19925,20830
19916,20828
19908,20825
19899,20821
19891,20816
19884,20811
19877,20805
19871,20798
19866,20791
19861,20783
19857,20774
19854,20766
19852,20757
19850,20748
19850,20739
19850,20552
19850,20543
19852,20533
19854,20525
19857,20516
19861,20508
19866,20500
19871,20492
19877,20486
19884,20479
19891,20474
19899,20469
19908,20465
19916,20462
19925,20460
19934,20459
19943,20458
20170,20458
20179,20459
" /> 
<polyline style="fill-rule:evenodd;"
points="9072,11297
9072,10962
9407,10962
9407,11297
9072,11297
" /> 
</g>
<g style="fill:#000000; fill-opacity:1.0; 
stroke:#000000; stroke-width:275.591; stroke-opacity:1; 
stroke-linecap:round; stroke-linejoin:round;">
</g>
<g style="fill:#000000; fill-opacity:0.0; 
stroke:#000000; stroke-width:275.591; stroke-opacity:1; 
stroke-linecap:round; stroke-linejoin:round;">
<path d="M18492 12437
L19240 11688
" />
<path d="M18492 13125
L18492 12437
" />
<path d="M18265 13125
L18253 13137
" />
<path d="M18492 13125
L18265 13125
" />
<path d="M18253 13137
L17122 13137
" />
<path d="M16413 13846
L16413 17700
" />
<path d="M17122 13137
L16413 13846
" />
<path d="M21336 11000
L21484 10852
" />
<path d="M19240 11000
L21336 11000
" />
<path d="M21494 10842
L21484 10852
" />
<path d="M23751 10842
L21494 10842
" />
<path d="M21484 9811
L22523 8771
" />
<path d="M21484 10163
L21484 9811
" />
<path d="M24472 7869
L24669 7673
" />
<path d="M23374 8968
L24472 7869
" />
<path d="M22720 8968
L23374 8968
" />
<path d="M22523 8771
L22720 8968
" />
<path d="M30830 14610
L31830 14610
" />
<path d="M32468 13972
L31830 14610
" />
<path d="M32468 12929
L32468 13972
" />
<path d="M25554 12909
L25554 7869
" />
<path d="M32421 14610
L32539 14728
" />
<path d="M31830 14610
L32421 14610
" />
<path d="M32539 14728
L32539 15488
" />
<path d="M32539 15488
L32153 15874
" />
<path d="M25554 7869
L25358 7673
" />
<path d="M32153 15874
L28519 15874
" />
<path d="M28519 15874
L25554 12909
" />
<path d="M18718 13814
L19059 14155
" />
<path d="M18492 13814
L18718 13814
" />
<path d="M19059 14155
L19059 14574
" />
<path d="M19059 14574
L19842 15358
" />
<path d="M20952 15358
L21767 14543
" />
<path d="M19842 15358
L20952 15358
" />
<path d="M22433 21535
L24732 21535
" />
<path d="M20976 22992
L22433 21535
" />
<path d="M24732 21535
L26511 23314
" />
<path d="M26511 23314
L28110 23314
" />
<path d="M28110 23314
L28807 22618
" />
<path d="M28807 22618
L28807 19086
" />
<path d="M28807 19086
L25562 15842
" />
<path d="M25562 15842
L25562 14503
" />
<path d="M25562 14503
L24114 13055
" />
<path d="M24114 13055
L22429 13055
" />
<path d="M21767 13716
L21767 14543
" />
<path d="M22429 13055
L21767 13716
" />
<path d="M22523 6937
L22122 6535
" />
<path d="M22523 8082
L22523 6937
" />
<path d="M22750 8082
L25045 5787
" />
<path d="M22523 8082
L22750 8082
" />
<path d="M25045 5787
L26645 5787
" />
<path d="M29830 8972
L29830 14610
" />
<path d="M26645 5787
L29830 8972
" />
<path d="M20287 23218
L21005 23937
" />
<path d="M20287 22992
L20287 23218
" />
<path d="M22405 23937
L23350 22992
" />
<path d="M21005 23937
L22405 23937
" />
<path d="M20041 22992
L19998 22948
" />
<path d="M20287 22992
L20041 22992
" />
<path d="M19998 22948
L17051 22948
" />
<path d="M16720 22618
L16720 20389
" />
<path d="M17051 22948
L16720 22618
" />
<path d="M9240 11572
L13696 16029
" />
<path d="M9240 11129
L9240 11572
" />
<path d="M13696 17366
L16720 20389
" />
<path d="M13696 16029
L13696 17366
" />
<path d="M16838 11129
L21433 6535
" />
<path d="M9240 11129
L16838 11129
" />
<path d="M21543 19267
L21543 18720
" />
<path d="M21543 18720
L21476 18653
" />
<path d="M21476 18653
L20389 18653
" />
<path d="M20057 18986
L20057 20645
" />
<path d="M20389 18653
L20057 18986
" />
<path d="M24230 19267
L24259 19297
" />
<path d="M21543 19267
L24230 19267
" />
<path d="M20763 21688
L20854 21598
" />
<path d="M18460 21425
L18704 21669
" />
<path d="M20854 21598
L20854 19267
" />
<path d="M18704 21669
L19678 21669
" />
<path d="M18460 19059
L18460 21425
" />
<path d="M19678 21669
L19698 21688
" />
<path d="M19698 21688
L20763 21688
" />
<path d="M17771 18370
L18460 19059
" />
<path d="M17102 17700
L17771 18370
" />
<path d="M22535 15874
L22767 15641
" />
<path d="M20263 15874
L22535 15874
" />
<path d="M22767 15641
L22767 14543
" />
<path d="M17771 18370
L19129 17011
" />
<path d="M19129 17007
L20263 15874
" />
<path d="M19129 17011
L19129 17007
" />
<path d="M22767 14097
L22799 14066
" />
<path d="M22767 14543
L22767 14097
" />
<path d="M22799 14066
L23445 14066
" />
<path d="M23767 14388
L23767 14543
" />
<path d="M23445 14066
L23767 14388
" />
<path d="M30830 17610
L31602 18381
" />
<path d="M37389 19448
L37389 19720
" />
<path d="M36322 18381
L37389 19448
" />
<path d="M29830 17610
L30830 17610
" />
<path d="M34279 23273
L34279 21539
" />
<path d="M34279 21539
L33381 20641
" />
</g>
<g style="fill:#000000; fill-opacity:0.0; 
stroke:#000000; stroke-width:157.48; stroke-opacity:1; 
stroke-linecap:round; stroke-linejoin:round;">
<path d="M30779 20641
L29236 19098
" />
<path d="M33381 20641
L30779 20641
" />
<path d="M29236 19098
L29236 19059
" />
<path d="M29236 19059
L27996 17818
" />
<path d="M27996 17818
L27996 16799
" />
<path d="M27996 16799
L28122 16673
" />
<path d="M28122 16673
L32665 16673
" />
<path d="M33562 17570
L33562 18381
" />
<path d="M32665 16673
L33562 17570
" />
</g>
<g style="fill:#000000; fill-opacity:0.0; 
stroke:#000000; stroke-width:275.591; stroke-opacity:1; 
stroke-linecap:round; stroke-linejoin:round;">
<path d="M31602 18381
L33562 18381
" />
<path d="M33562 18381
L36322 18381
" />
<path d="M33624 19051
L33627 19047
" />
<path d="M33397 19051
L33624 19051
" />
<path d="M36027 19047
L36700 19720
" />
<path d="M33627 19047
L36027 19047
" />
<path d="M33157 12929
L33157 15047
" />
</g>
<g style="fill:#000000; fill-opacity:0.0; 
stroke:#000000; stroke-width:157.48; stroke-opacity:1; 
stroke-linecap:round; stroke-linejoin:round;">
<path d="M33157 15047
L33685 15047
" />
<path d="M33685 15047
L38283 19645
" />
<path d="M38283 19645
L38283 20228
" />
<path d="M38283 20228
L37708 20803
" />
<path d="M37708 20803
L37129 20803
" />
<path d="M36700 20374
L36700 19720
" />
<path d="M37129 20803
L36700 20374
" />
</g>
<g style="fill:#000000; fill-opacity:0.0; 
stroke:#000000; stroke-width:275.591; stroke-opacity:1; 
stroke-linecap:round; stroke-linejoin:round;">
<path d="M20767 17543
L20452 17858
" />
<path d="M19368 18498
L19368 20645
" />
<path d="M20007 17858
L19368 18498
" />
<path d="M17409 20875
L17425 20890
" />
<path d="M17409 20389
L17409 20875
" />
<path d="M17425 20890
L17425 21500
" />
<path d="M17425 21500
L18196 22271
" />
<path d="M18196 22271
L20870 22271
" />
<path d="M20870 22271
L22440 20700
" />
<path d="M22440 20700
L24933 20700
" />
<path d="M24933 20700
L26062 21830
" />
</g>
<g style="fill:#000000; fill-opacity:0.0; 
stroke:#000000; stroke-width:157.48; stroke-opacity:1; 
stroke-linecap:round; stroke-linejoin:round;">
<path d="M26062 21830
L26531 22299
" />
<path d="M26531 22299
L26531 22791
" />
<path d="M26531 22791
L26716 22976
" />
<path d="M26716 22976
L28031 22976
" />
<path d="M28031 22976
L28031 21232
" />
<path d="M28031 21232
L28299 20964
" />
<path d="M28299 20964
L28299 19086
" />
<path d="M28299 19086
L27311 18098
" />
<path d="M27311 18098
L26350 18098
" />
<path d="M26350 18098
L24893 16641
" />
<path d="M24893 16641
L22779 16641
" />
</g>
<g style="fill:#000000; fill-opacity:0.0; 
stroke:#000000; stroke-width:275.591; stroke-opacity:1; 
stroke-linecap:round; stroke-linejoin:round;">
<path d="M21669 16641
L22779 16641
" />
<path d="M21358 16952
L20330 16952
" />
<path d="M21358 16952
L21669 16641
" />
<path d="M20767 17543
L21358 16952
" />
<path d="M20251 17031
L20251 17858
" />
<path d="M20330 16952
L20251 17031
" />
<path d="M20452 17858
L20251 17858
" />
<path d="M20251 17858
L20007 17858
" />
<path d="M33171 19740
L33397 19740
" />
<path d="M28830 18055
L30515 19740
" />
<path d="M30515 19740
L33171 19740
" />
<path d="M28830 17610
L28830 18055
" />
<path d="M33826 19740
L35086 21000
" />
<path d="M33826 19740
L33397 19740
" />
<path d="M27192 20055
L27547 19700
" />
<path d="M27192 21832
L27192 20055
" />
<path d="M23832 18608
L24259 18608
" />
<path d="M22767 17543
L23832 18608
" />
<path d="M21767 17543
L22767 17543
" />
<path d="M27143 18608
L27547 19011
" />
<path d="M24259 18608
L27143 18608
" />
<path d="M37275 17831
L38913 19469
" />
<path d="M37275 17385
L37275 17831
" />
<path d="M38913 19469
L38913 22169
" />
<path d="M37120 23962
L34279 23962
" />
<path d="M38913 22169
L37120 23962
" />
<path d="M24039 22992
L25244 22992
" />
<path d="M26214 23962
L34279 23962
" />
<path d="M25244 22992
L26214 23962
" />
<path d="M54762 20292
L53739 20292
" />
<path d="M55196 17145
L55196 19858
" />
<path d="M55196 19858
L54762 20292
" />
<path d="M38925 16035
L37070 16035
" />
<path d="M37070 16035
L34748 13712
" />
<path d="M34748 13712
L34748 9661
" />
<path d="M34748 9661
L29748 4661
" />
<path d="M29748 4661
L19370 4661
" />
<path d="M19370 4661
L19354 4677
" />
<path d="M14968 4677
L10637 9007
" />
<path d="M19354 4677
L14968 4677
" />
<path d="M10637 9007
L7098 9007
" />
<path d="M7098 9007
L5492 10614
" />
<path d="M5492 10614
L5492 20011
" />
<path d="M5492 20011
L11893 26413
" />
<path d="M35170 26413
L35186 26397
" />
<path d="M11893 26413
L35170 26413
" />
<path d="M35186 26397
L38740 26397
" />
<path d="M44845 20292
L53739 20292
" />
<path d="M38740 26397
L44845 20292
" />
<path d="M40721 17385
L40776 17330
" />
<path d="M40275 17385
L40721 17385
" />
<path d="M40776 17330
L40846 17330
" />
<path d="M40846 17330
L41204 16972
" />
<path d="M41204 16972
L41204 16787
" />
<path d="M41177 16814
L39704 16814
" />
<path d="M41204 16787
L41177 16814
" />
<path d="M39704 16814
L38925 16035
" />
<path d="M52196 14145
L47496 9444
" />
<path d="M47496 9444
L39610 9444
" />
<path d="M39610 9444
L37996 11059
" />
<path d="M37996 11059
L37996 11177
" />
<path d="M37275 11897
L37275 14385
" />
<path d="M37996 11177
L37275 11897
" />
<path d="M52318 14023
L52196 14145
" />
<path d="M52318 10468
L52318 14023
" />
<path d="M58629 11303
L55787 14145
" />
<path d="M55787 14145
L55196 14145
" />
<path d="M58629 9799
L58629 11303
" />
<path d="M45610 13775
L45610 14001
" />
<path d="M45610 13775
L45610 14401
" />
<path d="M45610 14401
L44846 15165
" />
<path d="M44846 15165
L46629 16948
" />
<path d="M46629 16948
L50594 16948
" />
<path d="M50594 16948
L51645 15897
" />
<path d="M55196 14736
L55196 14145
" />
<path d="M51645 15897
L54035 15897
" />
<path d="M54035 15897
L55196 14736
" />
<path d="M43374 13783
L43535 13783
" />
<path d="M41267 11677
L43374 13783
" />
<path d="M54196 13700
L54196 14145
" />
<path d="M46564 14956
L53385 14956
" />
<path d="M46564 14267
L46564 14956
" />
<path d="M46299 14001
L46564 14267
" />
<path d="M46299 13775
L46299 14001
" />
<path d="M43761 13783
L45332 12212
" />
<path d="M43535 13783
L43761 13783
" />
<path d="M45332 12212
L46196 12212
" />
<path d="M46299 12314
L46299 13775
" />
<path d="M46196 12212
L46299 12314
" />
<path d="M53385 14956
L54196 14145
" />
<path d="M40578 14082
L40275 14385
" />
<path d="M40578 11677
L40578 14082
" />
<path d="M39275 14385
L40275 14385
" />
<path d="M43535 14718
L42177 16076
" />
<path d="M43535 14472
L43535 14718
" />
<path d="M39275 17385
L38275 17385
" />
<path d="M42177 16076
L42177 17318
" />
<path d="M42177 17318
L41039 18456
" />
<path d="M40346 18456
L40326 18437
" />
<path d="M41039 18456
L40346 18456
" />
<path d="M40326 18437
L39275 17385
" />
</g>
<g style="fill:#000000; fill-opacity:1.0; 
stroke:#000000; stroke-width:100; stroke-opacity:1; 
stroke-linecap:round; stroke-linejoin:round;">
<polyline style="fill-rule:evenodd;"
points="60950,29950
50,29950
50,10614
5096,10614
5104,10652
5104,19973
5096,20011
5126,20163
5190,20259
5190,20259
5212,20291
5244,20313
11592,26660
11614,26692
11646,26714
11742,26778
11893,26808
11931,26801
35132,26801
35170,26808
35208,26801
35208,26801
35287,26785
38701,26785
38740,26793
38778,26785
38778,26785
38891,26762
39019,26677
39041,26644
45005,20680
53087,20680
53087,22081
56011,22081
56011,20577
55033,20577
55042,20572
55063,20539
55444,20159
55476,20137
55562,20009
55584,19896
55584,19896
55592,19858
55584,19820
55584,17566
55604,17552
55729,17366
55772,17145
55729,16925
55604,16738
55417,16613
55252,16580
55141,16580
54976,16613
54789,16738
54696,16877
54604,16738
54417,16613
54252,16580
54141,16580
53976,16613
53789,16738
53776,16757
53617,16757
53604,16738
53417,16613
53252,16580
53141,16580
52976,16613
52789,16738
52776,16757
52617,16757
52604,16738
52417,16613
52252,16580
52141,16580
51976,16613
51789,16738
51664,16925
51620,17145
51664,17366
51789,17552
51976,17677
52141,17710
52252,17710
52417,17677
52604,17552
52617,17533
52776,17533
52789,17552
52976,17677
53141,17710
53252,17710
53417,17677
53604,17552
53617,17533
53776,17533
53789,17552
53976,17677
54141,17710
54252,17710
54417,17677
54604,17552
54696,17414
54789,17552
54809,17566
54809,19697
54601,19904
54027,19904
54004,19889
53907,19870
53572,19870
53475,19889
53452,19904
44883,19904
44845,19897
44807,19904
44807,19904
44693,19927
44597,19991
44597,19991
44565,20013
44543,20045
38579,26009
35224,26009
35186,26002
35147,26009
35068,26025
12054,26025
9133,23104
19830,23104
19830,23228
19868,23320
19939,23391
20030,23429
20174,23429
20237,23366
20237,23042
19893,23042
19830,23104
9133,23104
6531,20502
16263,20502
16263,20626
16301,20718
16372,20788
16464,20826
16607,20826
16670,20764
16670,20439
16326,20439
16263,20502
6531,20502
6181,20153
16263,20153
16263,20277
16326,20339
16670,20339
16670,20015
16607,19952
16464,19952
16372,19990
16301,20061
16263,20153
6181,20153
5879,19851
5879,11242
8822,11242
8822,11346
8860,11438
8931,11509
9023,11547
9127,11547
9190,11484
9190,11179
9290,11179
9290,11484
9352,11547
9457,11547
9549,11509
9619,11438
9657,11346
9657,11242
9594,11179
9290,11179
9190,11179
8885,11179
8822,11242
5879,11242
5879,10912
8822,10912
8822,11017
8885,11079
9190,11079
9190,10775
9290,10775
9290,11079
9594,11079
9657,11017
9657,10912
9619,10820
9549,10750
9457,10712
9352,10712
9290,10775
9190,10775
9127,10712
9023,10712
8931,10750
8860,10820
8822,10912
5879,10912
5879,10774
7259,9395
10599,9395
10637,9403
10675,9395
10675,9395
10789,9373
10917,9287
10939,9255
13546,6647
20976,6647
20976,6772
21014,6864
21084,6934
21176,6972
21320,6972
21383,6909
21383,6585
21038,6585
20976,6647
13546,6647
13895,6298
20976,6298
20976,6422
21038,6485
21383,6485
21383,6160
21320,6098
21176,6098
21084,6136
21014,6206
20976,6298
13895,6298
15129,5064
19316,5064
19354,5072
19392,5064
19392,5064
19471,5049
29587,5049
34360,9822
34360,13674
34352,13712
34360,13750
34360,13750
34374,13821
34382,13863
34405,13898
34468,13992
34500,14013
36769,16282
36791,16315
36823,16336
36823,16336
36898,16386
36919,16400
37032,16423
37032,16423
37070,16430
37109,16423
38764,16423
39171,16830
39055,16853
38868,16978
38855,16998
38695,16998
38682,16978
38496,16853
38331,16820
38219,16820
38055,16853
37868,16978
37775,17117
37682,16978
37496,16853
37331,16820
37219,16820
37055,16853
36868,16978
36743,17165
36699,17385
36743,17606
36812,17710
33940,14837
33922,14810
33813,14737
33717,14718
33717,14718
33685,14712
33652,14718
33545,14718
33545,13226
33592,13155
33619,13022
33619,12835
33592,12702
33517,12589
33403,12513
33270,12487
33044,12487
32910,12513
32812,12579
32715,12513
32581,12487
32355,12487
32221,12513
32108,12589
32033,12702
32006,12835
32006,13022
32033,13155
32080,13226
32080,13811
31852,14040
31515,14040
31418,14059
31335,14115
31280,14197
31275,14222
31251,14222
31238,14202
31051,14078
30886,14045
30775,14045
30610,14078
30423,14202
30330,14341
30238,14202
30218,14189
30218,9010
30226,8972
30218,8934
30218,8934
30196,8821
30162,8771
30131,8725
30131,8725
30110,8692
30077,8671
26946,5540
26925,5507
26796,5422
26683,5399
26683,5399
26645,5392
26607,5399
25083,5399
25045,5392
25007,5399
25007,5399
24893,5422
24765,5507
24744,5540
22911,7372
22911,6975
22919,6937
22911,6898
22911,6898
22888,6785
22873,6762
22824,6689
22824,6689
22803,6657
22770,6635
22583,6448
22583,6441
22557,6308
22481,6195
22368,6120
22235,6093
22008,6093
21875,6120
21809,6164
21781,6136
21689,6098
21545,6098
21483,6160
21483,6485
21490,6485
21490,6585
21483,6585
21483,6909
21545,6972
21689,6972
21781,6934
21809,6906
21875,6950
22008,6977
22015,6977
22135,7097
22135,7794
22108,7836
22081,7969
22081,8195
22108,8329
22173,8427
22108,8525
22081,8658
22081,8665
21237,9509
21204,9531
21183,9563
21183,9563
21118,9659
21088,9811
21096,9849
21096,9875
21068,9916
21042,10050
21042,10276
21068,10409
21134,10507
21068,10605
21067,10612
19537,10612
19466,10564
19333,10538
19146,10538
19013,10564
18900,10640
18824,10753
18798,10886
18798,11113
18824,11246
18890,11344
18824,11442
18798,11575
18798,11582
18244,12135
18212,12157
18190,12189
18190,12189
18126,12285
18096,12437
18104,12475
18104,12750
17160,12750
17122,12742
17083,12750
17083,12750
16970,12772
16842,12858
16820,12890
16166,13545
16133,13566
16112,13599
16095,13624
16048,13695
16025,13808
16025,13808
16017,13846
16025,13884
16025,17403
15978,17473
15951,17607
15951,17794
15978,17927
16053,18040
16166,18116
16300,18142
16526,18142
16659,18116
16757,18050
16855,18116
16989,18142
16995,18142
17470,18617
17492,18649
17524,18671
18072,19219
18072,21387
18065,21425
18095,21576
18159,21672
18159,21672
18181,21704
18213,21726
18370,21883
18357,21883
17812,21339
17812,20929
17820,20890
17803,20803
17797,20773
17797,20687
17844,20616
17871,20483
17871,20296
17844,20162
17768,20049
17655,19974
17522,19947
17296,19947
17162,19974
17096,20018
17068,19990
16976,19952
16832,19952
16770,20015
16770,20339
16778,20339
16778,20439
16770,20439
16770,20764
16832,20826
16976,20826
17021,20808
17021,20836
17014,20875
17037,20992
17037,21461
17029,21500
17059,21651
17123,21747
17123,21747
17145,21779
17177,21801
17895,22518
17917,22551
17949,22572
17949,22572
18016,22617
18045,22636
18158,22659
18158,22659
18196,22667
18235,22659
19872,22659
19868,22663
19830,22755
19830,22879
19893,22942
20237,22942
20237,22934
20337,22934
20337,22942
20345,22942
20345,23042
20337,23042
20337,23366
20399,23429
20543,23429
20635,23391
20663,23363
20729,23407
20863,23434
21089,23434
21222,23407
21335,23331
21411,23218
21434,23104
22893,23104
22893,23228
22931,23320
23002,23391
23093,23429
23237,23429
23300,23366
23300,23042
22956,23042
22893,23104
21434,23104
21437,23085
21437,23078
21761,22755
22893,22755
22893,22879
22956,22942
23300,22942
23300,22617
23237,22555
23093,22555
23002,22593
22931,22663
22893,22755
21761,22755
22593,21923
24571,21923
25245,22596
25244,22596
25205,22604
24327,22604
24285,22576
24152,22550
23926,22550
23792,22576
23726,22621
23698,22593
23606,22555
23462,22555
23400,22617
23400,22942
23408,22942
23408,23042
23400,23042
23400,23366
23462,23429
23606,23429
23698,23391
23726,23363
23792,23407
23926,23434
24152,23434
24285,23407
24327,23379
25083,23379
25913,24209
25934,24242
26063,24327
26176,24350
26176,24350
26214,24357
26252,24350
33981,24350
34052,24397
34186,24424
34373,24424
34506,24397
34577,24350
37081,24350
37120,24357
37158,24350
37158,24350
37271,24327
37399,24242
37421,24209
39160,22470
39192,22448
39214,22416
39214,22416
39278,22320
39283,22294
39301,22207
39301,22207
39308,22169
39301,22131
39301,19507
39308,19469
39301,19430
39301,19430
39278,19317
39192,19189
39160,19167
37724,17731
37775,17654
37868,17793
38055,17918
38219,17950
38331,17950
38496,17918
38682,17793
38695,17773
38855,17773
38868,17793
39055,17918
39219,17950
39292,17950
40045,18703
40066,18736
40195,18821
40308,18844
40308,18844
40346,18852
40384,18844
41001,18844
41039,18852
41077,18844
41077,18844
41190,18821
41318,18736
41340,18703
42424,17620
42456,17598
42542,17470
42564,17357
42564,17357
42572,17318
42564,17280
42564,16237
43782,15019
43815,14998
43836,14965
43836,14965
43900,14869
43900,14869
43922,14761
43950,14718
43977,14585
43977,14359
43950,14225
43900,14151
43913,14148
44041,14063
44063,14030
45493,12600
45911,12600
45911,13396
45856,13360
45723,13333
45497,13333
45363,13360
45250,13435
45175,13548
45148,13682
45148,13869
45175,14002
45222,14073
45222,14240
44599,14864
44566,14885
44545,14918
44481,15014
44451,15165
44481,15316
44566,15444
44599,15466
46328,17196
46350,17228
46478,17314
46591,17336
46591,17336
46629,17344
46668,17336
50556,17336
50594,17344
50632,17336
50632,17336
50745,17314
50874,17228
50895,17196
51806,16285
53997,16285
54035,16293
54073,16285
54073,16285
54186,16262
54315,16177
54336,16144
55444,15037
55476,15015
55498,14983
55498,14983
55562,14887
55578,14805
55584,14774
55584,14774
55592,14736
55585,14700
55609,14696
55692,14640
55747,14558
55752,14534
55787,14541
55825,14533
55825,14533
55938,14510
56066,14425
56088,14392
58877,11604
58909,11582
58931,11550
58931,11550
58995,11454
59004,11409
59017,11341
59017,11341
59025,11303
59017,11264
59017,10086
59032,10064
59052,9966
59052,9631
59032,9534
58977,9451
58894,9396
58797,9376
58462,9376
58365,9396
58282,9451
58227,9534
58207,9631
58207,9966
58227,10064
58242,10086
58242,11142
55708,13675
55692,13650
55609,13595
55511,13575
54881,13575
54784,13595
54701,13650
54646,13733
54635,13785
54604,13738
54592,13730
54600,13692
54570,13541
54484,13412
54356,13327
54204,13296
54053,13327
53957,13391
53949,13399
53917,13420
53831,13548
53809,13662
53809,13662
53801,13700
53806,13726
53789,13738
53688,13889
53650,13809
53487,13661
53334,13597
53246,13645
53246,14095
53254,14095
53254,14195
53246,14195
53246,14203
53146,14203
53146,14195
53138,14195
53138,14095
53146,14095
53146,13645
53059,13597
52906,13661
52743,13809
52706,13886
52706,12288
54461,12288
54461,11099
52706,11099
52706,10755
52721,10733
52741,10635
52741,10301
52721,10203
52666,10120
52583,10065
52486,10046
52151,10046
52054,10065
51971,10120
51916,10203
51896,10301
51896,10635
51916,10733
51931,10755
51931,13331
47797,9197
47775,9165
47647,9079
47534,9057
47534,9057
47496,9049
47457,9057
39648,9057
39610,9049
39572,9057
39572,9057
39458,9079
39363,9143
39363,9143
39330,9165
39309,9197
37748,10757
37716,10779
37694,10811
37667,10852
37630,10907
37609,11015
37028,11596
36996,11618
36910,11746
36887,11859
36887,11859
36880,11897
36887,11935
36887,13965
36868,13978
36743,14165
36699,14385
36743,14606
36868,14793
37055,14918
37219,14950
37331,14950
37496,14918
37682,14793
37775,14654
37868,14793
38055,14918
38219,14950
38331,14950
38496,14918
38682,14793
38775,14654
38868,14793
39055,14918
39219,14950
39331,14950
39496,14918
39682,14793
39695,14773
39720,14773
39725,14798
39780,14881
39863,14936
39960,14955
40590,14955
40688,14936
40770,14881
40826,14798
40845,14700
40845,14370
40858,14362
40944,14233
40966,14120
40966,14120
40974,14082
40966,14044
40966,12056
41021,12092
41154,12119
41161,12119
43072,14030
43094,14063
43126,14084
43126,14084
43180,14120
43185,14127
43120,14225
43093,14359
43093,14585
43097,14607
41929,15775
41897,15797
41875,15829
41836,15888
41811,15925
41789,16038
41789,16038
41781,16076
41789,16114
41789,17158
40878,18068
40507,18068
40379,17941
40496,17918
40682,17793
40694,17775
40721,17781
40759,17773
40759,17773
40872,17751
40936,17708
40997,17696
41126,17610
41147,17577
41451,17273
41484,17252
41570,17123
41592,17010
41592,17010
41600,16972
41592,16934
41592,16825
41600,16787
41592,16749
41592,16749
41570,16636
41484,16507
41356,16422
41204,16392
41053,16422
41045,16427
39865,16427
39226,15788
39204,15755
39076,15670
38963,15647
38963,15647
38925,15640
38887,15647
37231,15647
35135,13551
35135,9699
35143,9661
35135,9623
35135,9623
35113,9510
35027,9381
34995,9360
33249,7614
57276,7614
57276,9118
59581,9118
59581,7614
57276,7614
33249,7614
30049,4414
30027,4381
29899,4296
29895,4295
42557,4295
42557,5799
51442,5799
51442,4295
42557,4295
29895,4295
29786,4273
29786,4273
29748,4266
29709,4273
19408,4273
19370,4266
19331,4273
19252,4289
15006,4289
14968,4281
14930,4289
14930,4289
14817,4311
14688,4397
14667,4429
10477,8620
7136,8620
7098,8612
7060,8620
7060,8620
6947,8642
6818,8728
6797,8760
5244,10312
5212,10334
5190,10366
5142,10439
5126,10462
5104,10575
5104,10575
5096,10614
50,10614
50,3229
21131,3229
21131,3563
21150,3661
21206,3744
21288,3799
21386,3818
21721,3818
21818,3799
21901,3744
21956,3661
21975,3563
21975,3229
21956,3131
21901,3049
21818,2993
21721,2974
21386,2974
21288,2993
21206,3049
21150,3131
21131,3229
50,3229
50,50
60950,50
60950,29950
" /> 
<polyline style="fill-rule:evenodd;"
points="36239,19807
36239,19813
36265,19947
36341,20060
36372,20080
36372,20341
36365,20374
36372,20406
36372,20406
36391,20502
36463,20611
36491,20629
36874,21012
36892,21040
36971,21092
37001,21112
37129,21138
37162,21131
37676,21131
37708,21138
37741,21131
37741,21131
37836,21112
37945,21040
37964,21012
38493,20483
38520,20465
38525,20457
38525,22008
36959,23574
34658,23574
34694,23520
34721,23386
34721,23160
34694,23027
34667,22985
34667,21577
34674,21539
34667,21501
34667,21501
34644,21388
34635,21374
34580,21292
34580,21292
34559,21259
34526,21238
33629,20340
33533,20276
33381,20246
33230,20276
33175,20312
30915,20312
30730,20127
33100,20127
33170,20175
33304,20201
33491,20201
33624,20175
33677,20139
34625,21086
34625,21093
34651,21226
34727,21339
34840,21415
34973,21441
35199,21441
35333,21415
35399,21371
35427,21398
35519,21437
35663,21437
35725,21374
35725,21050
35825,21050
35825,21374
35888,21437
36032,21437
36123,21398
36194,21328
36232,21236
36232,21112
36169,21050
35825,21050
35725,21050
35717,21050
35717,20950
35725,20950
35725,20625
35825,20625
35825,20950
36169,20950
36232,20887
36232,20763
36194,20671
36123,20601
36032,20562
35888,20562
35825,20625
35725,20625
35663,20562
35519,20562
35427,20601
35399,20628
35333,20584
35199,20558
35193,20558
34073,19438
34068,19435
35866,19435
36239,19807
" /> 
<polyline style="fill-rule:evenodd;"
points="30524,20851
30542,20878
30651,20951
30747,20970
30747,20970
30779,20976
30812,20970
33162,20970
33891,21700
33891,22985
33864,23027
33837,23160
33837,23386
33864,23520
33900,23574
28403,23574
28411,23562
29054,22919
29086,22897
29108,22865
29108,22865
29114,22856
32574,22856
32574,22961
32612,23053
32683,23123
32775,23161
32879,23161
32942,23098
32942,22794
33042,22794
33042,23098
33104,23161
33209,23161
33301,23123
33371,23053
33409,22961
33409,22856
33346,22794
33042,22794
32942,22794
32637,22794
32574,22856
29114,22856
29172,22769
29178,22739
29194,22656
29194,22656
29202,22618
29194,22579
29194,22527
32574,22527
32574,22631
32637,22694
32942,22694
32942,22389
33042,22389
33042,22694
33346,22694
33409,22631
33409,22527
33371,22435
33301,22364
33209,22326
33104,22326
33042,22389
32942,22389
32879,22326
32775,22326
32683,22364
32612,22435
32574,22527
29194,22527
29194,19521
30524,20851
" /> 
<polyline style="fill-rule:evenodd;"
points="27970,20828
27821,20977
27794,20995
27775,21022
27721,21104
27696,21232
27702,21264
27702,22647
27629,22647
27629,22634
27567,22571
27242,22571
27242,22579
27142,22579
27142,22571
27135,22571
27135,22471
27142,22471
27142,22463
27242,22463
27242,22471
27567,22471
27629,22409
27629,22265
27591,22173
27564,22145
27608,22079
27634,21945
27634,21719
27608,21586
27580,21544
27580,20215
27634,20162
27640,20162
27774,20135
27887,20060
27962,19947
27970,19907
27970,20828
" /> 
</g>
<g style="fill:#FFFFFF; fill-opacity:1.0; 
stroke:#FFFFFF; stroke-width:100; stroke-opacity:1; 
stroke-linecap:round; stroke-linejoin:round;">
</g>
<g style="fill:#FFFFFF; fill-opacity:1.0; 
stroke:#FFFFFF; stroke-width:0; stroke-opacity:1; 
stroke-linecap:round; stroke-linejoin:round;">
<circle cx="55196.9" cy="14145.7" r="157.48" /> 
</g>
<g style="fill:#FFFFFF; fill-opacity:1.0; 
stroke:#FFFFFF; stroke-width:39.3701; stroke-opacity:1; 
stroke-linecap:round; stroke-linejoin:round;">
</g>
<g style="fill:#FFFFFF; fill-opacity:1.0; 
stroke:#FFFFFF; stroke-width:0; stroke-opacity:1; 
stroke-linecap:round; stroke-linejoin:round;">
<circle cx="52196.9" cy="17145.7" r="157.48" /> 
</g>
<g style="fill:#FFFFFF; fill-opacity:1.0; 
stroke:#FFFFFF; stroke-width:39.3701; stroke-opacity:1; 
stroke-linecap:round; stroke-linejoin:round;">
</g>
<g style="fill:#FFFFFF; fill-opacity:1.0; 
stroke:#FFFFFF; stroke-width:0; stroke-opacity:1; 
stroke-linecap:round; stroke-linejoin:round;">
<circle cx="54196.9" cy="14145.7" r="157.48" /> 
</g>
<g style="fill:#FFFFFF; fill-opacity:1.0; 
stroke:#FFFFFF; stroke-width:39.3701; stroke-opacity:1; 
stroke-linecap:round; stroke-linejoin:round;">
</g>
<g style="fill:#FFFFFF; fill-opacity:1.0; 
stroke:#FFFFFF; stroke-width:0; stroke-opacity:1; 
stroke-linecap:round; stroke-linejoin:round;">
<circle cx="53196.9" cy="17145.7" r="157.48" /> 
</g>
<g style="fill:#FFFFFF; fill-opacity:1.0; 
stroke:#FFFFFF; stroke-width:39.3701; stroke-opacity:1; 
stroke-linecap:round; stroke-linejoin:round;">
</g>
<g style="fill:#FFFFFF; fill-opacity:1.0; 
stroke:#FFFFFF; stroke-width:0; stroke-opacity:1; 
stroke-linecap:round; stroke-linejoin:round;">
<circle cx="53196.9" cy="14145.7" r="157.48" /> 
</g>
<g style="fill:#FFFFFF; fill-opacity:1.0; 
stroke:#FFFFFF; stroke-width:39.3701; stroke-opacity:1; 
stroke-linecap:round; stroke-linejoin:round;">
</g>
<g style="fill:#FFFFFF; fill-opacity:1.0; 
stroke:#FFFFFF; stroke-width:0; stroke-opacity:1; 
stroke-linecap:round; stroke-linejoin:round;">
<circle cx="54196.9" cy="17145.7" r="157.48" /> 
</g>
<g style="fill:#FFFFFF; fill-opacity:1.0; 
stroke:#FFFFFF; stroke-width:39.3701; stroke-opacity:1; 
stroke-linecap:round; stroke-linejoin:round;">
</g>
<g style="fill:#FFFFFF; fill-opacity:1.0; 
stroke:#FFFFFF; stroke-width:0; stroke-opacity:1; 
stroke-linecap:round; stroke-linejoin:round;">
<circle cx="52196.9" cy="14145.7" r="157.48" /> 
</g>
<g style="fill:#FFFFFF; fill-opacity:1.0; 
stroke:#FFFFFF; stroke-width:39.3701; stroke-opacity:1; 
stroke-linecap:round; stroke-linejoin:round;">
</g>
<g style="fill:#FFFFFF; fill-opacity:1.0; 
stroke:#FFFFFF; stroke-width:0; stroke-opacity:1; 
stroke-linecap:round; stroke-linejoin:round;">
<circle cx="55196.9" cy="17145.7" r="157.48" /> 
</g>
<g style="fill:#FFFFFF; fill-opacity:1.0; 
stroke:#FFFFFF; stroke-width:39.3701; stroke-opacity:1; 
stroke-linecap:round; stroke-linejoin:round;">
</g>
<g style="fill:#FFFFFF; fill-opacity:1.0; 
stroke:#FFFFFF; stroke-width:0; stroke-opacity:1; 
stroke-linecap:round; stroke-linejoin:round;">
<circle cx="23767.7" cy="17543.3" r="157.48" /> 
</g>
<g style="fill:#FFFFFF; fill-opacity:1.0; 
stroke:#FFFFFF; stroke-width:39.3701; stroke-opacity:1; 
stroke-linecap:round; stroke-linejoin:round;">
</g>
<g style="fill:#FFFFFF; fill-opacity:1.0; 
stroke:#FFFFFF; stroke-width:0; stroke-opacity:1; 
stroke-linecap:round; stroke-linejoin:round;">
<circle cx="20767.7" cy="14543.3" r="157.48" /> 
</g>
<g style="fill:#FFFFFF; fill-opacity:1.0; 
stroke:#FFFFFF; stroke-width:39.3701; stroke-opacity:1; 
stroke-linecap:round; stroke-linejoin:round;">
</g>
<g style="fill:#FFFFFF; fill-opacity:1.0; 
stroke:#FFFFFF; stroke-width:0; stroke-opacity:1; 
stroke-linecap:round; stroke-linejoin:round;">
<circle cx="22767.7" cy="17543.3" r="157.48" /> 
</g>
<g style="fill:#FFFFFF; fill-opacity:1.0; 
stroke:#FFFFFF; stroke-width:39.3701; stroke-opacity:1; 
stroke-linecap:round; stroke-linejoin:round;">
</g>
<g style="fill:#FFFFFF; fill-opacity:1.0; 
stroke:#FFFFFF; stroke-width:0; stroke-opacity:1; 
stroke-linecap:round; stroke-linejoin:round;">
<circle cx="21767.7" cy="14543.3" r="157.48" /> 
</g>
<g style="fill:#FFFFFF; fill-opacity:1.0; 
stroke:#FFFFFF; stroke-width:39.3701; stroke-opacity:1; 
stroke-linecap:round; stroke-linejoin:round;">
</g>
<g style="fill:#FFFFFF; fill-opacity:1.0; 
stroke:#FFFFFF; stroke-width:0; stroke-opacity:1; 
stroke-linecap:round; stroke-linejoin:round;">
<circle cx="21767.7" cy="17543.3" r="157.48" /> 
</g>
<g style="fill:#FFFFFF; fill-opacity:1.0; 
stroke:#FFFFFF; stroke-width:39.3701; stroke-opacity:1; 
stroke-linecap:round; stroke-linejoin:round;">
</g>
<g style="fill:#FFFFFF; fill-opacity:1.0; 
stroke:#FFFFFF; stroke-width:0; stroke-opacity:1; 
stroke-linecap:round; stroke-linejoin:round;">
<circle cx="22767.7" cy="14543.3" r="157.48" /> 
</g>
<g style="fill:#FFFFFF; fill-opacity:1.0; 
stroke:#FFFFFF; stroke-width:39.3701; stroke-opacity:1; 
stroke-linecap:round; stroke-linejoin:round;">
</g>
<g style="fill:#FFFFFF; fill-opacity:1.0; 
stroke:#FFFFFF; stroke-width:0; stroke-opacity:1; 
stroke-linecap:round; stroke-linejoin:round;">
<circle cx="20767.7" cy="17543.3" r="157.48" /> 
</g>
<g style="fill:#FFFFFF; fill-opacity:1.0; 
stroke:#FFFFFF; stroke-width:39.3701; stroke-opacity:1; 
stroke-linecap:round; stroke-linejoin:round;">
</g>
<g style="fill:#FFFFFF; fill-opacity:1.0; 
stroke:#FFFFFF; stroke-width:0; stroke-opacity:1; 
stroke-linecap:round; stroke-linejoin:round;">
<circle cx="23767.7" cy="14543.3" r="157.48" /> 
</g>
<g style="fill:#FFFFFF; fill-opacity:1.0; 
stroke:#FFFFFF; stroke-width:39.3701; stroke-opacity:1; 
stroke-linecap:round; stroke-linejoin:round;">
</g>
<g style="fill:#FFFFFF; fill-opacity:1.0; 
stroke:#FFFFFF; stroke-width:0; stroke-opacity:1; 
stroke-linecap:round; stroke-linejoin:round;">
<circle cx="32992.1" cy="22744.1" r="98.4252" /> 
</g>
<g style="fill:#FFFFFF; fill-opacity:1.0; 
stroke:#FFFFFF; stroke-width:39.3701; stroke-opacity:1; 
stroke-linecap:round; stroke-linejoin:round;">
</g>
<g style="fill:#FFFFFF; fill-opacity:1.0; 
stroke:#FFFFFF; stroke-width:0; stroke-opacity:1; 
stroke-linecap:round; stroke-linejoin:round;">
<circle cx="21553.8" cy="3396.6" r="98.4252" /> 
</g>
<g style="fill:#FFFFFF; fill-opacity:1.0; 
stroke:#FFFFFF; stroke-width:39.3701; stroke-opacity:1; 
stroke-linecap:round; stroke-linejoin:round;">
</g>
<g style="fill:#FFFFFF; fill-opacity:1.0; 
stroke:#FFFFFF; stroke-width:0; stroke-opacity:1; 
stroke-linecap:round; stroke-linejoin:round;">
<circle cx="31830.7" cy="17610.2" r="157.48" /> 
</g>
<g style="fill:#FFFFFF; fill-opacity:1.0; 
stroke:#FFFFFF; stroke-width:39.3701; stroke-opacity:1; 
stroke-linecap:round; stroke-linejoin:round;">
</g>
<g style="fill:#FFFFFF; fill-opacity:1.0; 
stroke:#FFFFFF; stroke-width:0; stroke-opacity:1; 
stroke-linecap:round; stroke-linejoin:round;">
<circle cx="28830.7" cy="14610.2" r="157.48" /> 
</g>
<g style="fill:#FFFFFF; fill-opacity:1.0; 
stroke:#FFFFFF; stroke-width:39.3701; stroke-opacity:1; 
stroke-linecap:round; stroke-linejoin:round;">
</g>
<g style="fill:#FFFFFF; fill-opacity:1.0; 
stroke:#FFFFFF; stroke-width:0; stroke-opacity:1; 
stroke-linecap:round; stroke-linejoin:round;">
<circle cx="30830.7" cy="17610.2" r="157.48" /> 
</g>
<g style="fill:#FFFFFF; fill-opacity:1.0; 
stroke:#FFFFFF; stroke-width:39.3701; stroke-opacity:1; 
stroke-linecap:round; stroke-linejoin:round;">
</g>
<g style="fill:#FFFFFF; fill-opacity:1.0; 
stroke:#FFFFFF; stroke-width:0; stroke-opacity:1; 
stroke-linecap:round; stroke-linejoin:round;">
<circle cx="29830.7" cy="14610.2" r="157.48" /> 
</g>
<g style="fill:#FFFFFF; fill-opacity:1.0; 
stroke:#FFFFFF; stroke-width:39.3701; stroke-opacity:1; 
stroke-linecap:round; stroke-linejoin:round;">
</g>
<g style="fill:#FFFFFF; fill-opacity:1.0; 
stroke:#FFFFFF; stroke-width:0; stroke-opacity:1; 
stroke-linecap:round; stroke-linejoin:round;">
<circle cx="29830.7" cy="17610.2" r="157.48" /> 
</g>
<g style="fill:#FFFFFF; fill-opacity:1.0; 
stroke:#FFFFFF; stroke-width:39.3701; stroke-opacity:1; 
stroke-linecap:round; stroke-linejoin:round;">
</g>
<g style="fill:#FFFFFF; fill-opacity:1.0; 
stroke:#FFFFFF; stroke-width:0; stroke-opacity:1; 
stroke-linecap:round; stroke-linejoin:round;">
<circle cx="30830.7" cy="14610.2" r="157.48" /> 
</g>
<g style="fill:#FFFFFF; fill-opacity:1.0; 
stroke:#FFFFFF; stroke-width:39.3701; stroke-opacity:1; 
stroke-linecap:round; stroke-linejoin:round;">
</g>
<g style="fill:#FFFFFF; fill-opacity:1.0; 
stroke:#FFFFFF; stroke-width:0; stroke-opacity:1; 
stroke-linecap:round; stroke-linejoin:round;">
<circle cx="28830.7" cy="17610.2" r="157.48" /> 
</g>
<g style="fill:#FFFFFF; fill-opacity:1.0; 
stroke:#FFFFFF; stroke-width:39.3701; stroke-opacity:1; 
stroke-linecap:round; stroke-linejoin:round;">
</g>
<g style="fill:#FFFFFF; fill-opacity:1.0; 
stroke:#FFFFFF; stroke-width:0; stroke-opacity:1; 
stroke-linecap:round; stroke-linejoin:round;">
<circle cx="31830.7" cy="14610.2" r="157.48" /> 
</g>
<g style="fill:#FFFFFF; fill-opacity:1.0; 
stroke:#FFFFFF; stroke-width:39.3701; stroke-opacity:1; 
stroke-linecap:round; stroke-linejoin:round;">
</g>
<g style="fill:#FFFFFF; fill-opacity:1.0; 
stroke:#FFFFFF; stroke-width:0; stroke-opacity:1; 
stroke-linecap:round; stroke-linejoin:round;">
<circle cx="40275.6" cy="14385.8" r="157.48" /> 
</g>
<g style="fill:#FFFFFF; fill-opacity:1.0; 
stroke:#FFFFFF; stroke-width:39.3701; stroke-opacity:1; 
stroke-linecap:round; stroke-linejoin:round;">
</g>
<g style="fill:#FFFFFF; fill-opacity:1.0; 
stroke:#FFFFFF; stroke-width:0; stroke-opacity:1; 
stroke-linecap:round; stroke-linejoin:round;">
<circle cx="37275.6" cy="17385.8" r="157.48" /> 
</g>
<g style="fill:#FFFFFF; fill-opacity:1.0; 
stroke:#FFFFFF; stroke-width:39.3701; stroke-opacity:1; 
stroke-linecap:round; stroke-linejoin:round;">
</g>
<g style="fill:#FFFFFF; fill-opacity:1.0; 
stroke:#FFFFFF; stroke-width:0; stroke-opacity:1; 
stroke-linecap:round; stroke-linejoin:round;">
<circle cx="39275.6" cy="14385.8" r="157.48" /> 
</g>
<g style="fill:#FFFFFF; fill-opacity:1.0; 
stroke:#FFFFFF; stroke-width:39.3701; stroke-opacity:1; 
stroke-linecap:round; stroke-linejoin:round;">
</g>
<g style="fill:#FFFFFF; fill-opacity:1.0; 
stroke:#FFFFFF; stroke-width:0; stroke-opacity:1; 
stroke-linecap:round; stroke-linejoin:round;">
<circle cx="38275.6" cy="17385.8" r="157.48" /> 
</g>
<g style="fill:#FFFFFF; fill-opacity:1.0; 
stroke:#FFFFFF; stroke-width:39.3701; stroke-opacity:1; 
stroke-linecap:round; stroke-linejoin:round;">
</g>
<g style="fill:#FFFFFF; fill-opacity:1.0; 
stroke:#FFFFFF; stroke-width:0; stroke-opacity:1; 
stroke-linecap:round; stroke-linejoin:round;">
<circle cx="38275.6" cy="14385.8" r="157.48" /> 
</g>
<g style="fill:#FFFFFF; fill-opacity:1.0; 
stroke:#FFFFFF; stroke-width:39.3701; stroke-opacity:1; 
stroke-linecap:round; stroke-linejoin:round;">
</g>
<g style="fill:#FFFFFF; fill-opacity:1.0; 
stroke:#FFFFFF; stroke-width:0; stroke-opacity:1; 
stroke-linecap:round; stroke-linejoin:round;">
<circle cx="39275.6" cy="17385.8" r="157.48" /> 
</g>
<g style="fill:#FFFFFF; fill-opacity:1.0; 
stroke:#FFFFFF; stroke-width:39.3701; stroke-opacity:1; 
stroke-linecap:round; stroke-linejoin:round;">
</g>
<g style="fill:#FFFFFF; fill-opacity:1.0; 
stroke:#FFFFFF; stroke-width:0; stroke-opacity:1; 
stroke-linecap:round; stroke-linejoin:round;">
<circle cx="37275.6" cy="14385.8" r="157.48" /> 
</g>
<g style="fill:#FFFFFF; fill-opacity:1.0; 
stroke:#FFFFFF; stroke-width:39.3701; stroke-opacity:1; 
stroke-linecap:round; stroke-linejoin:round;">
</g>
<g style="fill:#FFFFFF; fill-opacity:1.0; 
stroke:#FFFFFF; stroke-width:0; stroke-opacity:1; 
stroke-linecap:round; stroke-linejoin:round;">
<circle cx="40275.6" cy="17385.8" r="157.48" /> 
</g>
<g style="fill:#FFFFFF; fill-opacity:1.0; 
stroke:#FFFFFF; stroke-width:39.3701; stroke-opacity:1; 
stroke-linecap:round; stroke-linejoin:round;">
</g>
<g style="fill:#FFFFFF; fill-opacity:1.0; 
stroke:#FFFFFF; stroke-width:0; stroke-opacity:1; 
stroke-linecap:round; stroke-linejoin:round;">
<circle cx="53739.9" cy="20292.6" r="98.4252" /> 
</g>
<g style="fill:#FFFFFF; fill-opacity:1.0; 
stroke:#FFFFFF; stroke-width:39.3701; stroke-opacity:1; 
stroke-linecap:round; stroke-linejoin:round;">
</g>
<g style="fill:#FFFFFF; fill-opacity:1.0; 
stroke:#FFFFFF; stroke-width:0; stroke-opacity:1; 
stroke-linecap:round; stroke-linejoin:round;">
<circle cx="58629.9" cy="9799.21" r="98.4252" /> 
</g>
<g style="fill:#FFFFFF; fill-opacity:1.0; 
stroke:#FFFFFF; stroke-width:39.3701; stroke-opacity:1; 
stroke-linecap:round; stroke-linejoin:round;">
</g>
<g style="fill:#FFFFFF; fill-opacity:1.0; 
stroke:#FFFFFF; stroke-width:0; stroke-opacity:1; 
stroke-linecap:round; stroke-linejoin:round;">
<circle cx="52318.9" cy="10468.5" r="98.4252" /> 
</g>
<g style="fill:#FFFFFF; fill-opacity:1.0; 
stroke:#FFFFFF; stroke-width:39.3701; stroke-opacity:1; 
stroke-linecap:round; stroke-linejoin:round;">
</g>
<g style="fill:#FFFFFF; fill-opacity:1.0; 
stroke:#FFFFFF; stroke-width:0; stroke-opacity:1; 
stroke-linecap:round; stroke-linejoin:round;">
<circle cx="23752" cy="10842.5" r="98.4252" /> 
</g>
<g style="fill:#FFFFFF; fill-opacity:1.0; 
stroke:#FFFFFF; stroke-width:39.3701; stroke-opacity:1; 
stroke-linecap:round; stroke-linejoin:round;">
</g>
<g style="fill:#FFFFFF; fill-opacity:1.0; 
stroke:#FFFFFF; stroke-width:0; stroke-opacity:1; 
stroke-linecap:round; stroke-linejoin:round;">
<circle cx="9240.16" cy="11129.9" r="98.4252" /> 
</g>
<g style="fill:#FFFFFF; fill-opacity:1.0; 
stroke:#FFFFFF; stroke-width:39.3701; stroke-opacity:1; 
stroke-linecap:round; stroke-linejoin:round;">
</g>
<g style="fill:#000000; fill-opacity:1.0; 
stroke:#000000; stroke-width:39.3701; stroke-opacity:1; 
stroke-linecap:round; stroke-linejoin:round;">
</g> 
</svg>
